<?xml version="1.0" encoding="UTF-8"?><svg id="Graphic_Elements" xmlns="http://www.w3.org/2000/svg" viewBox="0 0 616.68 612"><defs><style>.cls-1{opacity:.9;}.cls-2{fill:#181818;stroke-width:0px;}</style></defs><g class="cls-1"><path class="cls-2" d="m525.87,184.72c2.14,2.91,4.09,5.97,5.87,9.17,28.33-29.47,35.75-62.2,20.9-92.15-3.47-5.9-8.5-13.52-12.33-19.19,20.37,27.52,15.44,69.75-14.44,102.18Z"/><path class="cls-2" d="m538.16,208.07c1.29,3.57,2.41,7.27,3.35,11.08,25.46-19.78,35.74-46.06,30.06-68.98l-.09-.36c-1.64-6.16-4.25-14.26-6.2-20.33,9.16,24.86-.17,55.4-27.11,78.6Z"/><path class="cls-2" d="m544.47,235.74c.47,4.11.77,8.31.91,12.61,22.29-13.11,33.42-31.39,32.78-49.42l-.36-7.63-1.14-12.82c2.42,20.11-8.55,41.53-32.19,57.26Z"/><path class="cls-2" d="m545,266.8c-.32,4.52-.8,9.11-1.44,13.76,19.4-7.83,30.18-20.01,31.96-33.41l1.67-14.8.41-5.18c-1.04,15.24-12.06,29.75-32.6,39.63Z"/><path class="cls-2" d="m539.95,300.36c-1.08,4.8-2.32,9.65-3.71,14.53,16.79-3.52,26.59-10.9,29.21-20.27,1.66-5.85,3.51-13.74,5.01-19.63-2.46,10.94-12.71,20.16-30.51,25.37Z"/><path class="cls-2" d="m529.51,335.51c-1.82,4.96-3.79,9.94-5.9,14.92,14.38.16,22.83-3.28,25.31-9.2,2.43-5.74,5.35-13.52,7.64-19.32-2.64,7.29-11.69,12.29-27.05,13.6Z"/><path class="cls-2" d="m513.88,371.32c-2.53,4.99-5.2,9.97-8.01,14.94,12.09,3.46,18.9,3.39,20.56.43l10.1-18.83c-2.07,4.15-9.59,5.58-22.65,3.46Z"/><path class="cls-2" d="m483.24,421.49c9.82,6.59,14.7,9.53,14.96,9.15l2.2-3.07,10.28-15.07c-.9,1.43-6.62-.28-17.42-5.58-3.21,4.89-6.55,9.76-10.03,14.57Z"/><path class="cls-2" d="m455.96,455.13c7.44,9.74,10,15.53,8.28,17.38l8.04-9.09,6.8-8.06c.4-1.57-2.43-5.1-11.22-13.99-1.79,2.17-3.62,4.33-5.47,6.48-2.13,2.47-4.28,4.9-6.44,7.28Z"/><path class="cls-2" d="m426.63,509.51l14.43-13.2,1.59-1.52c3.1-2.99,2.06-10.33-3.9-21.9-4.17,4.02-8.37,7.89-12.61,11.59,4.9,12.93,4.74,21.36.49,25.03Z"/><path class="cls-2" d="m395.29,508.35c2.09,16.26-1.33,27.17-8.71,32.12,5.2-3.53,11.93-8.54,17.03-12.2,5.97-4.5,7.94-14.38,4.63-29.2-4.3,3.26-8.63,6.35-12.95,9.28Z"/><path class="cls-2" d="m364.19,526.52c-1.18,19.89-8.69,33.14-19.98,38.65,5.46-2.7,12.57-6.65,17.95-9.51,9.56-5.38,15.25-17.68,14.99-36.01-4.33,2.46-8.65,4.75-12.96,6.87Z"/><path class="cls-2" d="m333.65,538.72c-5.18,23.96-18.02,39.33-34.13,44.24,5.71-1.77,13.19-4.52,18.84-6.49,21.59-8.73,26.03-32.12,27.92-42.11-4.24,1.63-8.46,3.08-12.63,4.36Z"/><path class="cls-2" d="m316.43,542.99c-4.05.77-8.04,1.35-11.97,1.74-10.31,28.75-30.45,45.76-52.48,47.9l6.72-.77,13.35-2.13c19.51-3.59,36.37-20.02,44.39-46.75Z"/><path class="cls-2" d="m288.38,545.29c-3.74-.13-7.41-.45-10.99-.97-16.95,34.06-47.1,51.59-75.49,47.36,4.42.64,10.37,1.11,14.81,1.58l6.4.33c25.74.98,51.3-16.52,65.26-48.3Z"/><path class="cls-2" d="m262.92,541.03c-3.33-1.06-6.55-2.32-9.67-3.78-27.46,39.71-65.53,54.44-101.84,39.4,6.23,2.73,14.72,5.97,21.12,8.29,16.04,4.56,56.96,9.42,90.4-43.91Z"/><path class="cls-2" d="m240.84,529.95c-.33-.24-.66-.48-.98-.72-2.45-1.83-4.79-3.82-7.04-5.97-31.22,37.85-87.25,56.47-126.98,22.12,4.58,4.21,10.99,9.47,15.81,13.39l2.2,1.62c34.07,24.68,86.23,11.2,116.99-30.44Z"/><path class="cls-2" d="m223.02,511.93c-2.1-2.94-4.02-6.02-5.77-9.25-36.48,35.66-93.65,43.9-127.69,18.42-7.36-5.51-13.04-12.14-17.05-19.51,3.4,5.94,8.33,13.62,12.1,19.33,3.57,4.94,7.95,9.43,13.14,13.31,34.05,25.48,90.13,15.5,125.27-22.29Z"/><path class="cls-2" d="m210.96,488.39c-1.26-3.59-2.34-7.31-3.25-11.14-38.69,29.76-97.65,33.23-131.69,7.75-11.75-8.79-18.99-19.88-21.86-31.85l.54,2.23c1.46,5.58,3.81,12.92,5.52,18.43,3.65,10.24,10.44,19.54,20.42,27.01,34.05,25.48,92.4,19.92,130.33-12.42Z"/><path class="cls-2" d="m72,461.33c34.05,25.48,93.54,25.15,132.88-.76-.44-4.12-.71-8.34-.82-12.65-39.53,22.97-99.17,20.93-133.22-4.55-14.95-11.19-22.48-25.03-22.88-38.99l.42,9.5.93,10.89c1.5,13.42,8.99,26.3,22.7,36.56Z"/><path class="cls-2" d="m206.1,415.6c-39.06,15.49-98.32,7.38-132.37-18.1-17.24-12.9-24.71-27.78-22.83-41.33l-1.93,16.66-.27,3.27c-1.06,14.01,6.44,28.69,22.85,40.98,34.05,25.48,93.6,31,133.01,12.32.35-4.53.86-9.13,1.53-13.79Z"/><path class="cls-2" d="m84.44,348.68c-18.82-14.09-26.44-28.56-23.18-39.96-1.69,5.85-3.59,13.74-5.12,19.64-7.23,42.31,87.58,83.88,153.71,67.4,1.11-4.81,2.38-9.66,3.8-14.55-37.31,7.52-95.16-7.04-129.21-32.52Z"/><path class="cls-2" d="m102.65,298.2c-19.88-14.88-28.08-27.92-24.62-36.05-2.46,5.73-5.42,13.52-7.74,19.31-3.53,9.59,4.36,23.33,23.86,37.93,34.05,25.48,90.61,43.92,126.34,41.18,1.85-4.96,3.84-9.94,5.99-14.93-34.34-.72-89.78-21.96-123.82-47.44Z"/><path class="cls-2" d="m236.31,324.74c2.55-4.99,5.25-9.97,8.09-14.93-30.19-9.01-82.26-36.98-116.31-62.46-20.52-15.36-29.81-26.31-27.36-30.61l-10.19,18.81c-2.99,5.94,5.79,17.81,26.07,32.99,34.05,25.48,87.64,50.64,119.7,56.2Z"/><path class="cls-2" d="m257.11,289.17c3.23-4.89,6.6-9.74,10.11-14.55-24.9-17.17-72.69-51.74-106.74-77.22-20.74-15.52-31.6-24.09-31.3-24.55l-3.42,4.75-9.16,13.35c-1.3,2.05,8.85,11.62,29.53,27.09,34.05,25.48,83.73,57.32,110.98,71.12Z"/><path class="cls-2" d="m282.7,254.78c1.44-1.73,2.9-3.45,4.38-5.17,2.5-2.9,5.03-5.74,7.58-8.53-18.55-24.93-61.18-65.8-95.23-91.28-20.58-15.4-33.31-21.66-36.07-18.7l-9.47,10.65-5.45,6.43c1.39-1.63,13.32,5.56,34.02,21.05,34.05,25.48,78.93,63.78,100.25,85.54Z"/><path class="cls-2" d="m311.9,223.45c4.18-3.99,8.39-7.83,12.63-11.5-11.63-31.68-48.66-78.02-82.71-103.5-20.02-14.98-34.55-19.42-40.77-14.1l-15.95,14.52-.11.11c4.74-4.53,18.57.58,38.91,15.8,34.05,25.48,73.45,69.66,88,98.67Z"/><path class="cls-2" d="m342.45,197.49c4.31-3.23,8.63-6.29,12.96-9.19-4.48-37.16-35.71-87.94-69.76-113.42-19.03-14.24-34.92-17.57-44.44-11.25-5.21,3.49-11.94,8.46-17.06,12.09,8.19-6.1,23.6-2.4,43.11,12.2,34.05,25.48,67.71,74.53,75.19,109.56Z"/><path class="cls-2" d="m373.55,177.13c4.33-2.43,8.65-4.69,12.95-6.77,2.72-41.31-22.67-95.46-56.72-120.94-17.54-13.13-33.96-16.09-46.13-10.23-5.47,2.66-12.58,6.56-17.97,9.39,11.18-6.21,27.49-3.18,45.71,10.45,34.05,25.48,61.87,78.35,62.15,118.1Z"/><path class="cls-2" d="m355.17,38.47c34.05,25.48,56.09,81.07,49.22,124.17,4.24-1.6,8.44-3.02,12.61-4.26,9.79-44.09-9.88-100.48-43.93-125.96-15.41-11.53-31.12-14.76-44.61-10.75l-1.05.31c-5.41,1.64-12.49,4.22-17.84,6.05,13.12-4.87,29.26-1.8,45.6,10.43Z"/><path class="cls-2" d="m397.46,26.57c34.05,25.48,50.49,82.65,36.72,127.69,4.04-.73,8.02-1.28,11.94-1.64,16.53-45.42,2.33-102.89-31.72-128.38-12.34-9.24-25.6-13.01-38.27-11.89l-8.66.96-11.5,1.79c13.3-2.35,27.77,1.21,41.48,11.48Z"/><path class="cls-2" d="m437.15,23.67c34.05,25.48,45.24,83.03,25,128.55,3.73.17,7.38.53,10.94,1.08,22.78-45.27,13.64-102.61-20.41-128.1-8.27-6.19-17.24-9.93-26.42-11.4-5.02-.75-11.77-1.35-16.82-1.88l-4.48-.25c11.02.52,22.04,4.41,32.18,12Z"/><path class="cls-2" d="m460.39,22.72c-1.56-.67-3.13-1.28-4.72-1.81,1.48.56,3.08,1.17,4.72,1.81Z"/><path class="cls-2" d="m487.49,156.75c3.31,1.1,6.51,2.4,9.61,3.89,28.34-43.56,23.71-99.53-10.34-125.01-3.22-2.41-6.59-4.46-10.07-6.16-4.77-2.16-10.85-4.62-16.31-6.74,4.41,1.9,8.68,4.34,12.73,7.38,34.05,25.48,40.48,82.18,14.37,126.65Z"/><path class="cls-2" d="m509.42,168.09c.07.05.13.1.2.15,2.7,2.02,5.29,4.24,7.75,6.66,30.83-37.57,32.17-86.48,4.55-113.56-5.03-4.69-12.06-10.59-17.39-14.93l-.44-.33c.05.04.11.08.16.12,34.05,25.48,36.37,80.05,5.17,121.89Z"/></g><ellipse class="cls-2" cx="375.59" cy="348.49" rx="208.81" ry="119.95" transform="translate(-129.01 437.34) rotate(-52.84)"/></svg>