<?xml version="1.0" encoding="UTF-8"?><svg id="Graphic_Elements" xmlns="http://www.w3.org/2000/svg" viewBox="0 0 616.68 612"><defs><style>.cls-1{fill:#181818;stroke-width:0px;}</style></defs><path class="cls-1" d="m477.53,475.45s0,.01,0,.02c.87.13,1.74.28,2.61.37.71.08,1.41.15,2.12.21-.14-.02-.29-.04-.44-.05-1.34-.17-2.8-.35-4.3-.55Z"/><path class="cls-1" d="m527.38,471.82c-1.91.56-3.84,1.05-5.78,1.47,1.55-.39,3.42-.86,5.78-1.47Z"/><path class="cls-1" d="m482.04,472.11c-1.77-.49-3.53-1.04-5.27-1.65.17,1.02.32,2.01.47,2.97,3.56.97,7.16,1.73,10.79,2.2,6.36.84,12.79.91,19.15.22l2.01-.24c4.03-.53,5.85-.79,8.88-1.48,1.01-.23,2.14-.5,3.54-.85-5.41,1.16-10.91,1.77-16.43,1.83-7.76.08-15.54-.93-23.14-3.01Z"/><path class="cls-1" d="m527.38,471.82s.07-.02.11-.03l.62-.19c-.08.02-.16.05-.25.07-.16.05-.32.09-.48.14Z"/><path class="cls-1" d="m474.6,459.04c.37,1.71.73,3.47,1.07,5.25,22.57,9.73,52.57,12.42,83.97-8.19,0,0,0,0,0,0,.02-.01.03-.02.05-.04.02-.01.03-.02.04-.03,2.38-1.71,3.62-2.62,5.29-4.05,1.68-1.43,3.8-3.39,7.93-7.22,1.14-1.16,2.42-2.58,3.68-4-.06.06-.12.13-.18.19-24,25.51-64.17,36.08-101.87,18.08Z"/><path class="cls-1" d="m579.92,437.06c-1.05,1.27-2.15,2.5-3.28,3.71,1.15-1.3,2.29-2.6,3.28-3.71Z"/><path class="cls-1" d="m595.67,407.47c-1.92,3.86-4.18,7.62-6.77,11.22-2.59,3.61-5.52,7.07-8.78,10.34-8.46,8.5-18.39,14.96-29.09,19.35-10.7,4.39-22.17,6.72-33.74,6.96-11.56.25-23.21-1.59-34.26-5.51-4.23-1.51-8.38-3.33-12.4-5.45.03.08.06.18.09.26.13.41.24.83.36,1.25.56,1.79,1.08,3.55,1.56,5.25,3,1.52,6.06,2.9,9.17,4.08,10.98,4.18,22.57,6.24,34.08,6.18,11.51-.06,22.94-2.23,33.61-6.51,10.67-4.28,20.57-10.67,29.03-19.17,2.23-2.24,4.29-4.56,6.21-6.96,1.91-2.4,3.67-4.88,5.28-7.43,1.61-2.55,3.06-5.16,4.35-7.83.89-1.84,1.71-3.71,2.46-5.6.34-.85.66-1.7.97-2.56.11-.33.23-.67.35-1.03.93-2.82,1.91-6.28,2.7-8.99.02-.05.03-.11.05-.16.02-.09.04-.18.06-.27.39-1.66.78-3.56,1.15-5.48-.47,2.07-1.02,4.12-1.65,6.16-1.26,4.05-2.85,8.02-4.78,11.89Z"/><path class="cls-1" d="m602.1,389.42c.39-1.73.72-3.47.99-5.21.05-.32.1-.64.15-.95-.02.1-.04.21-.06.32-.32,1.78-.69,3.82-1.08,5.84Z"/><path class="cls-1" d="m463.53,425.15c1.15,2.71,2.32,5.64,3.35,8.38,56.65,30.02,139.48-3.37,137.23-77.53l-.09-1.18c-.33-3.42-.93-7.67-1.49-11.49-.18-1.25-.36-2.45-.53-3.56.13.82.24,1.63.34,2.44,8.96,71.14-73.97,117.74-138.81,82.94Z"/><path class="cls-1" d="m593.57,343.45c-1.73,6.66-4.47,13.3-8.24,19.74-3.77,6.44-8.57,12.67-14.39,18.51-8.5,8.53-18.37,15.42-28.96,20.58-10.59,5.16-21.89,8.59-33.22,10.18-11.33,1.6-22.69,1.37-33.41-.78-7.71-1.55-15.08-4.11-21.88-7.68,1.49,2.87,3.06,5.9,4.29,8.42.13.28.25.56.38.84,6.49,3.49,13.44,6.1,20.68,7.83,10.88,2.59,22.38,3.22,33.82,1.95,11.44-1.26,22.83-4.42,33.48-9.39,10.65-4.97,20.56-11.75,29.05-20.28,5.5-5.52,10.07-11.43,13.7-17.57,3.64-6.14,6.35-12.51,8.13-18.95,1.79-6.44,2.65-12.95,2.6-19.36-.05-5.98-.9-11.88-2.54-17.58-.12-.42-.23-.83-.36-1.25-.32-1-.68-2.07-1.07-3.17-.96-2.78-2.07-5.8-3.06-8.5,1.81,5.32,2.85,10.89,3.12,16.58.31,6.52-.4,13.2-2.12,19.86Z"/><path class="cls-1" d="m582.4,291.3c.58,6.28,0,12.9-1.73,19.64-1.74,6.74-4.63,13.6-8.67,20.37-4.05,6.77-9.25,13.45-15.6,19.81-8.51,8.53-18.28,15.7-28.65,21.36-10.37,5.65-21.34,9.79-32.27,12.27-10.92,2.47-21.8,3.29-31.98,2.29-8.3-.81-16.12-2.85-23.14-6.15.71,1.16,1.39,2.29,2.01,3.32,1.16,1.95,2.52,4.22,3.86,6.51,6.99,3.47,14.69,5.77,22.8,6.93,10.43,1.49,21.54,1.13,32.65-.97,11.12-2.1,22.24-5.93,32.72-11.37,10.47-5.44,20.29-12.49,28.8-21.02,6.15-6.17,11.19-12.7,15.12-19.37,3.93-6.67,6.75-13.48,8.46-20.24,1.71-6.76,2.31-13.46,1.8-19.89-.44-5.54-1.7-10.88-3.78-15.9-.34-.82-.7-1.62-1.08-2.42-1.68-3.47-4.03-7.9-5.91-11.55.17.35.35.71.51,1.06,2.22,4.77,3.58,9.92,4.08,15.32Z"/><path class="cls-1" d="m552.69,297.38c-4.33,6.76-9.84,13.59-16.49,20.26-8.52,8.54-18.12,16.01-28.18,22.21-10.06,6.2-20.58,11.11-30.93,14.55-10.36,3.44-20.55,5.39-29.97,5.66-8.39.24-16.16-.86-22.88-3.44,2.4,3.45,4.81,6.96,7.03,10.24,6.91,2.94,14.78,4.47,23.2,4.7,9.76.27,20.26-1.2,30.87-4.22,10.61-3.03,21.34-7.61,31.54-13.58,10.2-5.97,19.88-13.31,28.39-21.85,6.54-6.55,11.91-13.33,16.12-20.11,4.21-6.78,7.24-13.57,9.09-20.15,1.85-6.58,2.51-12.94,1.98-18.87-.53-5.93-2.26-11.43-5.2-16.29l-6.8-10.79-.34-.52-.67-1.03c.11.17.21.33.32.5,2.69,4.3,4.25,9.26,4.67,14.68.44,5.63-.33,11.77-2.29,18.18-1.97,6.42-5.12,13.12-9.46,19.88Z"/><path class="cls-1" d="m528.3,261.9c-4.66,6.57-10.43,13.38-17.27,20.23-8.53,8.54-17.92,16.33-27.59,23.1-9.67,6.77-19.61,12.51-29.25,16.97-9.64,4.46-18.98,7.62-27.45,9.24-7.93,1.51-15.08,1.65-21,.22.32.41.65.82.96,1.2,2.17,2.71,4.76,6.13,7.12,9.3,6.29,1.92,13.72,2.33,21.86,1.37,8.88-1.05,18.6-3.7,28.56-7.73,9.96-4.03,20.15-9.42,29.99-15.95,9.84-6.53,19.32-14.18,27.85-22.73,6.77-6.78,12.43-13.61,16.94-20.27,4.51-6.66,7.88-13.16,10.07-19.27,2.19-6.11,3.19-11.85,2.99-16.99-.19-4.59-1.34-8.72-3.49-12.22-.26-.42-.52-.83-.81-1.23l-2.79-3.84-2.51-3.46-3.65-4.89c2.44,3.25,3.64,7.36,3.63,12.12,0,4.77-1.22,10.19-3.6,16.06-2.38,5.87-5.92,12.19-10.57,18.76Z"/><path class="cls-1" d="m511.62,208.31c-2.93,5.21-6.94,11.03-11.96,17.29-5.02,6.26-11.04,12.96-18,19.92-8.54,8.54-17.68,16.66-26.88,24.02-9.2,7.36-18.47,13.96-27.27,19.47-8.8,5.51-17.14,9.93-24.5,12.94-7.13,2.91-13.3,4.46-18.1,4.42.27.31.56.65.82.94,2.45,2.82,5.44,6.38,8.13,9.61,5.31.65,11.92-.28,19.43-2.6,7.84-2.42,16.61-6.32,25.78-11.39,9.17-5.07,18.73-11.31,28.13-18.42,9.4-7.11,18.65-15.09,27.19-23.64,6.92-6.92,12.84-13.68,17.7-20.08,4.86-6.4,8.67-12.44,11.35-17.94,2.68-5.49,4.25-10.44,4.63-14.64.36-3.94-.32-7.24-2.1-9.72-.12-.16-.23-.32-.36-.48l-1.78-2.19-1.38-1.7-6.82-8.19c1.69,2.01,2.15,5,1.46,8.78-.69,3.79-2.54,8.37-5.47,13.58Z"/><path class="cls-1" d="m366.76,286.13c1.7,1.83,3.45,3.73,5.1,5.53,4.02-.84,9.49-3.28,16.01-7.03,6.64-3.82,14.34-8.98,22.61-15.1,8.27-6.13,17.1-13.23,26-20.93,8.91-7.7,17.88-16.01,26.43-24.56,7-6.99,13.17-13.6,18.41-19.66,5.24-6.06,9.56-11.56,12.86-16.35,3.3-4.79,5.58-8.86,6.75-12.05,1.17-3.19,1.23-5.5.09-6.77,0,0,0,0,0,0l-.48-.53-7.81-8.5-2.6-2.83s.06.08.09.12c.56.83.06,2.61-1.41,5.24-1.55,2.77-4.16,6.47-7.75,10.95-3.58,4.48-8.13,9.75-13.54,15.64-5.41,5.9-11.67,12.42-18.68,19.43-8.55,8.54-17.4,16.99-26.08,24.94-8.68,7.95-17.19,15.4-25.05,21.97-7.86,6.57-15.08,12.25-21.19,16.65-6.01,4.33-10.93,7.41-14.34,8.9.27.29.57.6.83.88.4.44.82.89,1.26,1.36-.03-.04-.06-.08-.09-.12l2.6,2.83Z"/><path class="cls-1" d="m348.12,266.7l.03.03c20.26-19.2,120.05-118.33,126.21-125.71h0s-.28-.27-.28-.27c-3.1-3.11-6.58-6.56-9.38-9.28-.54-.52-1.1-1.07-1.69-1.63l-.32-.31s-.02-.01-.03-.02c-.49-.38-2.03.36-4.49,2.1-2.52,1.78-6,4.6-10.3,8.35-4.3,3.76-9.43,8.44-15.24,13.93-5.81,5.5-12.29,11.81-19.31,18.81-8.56,8.54-17.09,17.3-25.21,25.83-8.11,8.52-15.79,16.82-22.64,24.42-6.84,7.6-12.85,14.52-17.61,20.28-4.69,5.69-8.17,10.26-10.05,13.3.31.3.63.61.93.9,2.8,2.73,6.28,6.17,9.38,9.28Z"/><path class="cls-1" d="m395.7,120.19c-6.19,5.09-12.87,11.16-19.85,18.12-8.56,8.53-16.77,17.59-24.28,26.67-7.51,9.07-14.32,18.16-20.09,26.75-5.77,8.59-10.49,16.67-13.83,23.75-3.26,6.9-5.17,12.82-5.47,17.33.32.28.68.59.98.86,2.97,2.57,6.61,5.86,9.85,8.86.97-3.91,3.53-9.27,7.39-15.67,3.94-6.54,9.2-14.15,15.42-22.33,6.22-8.19,13.4-16.95,21.17-25.8,7.77-8.85,16.11-17.79,24.67-26.32,7.01-6.99,13.61-13.16,19.64-18.42,6.03-5.26,11.5-9.61,16.24-12.95,4.74-3.34,8.74-5.68,11.86-6.91,3.12-1.23,5.35-1.36,6.53-.3l-9.96-8.85-2.35-2.09c-.13-.11-.26-.21-.4-.31-1.73-1.21-4.31-1.38-7.6-.58-3.56.87-7.95,2.87-12.99,5.93-5.05,3.06-10.76,7.18-16.95,12.27Z"/><path class="cls-1" d="m319.81,239.69c.05.04.13.05.17.09l-7.8-6.94h0s7.8,6.94,7.8,6.94c-.05-.04-.12-.05-.17-.09Z"/><path class="cls-1" d="m289.75,213.78c2.31,1.89,4.77,3.91,7.06,5.8-.6-5.28.4-11.87,2.79-19.36,2.49-7.79,6.44-16.52,11.57-25.65,5.12-9.13,11.41-18.65,18.56-28.03,7.15-9.38,15.16-18.6,23.72-27.12,6.93-6.9,13.69-12.82,20.08-17.68,6.39-4.86,12.42-8.67,17.89-11.37,5.47-2.69,10.38-4.27,14.55-4.68,3.99-.39,7.29.31,9.74,2.13.11.08.22.16.33.25l-.86-.68-11.06-8.77-.95-.75c-.2-.15-.4-.3-.6-.44-2.94-2.03-6.65-2.98-10.94-2.88-4.6.11-9.88,1.41-15.65,3.87-5.77,2.45-12.01,6.06-18.54,10.76-6.53,4.71-13.34,10.51-20.22,17.36-8.56,8.52-16.42,17.85-23.31,27.43-6.89,9.58-12.8,19.4-17.46,28.89-4.66,9.49-8.06,18.66-9.93,26.94-1.77,7.82-2.15,14.84-.96,20.6.28.22.59.46.85.68.88.71,1.82,1.48,2.8,2.27l.85.68c-.11-.09-.22-.17-.33-.25Z"/><path class="cls-1" d="m338.93,53.23c-6.29,2.04-12.86,5.23-19.51,9.55-6.65,4.32-13.38,9.78-19.98,16.35-8.56,8.51-16.08,18.07-22.36,28.08-6.28,10.01-11.31,20.45-14.88,30.73-3.57,10.27-5.68,20.37-6.12,29.69-.39,8.34.56,16.03,3,22.68,1.99,1.43,3.94,2.85,5.63,4.11,1.64,1.22,3.43,2.56,5.26,3.94-1.98-6.35-2.43-13.85-1.49-22.06,1.02-8.91,3.66-18.65,7.67-28.62,4.01-9.97,9.4-20.18,15.93-30.02,6.53-9.84,14.19-19.31,22.75-27.83,6.73-6.7,13.51-12.3,20.14-16.77,6.62-4.47,13.09-7.82,19.18-10,6.1-2.18,11.82-3.21,16.98-3.04,5.15.17,9.74,1.53,13.54,4.11l-10.15-7-3-2.07c-.38-.24-.77-.46-1.16-.68-4.03-2.24-8.63-3.49-13.65-3.75-5.5-.3-11.5.59-17.78,2.62Z"/><path class="cls-1" d="m239.59,156.99c-.33-9.81,1.08-20.35,4.06-31,2.98-10.65,7.54-21.39,13.48-31.6,5.95-10.21,13.29-19.88,21.84-28.38,6.42-6.38,13.06-11.65,19.73-15.79,6.66-4.14,13.34-7.15,19.84-9.03,6.49-1.88,12.79-2.61,18.7-2.2,5.86.41,11.33,1.94,16.22,4.62.04.02.08.04.12.06l-.28-.16-11.43-6.59-.77-.44c-.11-.05-.21-.1-.32-.16-5.21-2.6-10.92-4.12-16.94-4.57-6.15-.45-12.63.22-19.23,2.01-6.6,1.79-13.33,4.7-19.98,8.73-6.65,4.03-13.23,9.17-19.51,15.42-8.55,8.5-15.76,18.24-21.49,28.57-5.72,10.33-9.95,21.26-12.54,32.14-2.58,10.87-3.52,21.69-2.66,31.8.72,8.44,2.71,16.38,6.02,23.47,3.32,2.11,6.71,4.31,9.95,6.44.04.02.08.05.12.07-3.02-6.98-4.63-14.92-4.92-23.41Z"/><path class="cls-1" d="m215.9,162.88c1.7.94,3.37,1.88,4.97,2.8-3.53-7.04-5.89-14.8-7.1-22.96-1.55-10.47-1.23-21.6.83-32.74,2.06-11.14,5.87-22.28,11.3-32.75,5.43-10.48,12.48-20.29,21.02-28.78,6.11-6.07,12.56-11.04,19.17-14.93,6.61-3.89,13.36-6.69,20.08-8.41,6.71-1.71,13.37-2.34,19.79-1.89,6.3.45,12.36,1.94,18.01,4.48.1.05.21.09.31.14l-.45-.2-9.03-4.09-2.47-1.04c-.69-.28-1.38-.55-2.08-.81-5.36-1.97-10.99-3.13-16.77-3.47-6.53-.39-13.25.27-19.96,1.97-6.71,1.7-13.42,4.44-19.94,8.24-6.52,3.8-12.84,8.64-18.78,14.54-8.54,8.48-15.48,18.34-20.71,28.9-5.23,10.56-8.76,21.82-10.47,33.11-1.71,11.29-1.62,22.6.38,33.27,1.48,7.87,4,15.38,7.6,22.28,1.07.58,2.15,1.16,3.22,1.75.11.05.21.1.32.16l.77.44Z"/><path class="cls-1" d="m191.45,150.64c2.09.93,4.34,1.97,6.42,2.95l.45.2c-.1-.05-.21-.09-.31-.14.45.21.86.41,1.29.61C166.31,92.75,217.62-3.53,293.47,15.63c-3.51-1.07-8.13-2.26-11.9-3.25-.43-.11-.85-.22-1.25-.33-.34-.08-.71-.17-1.08-.25-1.81-.39-3.93-.74-5.6-.95-63.94-8.29-118.63,72.3-82.19,139.8Z"/><path class="cls-1" d="m188.22,32c-8.52,8.45-15.03,18.37-19.5,29.07-4.48,10.7-6.92,22.18-7.3,33.75-.38,11.57,1.29,23.24,5.04,34.31,1.64,4.83,3.7,9.54,6.13,14.08.9.31,1.77.62,2.6.93,1.59.6,3.39,1.29,5.23,2-30.29-57.03,3.55-140.33,77.96-137.57.05,0,.1,0,.16,0l-.53-.04-3.81-.26h-.13s-.07-.01-.1-.01c-3.97-.14-9.24-.06-13.19,0-4.73.25-9.44.94-14.08,2.05-4.64,1.11-9.22,2.65-13.67,4.62-4.45,1.97-8.78,4.38-12.93,7.22-4.15,2.84-8.13,6.12-11.87,9.83Z"/><path class="cls-1" d="m147.56,98.36c.05,11.44,2.24,22.96,6.56,33.87.86,2.18,1.84,4.33,2.88,6.46,2.13.54,4.36,1.13,6.61,1.76-25.2-48.87-5.05-108.05,48.52-127.13.08-.03.16-.06.24-.09-.11.04-.23.08-.35.12-4.42,1.53-10.11,3.77-14.34,5.57-2.37,1.13-5.4,2.82-7.75,4.07-.06.03-.12.06-.18.09-.05.03-.09.06-.14.08-1.45.85-2.89,1.74-4.3,2.68-1.46.97-2.89,2-4.29,3.07-1.41,1.08-2.78,2.2-4.14,3.38-1.35,1.18-2.67,2.41-3.96,3.69-8.51,8.44-14.87,18.3-19.1,28.92-4.23,10.62-6.31,21.99-6.26,33.43Z"/><path class="cls-1" d="m144.83,136.09c1.61.27,3.23.55,4.78.86-12.91-29.1-9.42-61.64,11.15-89.13l-4.05,5.3c-.22.31-.43.6-.62.88-1.58,2.24-2.47,3.55-3.65,5.57-1.07,1.85-2.39,4.29-4.7,8.57-.02.04-.04.08-.07.12l-.14.3-.89,1.87c-3.71,8.04-6.06,16.56-7.05,25.24-.99,8.68-.62,17.52,1.09,26.19.95,4.81,2.36,9.56,4.13,14.21Z"/><path class="cls-1" d="m137.83,135.09c.08,0,.15.02.22.02.6.07,1.28.17,1.92.25-1.31-4.56-2.24-9.19-2.74-13.85-.64-5.98-.61-12.01.09-17.97.07-.6.14-1.2.22-1.8l-.19,1.4c-.39,3.09-.58,4.58-.7,7-.09,1.91-.14,4.4-.21,8.71-.01.79-.02,1.64-.04,2.57.01,2.12.12,4.19.3,6.21.23,2.58.64,5.05,1.11,7.45Z"/><path class="cls-1" d="m44.17,329.71c-.02-.06-.04-.11-.06-.16-.18-.51-.36-1.02-.54-1.52-.03-.08-.06-.16-.08-.24-.02-.07-.04-.13-.07-.2-.19-.56-.38-1.12-.56-1.68,0,0,0-.02,0-.02-.01-.03-.02-.06-.03-.09-.17-.52-.33-1.04-.49-1.55-.02-.07-.05-.15-.07-.22-.02-.07-.04-.13-.06-.2-.17-.55-.33-1.09-.48-1.64-3.2-2.45-6.13-5.08-8.78-7.86-2.65-2.78-5.02-5.71-7.12-8.76-2.09-3.05-3.91-6.23-5.45-9.5-1.32-2.82-2.44-5.7-3.35-8.64,1.15,3.75,2.7,8.24,3.85,11.72.26.73.53,1.44.81,2.14,6.09,15.38,16.3,23.5,22.5,28.43Z"/><path class="cls-1" d="m53.2,349.91c-.04-.07-.07-.13-.1-.2-.33-.65-.66-1.29-.99-1.93-.01-.03-.03-.05-.04-.08-.04-.08-.08-.15-.12-.23-.28-.56-.56-1.12-.83-1.68-.05-.09-.1-.19-.14-.28-.03-.06-.06-.13-.09-.19-.31-.63-.61-1.26-.91-1.89-.01-.03-.03-.06-.04-.09-.04-.08-.07-.16-.11-.23-.26-.55-.51-1.09-.76-1.63-.04-.09-.09-.18-.13-.28-12.85-9.05-16.51-15.96-20.3-23.26-.03-.06-.06-.12-.1-.19,1.73,3.75,4.23,8.67,6.05,12.38.54,1.05,1.12,2.08,1.74,3.1.52.86,1.07,1.7,1.66,2.53,1.27,1.81,2.68,3.55,4.23,5.21,1.55,1.66,3.24,3.24,5.07,4.73,1.83,1.49,3.8,2.9,5.91,4.21Z"/><path class="cls-1" d="m65.57,371.3c-.19-.3-.38-.6-.57-.9-.14-.22-.28-.44-.41-.66-.35-.55-.68-1.1-1.02-1.65-.13-.21-.26-.41-.38-.62-.02-.04-.05-.07-.07-.11-.05-.09-.11-.18-.16-.27-.37-.6-.73-1.2-1.09-1.8-.06-.1-.12-.2-.18-.3-.04-.06-.07-.12-.1-.18-.41-.69-.82-1.37-1.22-2.05-.02-.04-.05-.08-.07-.12-1.8-.99-3.48-2.06-5.05-3.21-1.57-1.15-3.03-2.37-4.38-3.66-1.35-1.29-2.58-2.65-3.71-4.07-.82-1.04-1.58-2.11-2.29-3.22l6.13,10,.5.82c.1.16.2.31.3.46.75,1.14,1.57,2.24,2.47,3.3,1.02,1.2,2.14,2.33,3.36,3.41,1.22,1.07,2.53,2.09,3.95,3.03,1.41.94,2.93,1.82,4.54,2.62-.18-.28-.35-.56-.53-.84Z"/><path class="cls-1" d="m80.68,393.51c-.05-.07-.1-.14-.15-.21-.61-.84-1.21-1.68-1.81-2.51-.07-.1-.13-.19-.2-.28-.17-.24-.34-.48-.51-.72-.36-.5-.71-1-1.07-1.5-.19-.27-.38-.54-.57-.81-.22-.31-.43-.61-.64-.92-.18-.25-.36-.51-.53-.76-1.38-.57-2.68-1.21-3.9-1.9-1.22-.7-2.35-1.46-3.39-2.27-1.05-.82-2.01-1.69-2.89-2.62-.73-.77-1.39-1.57-2-2.41-.13-.18-.26-.36-.39-.54l.46.64,8.1,11.32c.63.86,1.34,1.67,2.12,2.43.78.76,1.64,1.47,2.57,2.12.93.65,1.94,1.25,3.02,1.79,1.08.54,2.24,1.02,3.48,1.45-.42-.57-.83-1.14-1.25-1.71-.15-.2-.3-.4-.44-.61Z"/><path class="cls-1" d="m99.2,417.52c-.2-.24-.39-.48-.59-.72-.43-.53-.87-1.07-1.3-1.6-.21-.26-.42-.53-.64-.79-.26-.32-.52-.64-.77-.97-.22-.27-.44-.54-.65-.82-.42-.52-.83-1.04-1.24-1.56-.19-.24-.39-.49-.58-.73-.07-.09-.15-.18-.22-.28-1.05-.24-2.04-.53-2.95-.88s-1.76-.75-2.54-1.2c-.78-.45-1.49-.96-2.14-1.52-.33-.28-.64-.58-.93-.88-.28-.3-.55-.61-.81-.93l3.41,4.22,6.1,7.56.09.11s.01.01.02.02c2.37,2.68,4.52,3.11,8.08,3.82-.71-.86-1.42-1.72-2.12-2.58-.07-.08-.14-.17-.21-.25Z"/><path class="cls-1" d="m122.25,444.25c-.51-.56-1.02-1.13-1.53-1.69-.23-.26-.46-.51-.69-.77-.29-.32-.57-.64-.86-.96-.26-.29-.51-.57-.77-.86-.45-.51-.9-1.02-1.36-1.52-.22-.25-.45-.5-.67-.76-.09-.1-.18-.2-.27-.31-.76-.86-1.52-1.73-2.28-2.59-.77.05-1.47.05-2.12,0-.65-.05-1.24-.16-1.77-.31-.53-.15-1-.36-1.42-.61-.31-.19-.59-.41-.84-.65-.08-.08-.16-.17-.24-.25l7.97,8.96,2.5,2.76c.21.23.48.42.8.56.32.14.69.23,1.12.27s.91.03,1.45-.03,1.14-.17,1.79-.34c-.07-.08-.14-.16-.21-.24-.2-.22-.4-.44-.6-.66Z"/><path class="cls-1" d="m144.85,467.97c-.29-.29-.57-.57-.86-.86-.47-.47-.94-.95-1.41-1.42-.26-.26-.52-.53-.78-.79-.11-.11-.21-.22-.32-.32-.83-.85-1.66-1.69-2.49-2.54-.05-.05-.11-.11-.16-.16-.18-.18-.36-.37-.53-.55-.59-.61-1.19-1.22-1.78-1.83-.5.32-.95.59-1.34.8-.39.21-.73.38-1.02.49-.29.11-.52.17-.7.19-.12,0-.21,0-.29-.04-.04-.02-.07-.04-.1-.07l5.45,5.59,5.79,5.82s.01-.08.09-.2c.08-.12.21-.28.39-.5.18-.22.41-.49.7-.81.29-.32.62-.7,1.01-1.13-.24-.24-.47-.47-.71-.71-.32-.32-.63-.63-.95-.95Z"/><path class="cls-1" d="m171.67,497.93c-.18-.36-.31-.77-.4-1.24-.08-.47-.12-.99-.1-1.58s.09-1.22.21-1.92c-.48-.43-.96-.87-1.43-1.3-.28-.25-.56-.51-.84-.76-.12-.11-.25-.23-.37-.34-.88-.8-1.76-1.61-2.64-2.42-.05-.04-.09-.08-.14-.13-.17-.15-.33-.31-.5-.46-.66-.61-1.33-1.23-1.99-1.84-.22-.21-.44-.41-.66-.62-.32-.3-.65-.61-.97-.91-.33-.31-.66-.61-.98-.92-.24.58-.42,1.11-.55,1.58-.13.47-.21.89-.24,1.25s-.01.67.06.93c.06.24.17.44.32.59,0,0,.01.02.02.03l.75.7,1.73,1.62.02.02h0s5.93,5.44,5.93,5.44l3.46,3.17c-.1-.09-.19-.18-.27-.28-.16-.19-.3-.39-.42-.62Z"/><path class="cls-1" d="m200.2,522.43c-.49-.6-.93-1.26-1.31-1.99-.39-.73-.72-1.52-1-2.38-.28-.86-.51-1.78-.68-2.77-.91-.74-1.82-1.48-2.72-2.22-.04-.03-.08-.06-.11-.09-.15-.12-.29-.24-.44-.36-.72-.59-1.44-1.19-2.17-1.78-.22-.18-.44-.37-.66-.55-.33-.27-.66-.55-.99-.82-.36-.3-.71-.59-1.07-.89-.45-.38-.9-.76-1.35-1.14-.3-.25-.6-.51-.9-.76-.15-.13-.3-.26-.46-.38.04.86.14,1.66.29,2.4.15.74.35,1.41.6,2.03.25.62.55,1.17.9,1.67.32.45.68.85,1.08,1.2.04.04.08.07.12.11l1.37,1.14,2.62,2.17,8.48,7.03c-.35-.28-.68-.59-.99-.91-.21-.22-.42-.45-.62-.69Z"/><path class="cls-1" d="m231.78,546.86c.18.14.37.27.56.4.13.09.25.18.38.26l-1.57-1.15c.21.16.42.32.63.48Z"/><path class="cls-1" d="m227.2,542.35c-.8-1.04-1.54-2.16-2.21-3.38-.67-1.21-1.28-2.52-1.82-3.91-.24-.17-.49-.35-.73-.53-.46-.33-.92-.66-1.38-.99-.18-.13-.35-.25-.52-.38-.23-.16-.46-.33-.68-.5-.46-.33-.92-.67-1.39-1.01-.2-.14-.39-.28-.59-.43-.21-.15-.42-.31-.63-.47-.47-.34-.93-.69-1.4-1.03-.22-.16-.43-.32-.65-.48-.19-.14-.39-.29-.58-.43-.47-.35-.94-.7-1.41-1.06-.24-.18-.47-.35-.71-.53.37,1.2.8,2.31,1.28,3.36.49,1.04,1.03,2.01,1.63,2.91.6.89,1.26,1.71,1.97,2.46.71.75,1.47,1.42,2.28,2.01l11.5,8.41c-.47-.37-.92-.77-1.37-1.18-.92-.86-1.78-1.81-2.59-2.85Z"/><path class="cls-1" d="m258.49,564.48c-1.49-1.13-2.91-2.38-4.25-3.76-1.34-1.38-2.61-2.88-3.79-4.52-1.18-1.63-2.28-3.39-3.28-5.27-.24-.14-.47-.29-.71-.43-.42-.26-.85-.52-1.27-.78-.14-.08-.27-.17-.41-.25-.22-.14-.45-.28-.67-.42-.42-.26-.85-.53-1.28-.8-.16-.1-.31-.19-.47-.29-.21-.13-.42-.27-.63-.4-.43-.27-.85-.54-1.28-.82-.18-.11-.35-.22-.53-.33-.2-.13-.39-.26-.59-.38-.43-.28-.86-.56-1.3-.84-.2-.13-.39-.25-.59-.38.8,1.68,1.68,3.24,2.64,4.7s2,2.8,3.1,4.04c1.11,1.24,2.29,2.37,3.53,3.39.29.24.59.48.89.71.97.74,1.98,1.42,3.02,2.03l8.85,5.52s-.08-.06-.11-.08c-.29-.21-.58-.42-.87-.64Z"/><path class="cls-1" d="m279.19,574.88c-1.95-1.7-3.82-3.56-5.57-5.6s-3.41-4.24-4.95-6.61c-.22-.11-.45-.22-.68-.33-.37-.18-.75-.36-1.13-.55-.1-.05-.21-.1-.31-.15-.21-.11-.43-.22-.65-.33-.38-.19-.76-.38-1.14-.57-.12-.06-.24-.12-.36-.18-.2-.1-.41-.21-.62-.32-.38-.19-.76-.39-1.14-.59-.14-.07-.28-.14-.42-.21-.19-.1-.39-.21-.58-.31-.38-.2-.77-.41-1.16-.61-.16-.08-.31-.16-.47-.25,1.31,2.17,2.73,4.19,4.24,6.06,1.51,1.87,3.12,3.59,4.81,5.16,1.69,1.57,3.47,2.99,5.32,4.26.78.53,1.57,1.03,2.37,1.51,1.11.67,2.25,1.29,3.4,1.85l.99.5,6.9,3.48c-.92-.51-1.84-1.05-2.73-1.62-2.12-1.36-4.17-2.89-6.12-4.58Z"/><path class="cls-1" d="m289.66,581.95c.69.35,1.38.69,2.08,1.01.06.03.12.06.17.08l-3.86-1.95c.53.3,1.07.58,1.61.86Z"/><path class="cls-1" d="m321.71,594.92c-1.31-.45-2.76-.95-4.25-1.47,1.4.54,2.82,1.03,4.25,1.47Z"/><path class="cls-1" d="m303.07,585.74c-2.9-2.06-5.68-4.38-8.32-6.96-2.64-2.58-5.13-5.43-7.45-8.53-.2-.06-.41-.13-.61-.2-.33-.11-.65-.21-.98-.32-.07-.02-.14-.05-.21-.07-.2-.07-.4-.14-.59-.21-.33-.11-.65-.22-.98-.34-.09-.03-.17-.06-.26-.09-.19-.07-.38-.14-.57-.21-.33-.12-.66-.24-.99-.36-.1-.04-.2-.07-.31-.11-.18-.07-.37-.14-.55-.21-.33-.13-.67-.25-1.01-.39-.12-.05-.23-.09-.35-.14,1.91,2.7,3.96,5.2,6.12,7.49,2.17,2.29,4.45,4.38,6.84,6.26,2.39,1.88,4.87,3.55,7.45,5.02,2.22,1.27,4.51,2.38,6.86,3.34.37.15.73.31,1.1.45,1.25.48,2.65.99,4.09,1.51,1.67.6,3.42,1.2,5.1,1.79-1.81-.69-3.6-1.47-5.35-2.33-3.12-1.53-6.14-3.32-9.04-5.38Z"/><path class="cls-1" d="m327.5,593.65c-4.55-2.37-8.93-5.23-13.08-8.57-4.14-3.34-8.05-7.17-11.66-11.48-.17-.01-.34-.04-.51-.05-.27-.03-.54-.05-.81-.08-.05,0-.09,0-.14-.01-.17-.02-.34-.05-.51-.07-.27-.03-.54-.07-.81-.11-.06,0-.11-.01-.17-.02-.16-.02-.33-.05-.5-.08-.27-.04-.54-.08-.82-.13-.07-.01-.14-.02-.21-.03-.16-.03-.32-.06-.48-.09-.28-.05-.55-.1-.83-.15-.08-.02-.17-.03-.25-.05,2.95,3.69,6.13,7.02,9.5,10,3.37,2.97,6.92,5.59,10.62,7.84,3.7,2.25,7.54,4.15,11.48,5.68,3.94,1.53,7.99,2.7,12.1,3.51,2.76.49,6.06.98,9.29,1.42-2.73-.47-5.44-1.09-8.11-1.87-4.82-1.4-9.54-3.28-14.09-5.65Z"/><path class="cls-1" d="m349.71,601.17c1.49.26,2.98.47,4.48.64.71.08,1.41.15,2.12.21-.14-.02-.29-.04-.44-.05-1.89-.23-4-.5-6.16-.8Z"/><path class="cls-1" d="m401.42,597.78c-1.91.56-3.84,1.05-5.78,1.47,1.55-.39,3.42-.86,5.78-1.47Z"/><path class="cls-1" d="m356.07,598.07c-7.59-2.08-14.99-5.25-21.97-9.49-6.98-4.24-13.53-9.54-19.43-15.92-.12.04-.25.07-.37.1-.21.06-.41.12-.63.18-.02,0-.05.01-.07.02-.13.03-.26.06-.39.09-.21.05-.41.1-.62.14-.03,0-.07.02-.1.02-.13.03-.26.05-.39.07-.21.04-.42.08-.63.11-.04,0-.08.02-.13.02-.13.02-.26.03-.39.05-.21.03-.42.06-.64.08-.05,0-.11.02-.16.02,4.78,5.37,10.02,10,15.59,13.87,5.57,3.87,11.47,6.99,17.57,9.35,6.1,2.36,12.39,3.96,18.75,4.8,6.36.84,12.79.91,19.15.22l2.01-.24c4.03-.53,5.85-.79,8.88-1.48,1.01-.23,2.14-.5,3.54-.85-5.41,1.16-10.91,1.77-16.43,1.83-7.76.08-15.54-.93-23.14-3.01Z"/><path class="cls-1" d="m401.42,597.78s.07-.02.11-.03l.62-.19c-.08.02-.16.05-.25.07-.16.05-.32.09-.48.14Z"/><path class="cls-1" d="m322.68,567.39c-.05.06-.1.12-.19.23-.04.05-.1.12-.17.2-.07.08-.15.17-.24.28-.03.04-.07.07-.11.12-.02.02-.04.04-.06.06-.15.16-.31.33-.47.48-.12.12-.25.24-.38.36-.08.08-.17.15-.26.23-.03.02-.05.05-.08.07-.02.02-.04.03-.06.05-.13.11-.27.22-.41.33-.06.05-.12.09-.18.14-.04.03-.08.06-.12.09s-.08.06-.12.09c19.23,19.57,64.85,44.1,113.84,11.95,0,0,0,0,0,0,.02-.01.03-.02.05-.04.01-.01.03-.02.04-.03,2.38-1.71,3.62-2.62,5.29-4.05,1.68-1.43,3.79-3.39,7.93-7.22,1.14-1.16,2.42-2.58,3.68-4-.06.06-.12.13-.18.19-29.64,31.51-83.97,40.24-127.83.47Z"/><path class="cls-1" d="m453.96,563.02c-1.05,1.27-2.15,2.5-3.28,3.71,1.15-1.3,2.29-2.6,3.28-3.71Z"/><path class="cls-1" d="m469.71,533.43c-1.92,3.86-4.18,7.62-6.77,11.22-2.59,3.61-5.52,7.07-8.78,10.34-8.46,8.5-18.39,14.96-29.09,19.35-10.7,4.39-22.17,6.72-33.74,6.96-11.56.25-23.21-1.59-34.26-5.51-11.05-3.93-21.49-9.95-30.65-18.08,0,.05-.01.09-.02.14-.04.34-.09.67-.15,1,0,.03,0,.06-.01.09,0,0,0,0,0,.02-.06.36-.13.7-.21,1.05,0,.03-.01.07-.02.1-.01.06-.03.12-.05.19-.06.25-.12.51-.19.75-.02.06-.03.12-.05.18-.01.04-.02.07-.03.11-.09.32-.18.63-.29.93,0,0,0,.02,0,.03,9.09,8.42,19.47,14.71,30.45,18.89,10.98,4.18,22.57,6.24,34.08,6.18,11.51-.06,22.94-2.23,33.61-6.51,10.67-4.28,20.57-10.67,29.03-19.17,2.23-2.24,4.3-4.56,6.21-6.96,1.91-2.4,3.67-4.88,5.28-7.43,1.6-2.55,3.06-5.16,4.35-7.83.89-1.84,1.71-3.71,2.46-5.59.34-.85.66-1.7.97-2.56.11-.33.23-.67.35-1.03.93-2.82,1.91-6.28,2.7-8.99.02-.05.03-.11.05-.16.02-.09.04-.18.06-.27.39-1.66.78-3.56,1.14-5.48-.47,2.07-1.02,4.12-1.65,6.16-1.26,4.05-2.85,8.02-4.78,11.89Z"/><path class="cls-1" d="m476.14,515.38c.39-1.73.72-3.47.99-5.21.05-.32.1-.64.15-.95-.02.1-.04.21-.06.32-.32,1.78-.69,3.82-1.08,5.84Z"/><path class="cls-1" d="m476.57,469.29c-.18-1.25-.36-2.45-.53-3.55.13.82.24,1.63.34,2.44,9.53,75.63-84.79,123.54-150.83,75.4,0,.04.02.08.02.13.1.51.2,1.01.29,1.51,0,.02,0,.03,0,.05.01.06.02.13.03.19.07.42.14.83.2,1.24.01.07.02.14.03.2.01.08.02.16.03.24.05.37.1.73.15,1.09.01.09.02.17.03.26,0,.04,0,.07.01.1.05.46.1.92.14,1.38,0,.02,0,.04,0,.06,55.66,45.17,154.1,12.68,151.65-68.07l-.09-1.18c-.33-3.42-.93-7.67-1.49-11.49Z"/><path class="cls-1" d="m470.64,444.38c-.3-.93-.63-1.9-.98-2.91-.96-2.78-2.07-5.8-3.06-8.5,1.81,5.32,2.85,10.89,3.12,16.58.31,6.52-.4,13.2-2.12,19.86-1.73,6.66-4.47,13.3-8.24,19.74-3.77,6.44-8.57,12.67-14.39,18.51-8.5,8.53-18.37,15.42-28.96,20.58-10.59,5.16-21.89,8.59-33.22,10.18-11.33,1.6-22.69,1.37-33.41-.78-10.72-2.15-20.79-6.22-29.55-12.3.02.04.03.08.05.12.24.6.48,1.2.71,1.79.02.04.03.09.05.13.03.08.06.16.09.24.2.51.39,1.02.58,1.53.03.08.06.16.09.24.01.04.03.07.04.11.21.58.42,1.16.62,1.74.02.05.03.09.05.14.03.08.05.16.08.24.17.5.34.99.5,1.48.03.08.05.15.08.23,8.95,6.59,19.19,11.14,30.07,13.73,10.88,2.59,22.38,3.22,33.82,1.95,11.45-1.26,22.83-4.42,33.48-9.39,10.65-4.97,20.56-11.75,29.05-20.28,5.5-5.52,10.07-11.43,13.7-17.57,3.64-6.14,6.35-12.51,8.13-18.95,1.79-6.44,2.65-12.95,2.6-19.36-.05-5.98-.9-11.88-2.54-17.57-.12-.42-.23-.83-.36-1.25-.03-.08-.06-.18-.09-.26Z"/><path class="cls-1" d="m453.47,404c-.56-1.07-1.11-2.13-1.62-3.12.17.35.35.71.51,1.06,2.22,4.77,3.58,9.92,4.08,15.32.58,6.28,0,12.9-1.73,19.64-1.74,6.74-4.63,13.6-8.67,20.37-4.05,6.77-9.25,13.45-15.6,19.81-8.51,8.53-18.28,15.7-28.65,21.36-10.37,5.65-21.34,9.79-32.27,12.27-10.93,2.47-21.8,3.29-31.98,2.29-10.17-1-19.65-3.8-27.77-8.55.05.09.1.19.15.28.32.58.64,1.17.95,1.75.05.09.09.17.14.26.02.04.04.07.06.11.36.67.71,1.33,1.05,1.99.03.05.06.11.09.16.05.09.09.18.14.27.3.58.6,1.15.89,1.73.04.08.08.16.12.24.02.03.03.06.05.1.33.65.66,1.3.98,1.95.03.06.06.11.08.17,8.42,5.33,18.18,8.68,28.61,10.17,10.43,1.49,21.54,1.13,32.65-.97,11.12-2.1,22.24-5.93,32.72-11.37,10.47-5.44,20.29-12.49,28.8-21.02,6.15-6.17,11.19-12.69,15.12-19.37,3.93-6.67,6.75-13.48,8.46-20.24,1.71-6.76,2.31-13.46,1.8-19.9-.44-5.54-1.7-10.88-3.78-15.9-.22-.53-.46-1.05-.7-1.58-.13-.28-.24-.57-.38-.84-1.22-2.53-2.8-5.56-4.29-8.42Z"/><path class="cls-1" d="m297.26,483.72c.07.11.14.21.21.32.53.82,1.06,1.63,1.58,2.44.03.05.06.1.09.15.11.18.22.35.33.53.37.59.75,1.17,1.12,1.76.13.21.26.42.4.63.19.3.37.6.56.9.18.29.37.59.55.88,7.64,3.92,16.65,5.92,26.41,6.19,9.76.27,20.26-1.2,30.87-4.22,10.61-3.03,21.34-7.61,31.54-13.58,10.2-5.96,19.88-13.31,28.39-21.85,6.54-6.55,11.91-13.33,16.12-20.11,4.21-6.78,7.24-13.57,9.09-20.15,1.85-6.58,2.51-12.94,1.98-18.87-.53-5.93-2.26-11.43-5.2-16.29l-6.8-10.79-.34-.52-.67-1.03c.11.17.21.33.32.5,2.69,4.3,4.25,9.26,4.67,14.68.44,5.63-.33,11.77-2.29,18.18-1.96,6.42-5.12,13.12-9.46,19.88-4.33,6.76-9.84,13.59-16.49,20.26-8.52,8.54-18.12,16.01-28.18,22.21-10.06,6.2-20.58,11.11-30.93,14.55-10.35,3.44-20.55,5.39-29.97,5.66-9.41.27-18.05-1.14-25.29-4.44.3.45.59.9.89,1.36.17.26.34.52.51.78Z"/><path class="cls-1" d="m280.62,460.03c.13.17.26.34.38.51.48.64.96,1.29,1.44,1.93.15.21.31.42.46.63.24.32.47.65.71.97.24.32.47.64.71.96.31.42.61.85.92,1.27.21.29.43.59.64.88.09.13.19.26.28.39,6.63,2.4,14.68,2.96,23.56,1.91,8.89-1.05,18.6-3.7,28.56-7.73,9.96-4.03,20.15-9.42,29.99-15.95,9.84-6.53,19.32-14.18,27.85-22.73,6.77-6.78,12.43-13.61,16.95-20.27,4.51-6.66,7.88-13.16,10.07-19.27,2.19-6.11,3.19-11.85,2.99-16.99-.19-4.59-1.34-8.72-3.49-12.22-.26-.42-.52-.83-.81-1.23l-2.79-3.84-2.51-3.46-3.65-4.89c2.45,3.25,3.64,7.36,3.63,12.12,0,4.77-1.22,10.19-3.6,16.06-2.38,5.87-5.92,12.19-10.57,18.76-4.66,6.57-10.43,13.38-17.27,20.23-8.53,8.54-17.92,16.33-27.59,23.1-9.67,6.77-19.61,12.51-29.25,16.97-9.64,4.46-18.98,7.62-27.45,9.24-8.46,1.62-16.05,1.68-22.19-.07.65.86,1.3,1.72,1.94,2.58.03.04.06.08.09.12Z"/><path class="cls-1" d="m385.66,334.27c-2.93,5.21-6.94,11.03-11.96,17.29-5.02,6.26-11.04,12.96-18,19.92-8.54,8.54-17.68,16.66-26.88,24.02-9.2,7.36-18.47,13.96-27.27,19.47-8.8,5.51-17.14,9.93-24.5,12.93-7.35,3-13.71,4.59-18.57,4.45.03.03.06.07.08.1.13.15.25.3.38.45.59.69,1.17,1.38,1.75,2.08.17.21.35.42.52.62.27.32.54.65.81.97.29.34.57.68.86,1.03.36.43.71.86,1.06,1.28.25.3.5.6.74.9.12.14.24.29.36.43.72.87,1.43,1.74,2.14,2.62,5.42.82,12.31-.13,20.14-2.55,7.84-2.42,16.61-6.32,25.78-11.39,9.17-5.07,18.73-11.31,28.13-18.42,9.4-7.11,18.65-15.09,27.19-23.64,6.92-6.92,12.84-13.67,17.7-20.08,4.86-6.4,8.66-12.44,11.35-17.94,2.68-5.49,4.25-10.44,4.63-14.64.36-3.94-.32-7.24-2.1-9.72-.12-.16-.23-.32-.36-.48l-1.78-2.19-1.38-1.7-6.82-8.19c1.69,2.01,2.15,5,1.46,8.78-.69,3.79-2.54,8.37-5.47,13.57Z"/><path class="cls-1" d="m238.46,409.84c.38.41.75.82,1.13,1.22.29.31.58.62.86.93.14.15.28.3.42.46.8.87,1.6,1.74,2.4,2.62.01.01.02.02.03.03.07.08.14.16.21.24.71.78,1.42,1.57,2.13,2.35,4.04-.79,9.62-3.28,16.26-7.1,6.64-3.82,14.34-8.98,22.61-15.1,8.27-6.13,17.1-13.23,26.01-20.93,8.91-7.7,17.88-16.01,26.43-24.56,7-6.99,13.17-13.6,18.41-19.66,5.24-6.06,9.56-11.56,12.86-16.35,3.3-4.79,5.58-8.86,6.75-12.05,1.17-3.19,1.23-5.5.09-6.77,0,0,0,0,0,0l-.48-.53-7.81-8.5-2.6-2.83s.06.08.09.12c0,0,0,0,0,0,.56.82.06,2.61-1.41,5.24-1.55,2.77-4.16,6.47-7.75,10.95-3.58,4.48-8.13,9.75-13.54,15.64-1.23,1.34-2.52,2.73-3.84,4.14-4.47,4.77-9.43,9.88-14.84,15.29-2.98,2.98-6,5.93-9.03,8.86-5.67,5.49-11.39,10.89-17.05,16.07-1.88,1.72-3.75,3.41-5.61,5.08-.3.27-.6.55-.9.81-2.51,2.25-4.98,4.43-7.43,6.56-3.81,3.32-7.54,6.52-11.12,9.51-1.21,1.01-2.37,1.96-3.55,2.92-1.85,1.52-3.66,2.98-5.42,4.38-4.4,3.51-8.53,6.68-12.23,9.34-2.61,1.88-4.97,3.48-7.14,4.86-2.9,1.85-5.42,3.29-7.38,4.12.18.19.36.39.54.58.31.33.61.66.92.98.32.35.65.7.97,1.04Z"/><path class="cls-1" d="m213.87,384.66c.17.16.33.32.49.48.87.85,1.73,1.69,2.59,2.54l.07.07c.5.5,1.01,1,1.51,1.49.33.33.67.66,1,.99.17.17.33.34.5.51.31.3.61.61.92.92l1.13,1.13c20.04-18.97,120.15-118.42,126.32-125.82h0s-.25-.25-.25-.25l-.03-.03c-3.1-3.11-6.58-6.56-9.38-9.28-.3-.29-.62-.6-.93-.9-.25-.24-.49-.48-.76-.73l-.32-.31s-.02-.01-.03-.02c-.49-.38-2.03.36-4.49,2.1-2.52,1.78-6,4.6-10.3,8.35-4.3,3.76-9.43,8.44-15.24,13.93-5.81,5.5-12.29,11.81-19.31,18.82-8.56,8.54-17.09,17.3-25.21,25.83-8.11,8.52-15.79,16.82-22.64,24.42-6.85,7.6-12.85,14.52-17.61,20.28-4.76,5.77-8.27,10.4-10.14,13.44.4.38.79.77,1.19,1.15.31.3.62.6.92.9Z"/><path class="cls-1" d="m219.88,330.48c6.22-8.19,13.4-16.95,21.17-25.8,1.76-2.01,3.56-4.03,5.38-6.04,4.79-5.3,9.77-10.59,14.84-15.77,1.48-1.51,2.96-3.03,4.45-4.52,7.01-6.99,13.61-13.16,19.64-18.42,2.47-2.15,4.82-4.11,7.08-5.95,3.27-2.66,6.36-5.02,9.15-7,1.55-1.09,2.99-2.04,4.38-2.91,2.85-1.8,5.39-3.17,7.48-4,2.29-.91,4.1-1.2,5.36-.88.02,0,.06,0,.08,0,.36.1.64.28.91.48.05.04.13.05.17.09l-7.8-6.94-2.16-1.92-2.35-2.09c-.13-.11-.26-.21-.4-.31-1.73-1.21-4.31-1.38-7.6-.58-3.56.87-7.95,2.87-12.99,5.93-5.05,3.06-10.76,7.18-16.95,12.27-6.19,5.09-12.87,11.16-19.85,18.12-8.56,8.53-16.77,17.59-24.28,26.67-7.51,9.07-14.32,18.16-20.09,26.75-5.77,8.59-10.49,16.67-13.83,23.75-3.34,7.07-5.29,13.13-5.52,17.68.85.75,1.71,1.49,2.56,2.24.05.04.1.09.15.13,0,0,0,0,0,0,.03.03.06.05.09.08.87.77,1.75,1.54,2.62,2.32.17.15.33.3.5.45.33.29.65.59.98.88.41.36.81.73,1.22,1.09.37.34.75.68,1.12,1.01.33.3.66.6.99.9.19.17.38.35.57.52.34-1.45.98-3.17,1.76-5.01,1.34-3.16,3.22-6.8,5.71-10.93.32-.53.69-1.1,1.03-1.64,2.6-4.2,5.68-8.78,9.21-13.67,1.65-2.29,3.37-4.62,5.19-7.02Z"/><path class="cls-1" d="m227.48,245.39c6.93-6.9,13.69-12.82,20.08-17.68,6.39-4.86,12.42-8.67,17.89-11.37,5.47-2.69,10.38-4.27,14.55-4.68,3.99-.39,7.29.31,9.74,2.13.11.08.22.16.33.25l-.85-.68-11.06-8.77-.95-.75c-.2-.15-.4-.3-.6-.44-2.94-2.03-6.65-2.98-10.94-2.88-4.6.11-9.88,1.41-15.65,3.87-5.77,2.45-12.01,6.06-18.54,10.76-6.53,4.71-13.34,10.51-20.22,17.36-8.56,8.52-16.42,17.85-23.31,27.43-6.89,9.58-12.8,19.4-17.46,28.89-4.66,9.49-8.06,18.66-9.93,26.94-1.87,8.27-2.21,15.66-.76,21.59.92.72,1.85,1.44,2.77,2.17.16.13.32.26.49.39.32.26.65.51.97.77.44.35.87.69,1.31,1.04.37.3.74.6,1.12.9.34.27.69.55,1.03.82.21.17.41.33.62.5.76.61,1.52,1.23,2.28,1.85.14.11.27.22.41.33.03.02.05.04.08.06-.75-5.37.27-12.22,2.75-20,2.49-7.79,6.44-16.52,11.57-25.65,5.12-9.13,11.41-18.65,18.56-28.03,7.15-9.37,15.16-18.6,23.72-27.12Z"/><path class="cls-1" d="m188.86,215.78c6.73-6.7,13.51-12.3,20.14-16.77,6.62-4.47,13.09-7.82,19.18-10,6.1-2.18,11.83-3.21,16.98-3.04,5.15.17,9.74,1.53,13.54,4.11l-10.15-7-3-2.07c-.34-.21-.69-.41-1.05-.61-.04-.02-.08-.05-.12-.07-4.03-2.24-8.63-3.49-13.64-3.75-5.5-.3-11.5.59-17.78,2.62-6.29,2.04-12.86,5.23-19.51,9.55-6.65,4.32-13.38,9.78-19.98,16.35-8.56,8.51-16.08,18.07-22.36,28.08-6.28,10.01-11.31,20.45-14.88,30.73-3.57,10.27-5.68,20.37-6.12,29.69-.44,9.31.79,17.84,3.9,24.97.26.18.52.36.78.53.46.32.93.63,1.39.95.14.1.28.19.42.28.24.17.49.34.73.51.46.32.93.64,1.39.97.16.11.32.22.48.34.23.16.46.32.68.48.47.33.93.66,1.4.99.18.13.37.26.55.39.21.15.42.3.63.45.47.33.94.67,1.41,1.01.21.15.42.3.62.45-2.44-6.67-3.03-14.75-2-23.65,1.02-8.91,3.66-18.65,7.67-28.62,4.01-9.97,9.4-20.18,15.93-30.02,6.53-9.84,14.19-19.31,22.75-27.83Z"/><path class="cls-1" d="m111.36,304.4c.43.25.87.49,1.31.74.08.05.16.09.24.13.25.15.51.3.77.45.43.25.86.5,1.29.75.1.06.2.12.3.17.24.14.49.29.73.44.43.25.85.51,1.28.76.12.07.24.14.36.22.23.14.46.28.7.42.43.26.86.52,1.29.78.14.09.29.17.43.26-4-7.71-6.08-16.78-6.41-26.58-.34-9.81,1.08-20.35,4.06-31,2.98-10.65,7.54-21.39,13.48-31.6,5.95-10.21,13.29-19.88,21.84-28.38,6.42-6.38,13.06-11.65,19.73-15.79,6.66-4.14,13.34-7.15,19.84-9.03,6.49-1.87,12.79-2.61,18.7-2.2,5.86.41,11.33,1.94,16.22,4.62.04.02.08.04.12.06l-.28-.16-11.43-6.59-.77-.44c-.11-.05-.21-.1-.32-.16-5.21-2.6-10.92-4.13-16.94-4.57-6.15-.45-12.63.22-19.23,2.01-6.61,1.79-13.34,4.7-19.99,8.73-6.65,4.03-13.22,9.17-19.51,15.42-8.55,8.5-15.76,18.23-21.49,28.57s-9.95,21.26-12.54,32.13c-2.58,10.87-3.52,21.69-2.66,31.8.86,10.11,3.52,19.51,8.12,27.57.26.15.52.3.78.45Z"/><path class="cls-1" d="m197.87,153.59l-9.03-4.09-2.47-1.04c-.69-.28-1.38-.55-2.08-.81-5.36-1.97-10.99-3.13-16.77-3.47-6.53-.39-13.25.27-19.96,1.97-6.71,1.7-13.42,4.45-19.94,8.24-6.52,3.8-12.84,8.64-18.78,14.54-8.54,8.48-15.48,18.34-20.71,28.9-5.23,10.56-8.76,21.82-10.47,33.11-1.71,11.29-1.62,22.6.38,33.27,2,10.67,5.92,20.69,11.84,29.4.15.07.31.14.46.2.49.21.98.42,1.48.64.03.01.05.02.08.03.22.1.44.2.66.3.42.19.84.37,1.26.57.05.02.09.04.13.06.23.11.47.22.7.33.4.18.79.37,1.19.55.06.03.13.06.19.09.23.11.47.23.7.34.39.19.78.37,1.17.56.08.04.17.08.25.12-5.39-8.47-8.8-18.27-10.35-28.73-1.55-10.47-1.23-21.6.83-32.74,2.06-11.14,5.87-22.28,11.3-32.75,5.43-10.48,12.48-20.29,21.02-28.78,6.11-6.07,12.56-11.04,19.17-14.93,6.61-3.89,13.37-6.69,20.08-8.41,6.71-1.71,13.37-2.34,19.79-1.89,6.3.45,12.36,1.94,18.01,4.48.1.05.21.09.31.14l-.45-.2Z"/><path class="cls-1" d="m167.51,141.59c-3.51-1.07-8.13-2.26-11.9-3.25-.43-.11-.85-.22-1.25-.33-.34-.08-.71-.17-1.08-.25-1.8-.39-3.93-.74-5.6-.95-67.44-8.74-124.67,81.4-75.44,150.75.03,0,.06.01.08.02.37.09.75.19,1.13.29.16.04.31.08.47.12.01,0,.03,0,.04.01.55.15,1.11.3,1.68.46,0,0,0,0,0,0,.06.02.11.03.17.05.51.15,1.02.3,1.54.46.02,0,.03.01.05.02.18.06.36.12.55.17.38.12.76.24,1.15.37.03.01.07.02.1.03-.97-1.43-2.33-3.3-3.24-4.76-38.18-61.19,13.79-162.85,91.55-143.21Z"/><path class="cls-1" d="m62.26,157.97c-8.52,8.45-15.03,18.37-19.51,29.07-4.48,10.7-6.92,22.18-7.3,33.75-.38,11.57,1.29,23.24,5.04,34.31,3.75,11.07,9.59,21.54,17.52,30.72.05,0,.1,0,.14,0,.24,0,.49,0,.73-.01.15,0,.29,0,.44,0,.04,0,.08,0,.11,0,.26,0,.52,0,.79.02.15,0,.3,0,.46,0,.03,0,.05,0,.08,0,.29.01.59.03.89.05.14,0,.28.01.43.02.01,0,.03,0,.04,0,.4.03.81.06,1.23.1.06,0,.11,0,.16.01-44.87-56.15-11.83-154.48,68.9-151.48.05,0,.11,0,.16,0l-.53-.04-3.81-.26h-.13s-.07-.01-.1-.01c-3.96-.14-9.21-.06-13.16,0-.01,0-.02,0-.04,0,0,0-.01,0-.02,0-4.72.26-9.43.94-14.06,2.04-4.64,1.11-9.22,2.65-13.67,4.62-4.45,1.97-8.78,4.38-12.93,7.22-4.15,2.84-8.13,6.12-11.87,9.83Z"/><path class="cls-1" d="m21.6,224.33c.05,11.44,2.24,22.96,6.56,33.87,4.33,10.91,10.78,21.21,19.38,30.22.05-.03.1-.05.15-.08.16-.09.32-.17.48-.25.09-.05.18-.1.27-.14.05-.02.09-.04.14-.06.17-.08.34-.15.51-.23.1-.04.2-.09.3-.13.04-.02.08-.03.12-.05.18-.07.37-.14.55-.21.11-.04.22-.09.33-.12.03-.01.06-.02.1-.03.19-.07.39-.13.59-.19.12-.04.23-.08.35-.11-44.13-51.32-26.59-125.68,34.72-147.51.08-.03.16-.06.24-.09-.11.04-.23.08-.35.12-4.42,1.53-10.1,3.77-14.34,5.57-2.37,1.13-5.4,2.82-7.75,4.07-.06.03-.12.06-.18.1-.05.03-.09.06-.14.08-1.45.85-2.89,1.74-4.3,2.69-1.46.97-2.89,2-4.29,3.07-1.41,1.08-2.78,2.2-4.14,3.38-1.35,1.18-2.67,2.41-3.96,3.69-8.51,8.44-14.87,18.3-19.1,28.92-4.23,10.62-6.31,21.99-6.26,33.43Z"/><path class="cls-1" d="m23.91,273.05c4.4,8.03,10.14,15.56,17.21,22.3.02-.05.05-.09.07-.14.11-.22.22-.44.33-.66.02-.04.04-.08.06-.12.03-.05.05-.09.08-.13.11-.2.23-.4.35-.59.03-.05.06-.1.09-.15.01-.02.03-.04.04-.06.16-.26.33-.51.51-.75,0,0,.01-.02.02-.02.02-.03.05-.07.08-.1.15-.2.3-.4.46-.59.03-.03.05-.06.08-.1-32.82-34.51-36.23-80.67-8.76-117.75.09-.13.18-.26.28-.39l-.64.83-2.93,3.84-.48.62c-.22.31-.43.6-.62.88-1.58,2.24-2.47,3.55-3.64,5.57-1.07,1.85-2.39,4.29-4.7,8.57-.02.04-.04.08-.07.12l-.14.3-.89,1.87c-3.71,8.04-6.06,16.56-7.05,25.24-.99,8.68-.62,17.52,1.09,26.19,1.71,8.67,4.77,17.19,9.18,25.21Z"/><path class="cls-1" d="m39.09,306.65c0-.07,0-.13,0-.2,0-.33,0-.65,0-.97,0-.07,0-.15,0-.22,0-.02,0-.05,0-.07,0-.41.02-.81.04-1.2,0-.02,0-.04,0-.06,0-.07.01-.13.02-.2.02-.31.04-.61.07-.91,0-.06,0-.12.01-.18,0-.06.02-.12.02-.19.03-.28.06-.56.1-.84,0-.07.02-.14.03-.21-5.52-4.96-10.25-10.41-14.18-16.2-3.93-5.79-7.06-11.93-9.38-18.26-2.32-6.33-3.84-12.87-4.55-19.45-.64-5.98-.61-12.01.09-17.97.07-.6.14-1.2.22-1.8l-.19,1.4c-.39,3.09-.58,4.58-.7,7-.09,1.91-.14,4.4-.21,8.71-.01.79-.02,1.64-.04,2.57.01,2.12.12,4.2.3,6.21,2.64,29.09,21.76,46.93,28.33,53.05Z"/><path class="cls-1" d="m12.82,269.98c.01.07.03.15.04.22.3,1.67.65,3.34,1.07,4.99.09.35.18.71.27,1.06-.51-2.19-.99-4.34-1.38-6.25,0,0,0-.01,0-.02Z"/><path class="cls-1" d="m25.82,305.56c2.09,3.05,4.47,5.98,7.12,8.76,2.65,2.78,5.58,5.41,8.78,7.86-.16-.55-.31-1.09-.45-1.63-.01-.06-.03-.11-.05-.17-.03-.11-.05-.21-.08-.32-.1-.38-.19-.76-.29-1.14-.02-.1-.05-.2-.07-.29-.02-.08-.03-.15-.05-.22-.1-.41-.19-.81-.28-1.21-.02-.09-.04-.18-.06-.27,0-.02,0-.05-.01-.07-.11-.51-.21-1.01-.31-1.5,0-.03-.01-.06-.02-.09-3.79-3.05-7.21-6.35-10.24-9.84-3.03-3.49-5.69-7.17-7.96-11.01-2.27-3.83-4.16-7.81-5.67-11.9-.76-2.06-1.42-4.15-1.99-6.26.79,3.37,1.65,6.84,2.39,9.74.09.31.18.62.27.92.05.17.1.34.15.51.91,2.94,2.03,5.83,3.35,8.64,1.54,3.27,3.36,6.45,5.45,9.5Z"/></svg>