<?xml version="1.0" encoding="UTF-8"?><svg id="Graphic_Elements" xmlns="http://www.w3.org/2000/svg" viewBox="0 0 616.68 612"><defs><style>.cls-1{opacity:.9;}.cls-2{fill:#181818;stroke-width:0px;}</style></defs><g class="cls-1"><path class="cls-2" d="m569.78,367.9c-.16.37-.37.69-.58,1.06l-.05.11c-1.8,2.6-4.03,5.04-6.69,7.16-5.31,4.24-12.26,7.48-20.8,9.34-5.41,1.17-11.46,1.86-18.09,1.91-41.92.42-95.19-22.76-132.6-55.34-9.07-7.91-17.19-16.34-23.98-25.15-.42-.53-.85-1.06-1.27-1.64-3.66-4.88-6.79-9.66-9.34-14.27l1.49-.69c1.22-.53,2.6-1.06,3.98-1.64.37-.11.74-.26,1.06-.48,5.15-2.02,9.23-6.74,11.99-14.06.58-1.59,1.11-3.34,1.59-5.2.05-.11.05-.21.11-.32.37-1.7.74-3.45,1.06-5.36.42-2.81.74-5.78.95-9.02.42-7.48.11-15.76-.9-24.46-1.06-9.82-2.97-20.22-5.62-30.93-1.59-6.47-3.45-13.11-5.52-19.74-8.6-27.22-21.17-54.97-35.87-77.95-3.18-4.93-6.47-9.66-9.82-14.11-.85-1.17-1.7-2.28-2.55-3.34-6.1-7.75-12.04-14.01-17.67-18.84-8.17-6.95-15.71-10.88-22.29-11.78-2.23-.26-4.3-.21-6.26.16h-.16c-1.75.69-3.45,1.38-5.15,2.02.26-.16.53-.32.85-.48.21-.11.48-.21.69-.32l-.69.27c-3.13,1.27-6.21,2.55-9.13,3.82l-1.75.74q-.05,0-.05.05h-.16c-5.84,2.6-13.48,6.37-19.37,9.13.9-.42,1.91-.69,2.97-.74,1.64-.16,3.5.11,5.52.74,5.57,1.75,12.47,6.58,20.27,14.43,5.52,5.47,11.46,12.42,17.83,20.8.37.48.69,1.01,1.06,1.49,4.03,5.41,8.01,11.14,11.94,17.14,12.79,19.74,24.83,42.29,34.7,64.52,3.02,6.9,5.89,13.8,8.49,20.59,4.46,11.57,8.17,22.71,10.93,33.11,2.28,8.65,3.98,16.71,4.83,23.98.37,3.02.58,5.78.69,8.38.11,3.66-.05,6.9-.48,9.66-.9,6.16-3.13,10.03-6.47,11.67,0,.05-.05.05-.11.05-.16.11-.32.21-.48.27,3.08,5.84,7,12.04,11.89,18.47v.02h0s0,.01,0,.01v.02c.58.8,1.22,1.59,1.8,2.33,35.07,45,100.55,86.17,147.88,92.64,4.83.69,9.29.96,13.37.85,7.32-.16,13.37-1.49,18.2-3.87,3.02-1.49,5.57-3.4,7.59-5.68.42-.48.85-1.01,1.22-1.54.05-.05.11-.16.16-.21l1.65-2.39c.05-.05.11-.11.16-.16.27-.32.48-.74.69-1.06.05-.05.11-.05.11-.11,1.38-1.96,2.86-4.19,4.35-6.42,1.75-2.71,3.55-5.57,5.25-8.44l1.49-2.28c.21-.42.48-.8.69-1.17.27-.42.48-.8.74-1.17l1.91-3.4c.58-.96,1.11-1.91,1.64-2.81.58-.96,1.11-1.91,1.64-2.87.16-.26.27-.58.42-.85-.16.21-.27.37-.37.58-.2.35-.41.7-.61,1.06l1.27-2.25s.02-.05.03-.08c-.51.91-1.02,1.81-1.53,2.72-.25.44-.5.88-.75,1.3Z"/><path class="cls-2" d="m165.14,113.04l.05-.05h-.05v.05Z"/><path class="cls-2" d="m518.58,437.88c-1.8,1.49-4.25,2.39-7.32,2.65-3.71.32-8.28-.26-13.8-1.8-2.76-.8-5.78-1.8-9.02-3.08-17.67-7-39.21-20.54-60.75-37.35-12.58-9.82-25.2-20.75-36.98-32.21-14.33-13.85-27.54-28.44-38.2-42.66-5.57-7.43-10.13-14.27-13.64-20.48-.42-.69-.8-1.43-1.22-2.12,0-.05-.05-.05-.05-.11-1.43.9-2.92,1.8-4.19,2.55l-.26.16c-.85.53-1.75,1.17-2.76,1.75-.16.11-.32.21-.48.27.69-.42,1.06-1.43,1.06-2.92,0-1.38-.32-3.18-.9-5.41-.58-2.12-1.43-4.72-2.55-7.69-.85-2.12-1.8-4.56-2.92-7.16-2.92-6.69-6.63-14.38-11.04-22.76-5.94-11.46-13.11-24.2-20.96-37.46-14.49-24.41-31.41-50.57-47.7-73.44-3.98-5.57-7.91-10.93-11.73-16.08-4.14-5.52-8.01-10.45-11.57-14.8-8.44-10.35-15.17-17.56-19.95-21.54-1.7-1.38-3.18-2.39-4.4-2.92-1.06-.53-1.91-.69-2.55-.53h-.11c-.27.16-.53.32-.74.48.05-.05.11-.11.16-.16-.37.27-.74.48-1.11.74-2.81,1.75-5.62,3.55-8.12,5.25-.32.26-.69.48-1.01.69l-.37.27c-2.97,2.02-6.37,4.46-9.76,6.9-.05,0-.05.05-.11.05-.32.21-.64.42-.9.64-.32.26-.64.48-.96.69-1.17.8-2.28,1.59-3.4,2.39-.37.26-.69.53-1.01.74-.21.21-.42.32-.64.48-.11.11-.21.21-.32.26-.05.05-.11.05-.16.11-.11.11-.21.16-.32.21-.16.16-.32.27-.48.37l-.16.16c.11.11.8,1.01,2.12,2.65,1.01,1.33,2.39,3.08,4.09,5.31,4.78,6.21,12.15,16.02,22.02,29.08,1.59,2.12,3.24,4.3,4.93,6.58,9.29,12.31,19.47,25.89,29.87,39.8,6.63,8.86,13.37,17.88,20,26.74,14.06,18.84,27.64,37.09,39,52.37,6,8.12,11.41,15.44,15.92,21.54,1.64,2.23,3.13,4.24,4.4,6.05,1.86,2.49,3.4,4.56,4.62,6.26,2.65,3.71,3.93,5.52,3.93,5.62-2.07,1.54-4.51,3.4-6.47,4.99-.32.27-.58.53-.9.74,0,.05-.05.05-.11.11-.05.05-.16.11-.21.21l.05.05c2.39,2.81,4.99,5.94,7.8,9.45,3.39,4.3,7.11,9.12,11.14,14.43,0,0,0,0,0,0,4.3,5.71,8.71,11.74,13.19,17.98,15.79,22.05,32.28,46.8,46.73,69.96,8.02,12.86,15.41,25.22,21.7,36.35,4.95,8.76,9.22,16.77,12.58,23.64.25-.17.5-.33.75-.5-.25.17-.5.34-.75.5,1.19,2.44,2.24,4.68,3.14,6.71,1.55,3.49,2.68,6.37,3.41,8.68,1.08,3.4,1.29,5.55.68,6.44-.05.08-.12.13-.19.19.87-.57,1.73-1.13,2.56-1.67l1.86-1.24.22-.15c6.18-4.27,13.95-9.95,20.52-14.79,1.2-.88,2.36-1.73,3.46-2.55-.03,0-.07-.04-.11-.06-.46-.25-1.66-1.52-3.52-3.67-1.59-1.84-3.66-4.32-6.14-7.34-1.43-1.74-2.99-3.64-4.67-5.71-.24.19-.49.37-.73.55.24-.19.49-.37.73-.56-5.34-6.58-11.75-14.62-18.88-23.64-14.96-18.93-33.05-42.17-50.88-65.36-.11-.14-.22-.29-.33-.43-13.04-16.96-25.93-33.88-37.34-49.05,0,0,0,0,0,0-1.54-2.07-3.02-4.03-4.4-5.88-5.84-7.75-10.4-13.95-14.06-18.89,1.01-.74,2.02-1.54,3.08-2.28l2.92-2.12,1.75-1.22c.11,0,.16-.05.21-.11l.42-.27c.42-.27.8-.53,1.17-.8.05,0,.05-.05.11-.05.8-.53,1.64-1.11,2.49-1.64,4.14,6.95,9.71,15.12,16.71,24.35,3.93,5.25,8.12,10.61,12.58,16.02,23.72,29.02,53.59,59.8,79.8,82.62,11.83,10.24,22.87,18.94,32.31,25.1,2.49,1.64,4.83,3.02,6.95,4.24,4.19,2.34,7.64,3.87,10.45,4.62,2.81.79,4.93.74,6.31-.11.11-.05.21-.16.32-.21.11-.11.21-.21.32-.26l.16-.16.16-.16,3.29-3.13.22-.22s.08-.08.12-.12c.57-.53,1.15-1.08,1.73-1.64,2.28-2.2,4.72-4.68,7.08-7.13.54-.55,1.07-1.09,1.59-1.64,1.33-1.39,2.66-2.79,3.96-4.2.07-.07.14-.15.2-.22.04-.04.08-.08.11-.12l.26-.3c1.14-1.24,2.36-2.58,3.62-3.96-.12.13-.25.26-.37.39.11-.13.22-.25.35-.38.37-.37.69-.74,1.01-1.11.11-.05.16-.16.27-.27.21-.21.42-.48.64-.74-.21.16-.32.32-.48.48-.05.05-.11.11-.16.11Z"/><path class="cls-2" d="m520.12,436.34c.05-.11.16-.21.21-.32-.37.42-.8.85-1.11,1.27.32-.32.58-.64.9-.96Z"/><path class="cls-2" d="m24.67,466.76c.26.58.53,1.15.79,1.72.35.69.69,1.35,1.01,1.99-1.04-2.2-2.07-4.46-3.04-6.64.39.98.81,1.96,1.23,2.93Z"/><path class="cls-2" d="m258.66,376.82c.09.6.14,1.2.22,1.8-.04-.43-.1-.91-.18-1.52l-.04-.29Z"/><path class="cls-2" d="m609.46,216.99c0-.1,0-.2,0-.3l-.03-.27c-.03-.52-.06-1.03-.09-1.52-.08-1.2-.19-2.46-.31-3.75-.1-1.21-.2-2.42-.33-3.63,0-.07,0-.13-.01-.2,0,.06,0,.11.01.17.05.75.1,1.47.14,2.17.24,3.64.44,6.66.59,9.3-.17-2.65-.35-5.68-.59-9.3,1.49,27.33-8.65,65-63.04,93.92.05.74.11,1.49.21,2.23-.11-.74-.16-1.49-.27-2.23-8.81,4.3-17.99,7.69-27.33,10.24-13.64,3.61-27.64,5.41-41.39,5.41-37.2,0-72.91-12.95-95.77-36.93,1.01-.27,2.07-.48,3.02-.69l1.33-.27.05-.05h.05c.32-.05.64-.11.95-.16,26.42,21.86,65.05,29.5,103.31,21.6,11.2-2.28,22.39-5.89,33.22-10.88,5.89-2.76,11.73-5.89,17.4-9.45,50.83-31.94,72.22-86.7,54.28-130.64-1.54-3.4-2.81-6.26-4.03-8.81-.11-.21-.21-.48-.37-.74-1.06-2.34-2.12-4.46-3.18-6.53-1.27-2.44-2.55-4.88-4.09-7.48-.64-1.01-1.22-2.07-1.86-3.13-1.06-1.64-2.12-3.4-3.34-5.31,7.96,13.58,11.94,28.81,12.2,44.52.21,12.1-1.75,24.46-5.73,36.61-8.44,25.47-25.79,49.93-50.99,68.45-4.67,3.45-9.5,6.58-14.43,9.39-9.02,5.2-18.36,9.34-27.86,12.47-36.24,11.83-73.86,8.07-101.19-10.61h-.21c1.11-.21,2.28-.42,3.4-.69,26.58,13.48,60.01,12.73,91.32-2.12,7.75-3.71,15.39-8.22,22.71-13.64,4.03-2.97,8.01-6.21,11.83-9.71,13.8-12.47,24.78-27.06,32.9-42.55,19.58-37.46,22.02-80.44,4.4-113.13-2.12-3.98-4.56-7.8-7.32-11.41-4.88-6.53-10.45-12.1-16.61-16.71-5.41-3.98-13-8.86-18.68-12.52h-.05q-.05-.05-.11-.11c-2.02-1.17-4.03-2.33-5.94-3.34-.85-.48-1.64-.9-2.49-1.33-.27-.16-.58-.32-.9-.48-1.27-.64-2.6-1.33-3.93-1.96l-.42-.26c-.16-.05-.26-.11-.37-.16-.16-.05-.32-.16-.48-.21-.42-.21-.8-.37-1.22-.58.05.04.11.06.16.09-.05-.03-.11-.05-.16-.08-.37-.18-.74-.37-1.11-.54.09.04.18.09.27.14-.34-.16-.68-.31-1.01-.47-.05-.02-.1-.05-.15-.07-.98-.45-1.97-.88-2.97-1.29.02,0,.03.02.05.02,1.81.8,3.61,1.63,5.4,2.47.95.49,1.93.99,2.95,1.51,0,0,.01,0,.02.01,8.12,4.51,15.6,10.56,22.13,18.15,1.33,1.49,2.6,3.02,3.82,4.62,26.8,35.66,26.96,90.1,3.93,135.68-6.63,13.11-15.18,25.47-25.52,36.45h-.05l-.05.05c-3.34,3.61-6.79,6.85-10.35,9.92-6.21,5.41-12.63,9.98-19.26,13.85-27.06,15.87-56.56,19.1-81.55,9.39,9.45-2.71,18.25-8.7,25.79-18.09,2.97-3.61,5.68-7.75,8.22-12.36,1.7-3.13,3.29-6.47,4.83-10.03-.16,0-.32.05-.48.05.16-.05.32-.05.48-.11,3.4-8.17,6-17.09,7.8-26.42,2.07-10.56,3.13-21.65,3.29-32.95.05-7.27-.21-14.64-.9-22.02-2.65-28.97-11.14-58-24.67-81.34-2.81-4.93-5.89-9.55-9.18-13.95-1.11-1.43-2.23-2.87-3.34-4.25-6.31-7.64-12.95-13.69-19.74-18.09-8.44-5.57-17.09-8.6-25.52-9.13-2.18-.11-4.35-.11-6.47.11-.69.05-1.38.16-2.07.21l-14.33,2.44-.42.11c-.27.05-.58.11-.85.16-.32.05-.64.11-.9.16-5.47,1.17-12.1,2.76-17.51,4.03,2.39-.42,4.83-.58,7.32-.48,7.85.37,16.24,3.55,24.73,9.6,6,4.24,12.04,9.98,17.99,17.09,1.49,1.75,2.97,3.61,4.4,5.57,2.17,2.81,4.24,5.84,6.26,8.91,16.08,24.67,27.54,56.35,32.9,87.66,1.22,7.06,2.12,14.11,2.65,21.07.85,10.72.96,21.12.16,31.04-.69,8.86-2.07,17.35-4.19,25.1v.05c-.95,3.45-2.02,6.69-3.24,9.71-1.75,4.46-3.71,8.44-5.94,11.94-5.78,9.18-13.11,14.91-21.33,17.19l-.16.05c-.16.05-.27.05-.42.11-.85.21-1.75.48-2.71.74-.05.05-.11.05-.11.05,18.15,22.07,46.27,37.2,77.36,43.78,16.34,3.45,33.43,4.56,50.35,3.02,14.22-1.33,28.28-4.51,41.55-9.66,37.67-15.87,58.26-39.48,63.04-72.16.05-.37.11-.74.16-1.11,0-.16,0-.32.05-.48.05-1.75.16-3.55.21-5.46,0-.53.05-1.01.05-1.49v-.37c.12-3.13.2-5.72.26-8.05-.05,2.43-.14,5.15-.25,8.39,0-.03,0-.07,0-.1.16-3.09.28-6.08.36-8.77.11-4.19-.13-9.57-.39-14.09Z"/><path class="cls-2" d="m390.59,511.16c-1.17-7.16-3.13-15.18-5.68-23.77-3.13-10.4-7.22-21.7-11.99-33.32-3.61-8.65-7.54-17.46-11.78-26.27-8.7-17.99-18.68-36.08-29.18-52.48-4.3-6.69-8.65-13.11-13-19.16-1.06-1.49-2.17-2.92-3.24-4.35-6.1-8.17-11.89-14.96-17.14-20.38l-1.01-1.01.48-.48c-1.43,1.33-4.35,1.06-8.81-.96-2.17-1.01-4.67-2.39-7.53-4.19-2.02-1.27-4.25-2.76-6.58-4.46h-.05c-8.38-6.05-18.04-14.11-28.49-23.56-27.22-24.67-59.22-58.79-84.1-89.99-3.34-4.19-6.58-8.38-9.66-12.42-9.34-12.42-16.24-22.76-20.69-30.83-2.07-3.77-3.61-7.06-4.62-9.82-1.54-4.14-1.8-7.06-.85-8.6.05-.11.05-.16.11-.21l.42-.42c-.27.21-.48.42-.74.64l-3.5,3.34-4.72,4.46c-.58.58-1.22,1.17-1.86,1.8q-.05,0-.11.05c-1.33,1.33-2.65,2.65-3.93,3.98-2.71,2.76-5.47,5.62-7.91,8.17-.58.69-1.22,1.33-1.86,1.96-.21.21-.48.48-.69.74-.16.16-.27.32-.37.48-.11.05-.16.16-.21.21-2.44,3.4-2.44,8.97.05,16.4,1.33,4.09,3.45,8.75,6.26,13.9,3.82,6.9,8.91,14.7,15.44,23.35,8.54,11.41,18.68,23.13,29.71,34.6,15.92,16.61,33.64,32.63,51.04,46.27,18.94,14.86,37.57,26.9,52.96,33.69h.05c3.13,1.38,5.94,2.49,8.65,3.4,3.87,1.27,7.27,2.02,10.24,2.28,5.04.48,8.65-.53,10.82-2.87l.05-.05c.16-.11.27-.27.37-.37.21-.21.42-.42.64-.64l1.54-1.59,1.64-1.7c4.62,4.46,9.45,9.87,14.43,16.24.64.85,1.27,1.7,1.96,2.6,3.4,4.56,6.74,9.39,10.03,14.43,14.59,22.6,27.27,49.72,36.35,76.3,2.23,6.58,4.24,13.11,6,19.53,2.97,10.98,5.25,21.7,6.63,31.68,1.22,8.6,1.75,16.71,1.59,24.09-.05,2.97-.26,5.78-.58,8.38-.48,4.35-1.27,8.12-2.39,11.35-2.07,6.21-5.2,10.45-9.18,12.68-.16.05-.32.16-.48.21-.8.32-1.64.69-2.49,1.01.48-.16,1.01-.32,1.49-.48l5.84-2.55h.05s0-.05.05-.05c6.79-3.02,15.34-7.22,22.55-10.77,1.22-.58,2.33-1.11,3.45-1.64.37-.21.69-.42,1.06-.69,2.33-1.8,3.82-5.15,4.4-10.08.32-2.87.32-6.26,0-10.24-.21-2.44-.53-5.04-.95-7.85Z"/><path class="cls-2" d="m335.22,455.84c-5.78-30.16-17.16-60.67-32.56-84.89-2.41-3.78-4.91-7.42-7.51-10.87-.12.03-.25.07-.37.1-.12.03-.24.06-.36.1.24-.07.49-.14.73-.21-1.3-1.73-2.61-3.39-3.92-4.98-2.84-3.45-5.7-6.58-8.56-9.38-.5.57-.97,1.12-1.41,1.63-.04.05-.09.1-.13.15h0s0,0,0,0c-.07.09-.15.18-.23.27-.03.04-.07.08-.1.12-.06.07-.12.14-.17.21-.05.06-.09.11-.14.16-.02.02-.04.05-.06.07-.84,1.01-1.75,2.14-2.63,3.24,1.67,1.74,3.32,3.6,4.96,5.56,1.3,1.56,2.59,3.17,3.86,4.86.25-.04.49-.08.74-.12-.08.02-.17.03-.25.05-.16.03-.32.06-.48.09,2.82,3.75,5.49,7.73,8.01,11.89,14.48,23.95,23.77,54.11,26.92,84.19.71,6.73,1.11,13.46,1.19,20.11.14,11.55-.68,22.87-2.51,33.6-1.6,9.35-3.96,18.24-7.13,26.44.31-.05.62-.11.92-.16-.31.05-.62.12-.93.17-1.33,3.43-2.76,6.64-4.3,9.65-2.56,5.02-5.38,9.46-8.43,13.32-7.41,9.35-16.15,15.24-25.56,17.6l-.94.15c-1.7.29-3.39.58-5.04.85.98-.09,1.95-.21,2.91-.37,0,0,.02,0,.03,0l.12-.02,7.33-1.33c.19-.04.38-.08.57-.13.09-.02.18-.03.27-.05.16-.03.33-.06.49-.09.89-.18,1.81-.38,2.74-.58,2.55-.5,5.07-1.02,7.52-1.56,3.04-.68,6.1-1.42,8.84-2.16.59-.16,1.19-.32,1.76-.49,1.08-.31,2.13-.61,3.15-.91.23-.06.47-.12.7-.18,1.12-.31,2.27-.63,3.44-.95.35-.12.69-.24,1.04-.37.06-.02.12-.05.17-.07,6.65-2.6,12.54-7.82,17.29-15.64,2.24-3.69,4.22-7.95,5.91-12.78.98-2.81,1.87-5.81,2.65-9.01-.31.09-.63.16-.94.25.31-.09.63-.17.94-.26,1.91-7.84,3.06-16.37,3.51-25.36.53-10.4.12-21.4-1.14-32.66-.71-6.35-1.69-12.79-2.93-19.24Z"/><path class="cls-2" d="m282.51,540.93c5.09-8.75,9.18-18.2,12.42-28.18,4.09-12.68,6.69-26.11,7.8-39.74.74-9.44.85-19,.21-28.44-1.43-21.07-6.37-41.6-14.7-59.43-2.97-6.47-6.42-12.58-10.29-18.25-.96-1.33-1.86-2.6-2.81-3.87-1.01-1.33-2.02-2.6-3.08-3.87.32-.37.58-.8.85-1.17l.53-.8c-2.28,3.13-5.52,5.62-9.71,7.27-2.12.85-4.46,1.49-7,1.96-.27,0-.48.05-.69.11-2.65.37-5.47.58-8.6.53-4.03,0-8.44-.42-13.21-1.22-47.12-8.01-113.29-51.73-147.83-97.58-1.22-1.64-2.39-3.24-3.5-4.83-5.41-7.75-9.5-15.02-12.31-21.65-5.57-13.27-6.1-24.14-1.8-31.68.16-.32.37-.64.58-.96l-5.89,8.22-.32.48c-.05.05-.11.11-.16.21-.05.11-.16.21-.27.37-1.01,1.49-2.02,3.08-3.13,4.72-1.38,2.07-2.87,4.3-4.3,6.53-1.54,2.44-3.02,4.93-4.51,7.38-.11.16-.16.27-.26.37l-.21.42c-.05.11-.11.16-.16.27-.05.11-.16.26-.21.37-.05.05-.05.11-.11.11-.11.21-.16.37-.27.53-.05,0-.05.05-.05.05-.27.53-.53,1.01-.8,1.54-6.05,12.1-4.03,28.76,6.85,47.7,2.49,4.3,5.36,8.65,8.75,13.16,3.98,5.31,8.44,10.51,13.32,15.55,37.14,38.63,97.15,68.4,143,69.19,6.69.16,12.73-.37,18.15-1.43,8.33-1.65,15.07-4.62,20.22-8.7.05-.05.11-.11.21-.16,11.41,42.24-10.08,92.06-56.88,122.41v.05c-5.78,3.77-11.78,7.06-17.88,9.98-9.92,4.67-20.11,8.22-30.4,10.67-46.48,10.88-93.97-1.59-119.44-35.44-2.71-3.61-5.09-7.38-7.16-11.25,1.01,2.07,1.96,3.87,2.81,5.52,2.12,3.98,3.87,7.11,5.89,10.35,2.6,4.14,5.62,8.44,10.13,14.96.05.05.05.11.11.16.11.11.16.21.32.37.9,1.17,1.91,2.49,2.97,3.77.64.8,1.33,1.59,2.02,2.33,27.64,31.04,74.76,38.89,119.18,22.71,8.44-3.08,16.77-7.06,24.89-11.83,4.83-2.92,9.6-6.1,14.22-9.66-.16-.16-.27-.37-.42-.58,2.39.32,4.4-3.5,6.26-4.99l4.3-3.77c.48-.42.96-.85,1.43-1.27.8-.69,1.49-1.43,2.23-2.18.16-.11.32-.26.48-.42.69-.69,1.38-1.33,2.07-2.02l.58-.58c.48-.53,1.01-1.06,1.49-1.54.27-.27.53-.58.74-.85.42-.42.85-.9,1.27-1.33.27-.32.53-.58.8-.9.37-.42.8-.85,1.17-1.33.27-.26.53-.58.8-.9.37-.42.74-.9,1.11-1.33.27-.32.53-.58.8-.9.11-.11.16-.21.27-.37.32-.32.58-.69.85-1.01.21-.32.48-.58.69-.9.43-.48.8-.96,1.17-1.49.21-.26.42-.53.64-.8.48-.64.96-1.27,1.43-1.91.11-.11.21-.27.26-.37.48-.69.96-1.33,1.43-2.02.11-.11.21-.21.27-.32.16-.21.32-.48.48-.69.16-.21.26-.42.42-.64.05-.05.11-.16.21-.27.11-.16.21-.32.26-.48.11-.11.16-.21.21-.26.21-.32.42-.64.58-.9.27-.37.53-.74.74-1.11.05-.11.11-.21.21-.32,0,0,0-.05.05-.05.05-.16.16-.32.27-.48.11-.16.21-.32.32-.48.32-.48.58-.96.9-1.43.05-.11.16-.27.21-.37,0,0,.05-.05.05-.11.11-.16.21-.37.32-.53.32-.48.58-.96.85-1.43.21-.32.37-.64.58-.96.05-.11.16-.21.21-.37.05-.05.11-.16.11-.21.11-.16.21-.32.32-.53.05-.11.16-.27.21-.42.21-.32.37-.64.53-.95.11-.16.16-.27.27-.42.05-.11.11-.27.16-.37.16-.21.27-.42.37-.64.05-.05.05-.11.11-.16.11-.32.27-.58.42-.85.05-.11.11-.27.21-.37.16-.32.32-.64.48-.96.11-.21.21-.48.37-.69,0-.11.05-.16.11-.27,0-.05.05-.11.11-.16.05-.11.11-.21.16-.32.16-.37.32-.74.48-1.06.16-.37.37-.74.53-1.11,0,0,.05-.05.05-.11.05-.11.11-.16.11-.26.16-.32.32-.64.48-.96.05-.16.11-.32.21-.42.05-.27.16-.53.32-.74,0-.05.05-.16.05-.21.05-.11.05-.16.11-.21.05-.16.11-.27.16-.37.11-.16.16-.32.21-.48.21-.42.37-.8.53-1.22.05-.16.16-.37.21-.53.11-.21.16-.37.21-.53.05-.05.11-.11.11-.16s0-.11.05-.16c.05-.11.11-.27.16-.37.11-.21.16-.42.21-.64.05-.05.05-.11.05-.16.11-.16.21-.37.26-.58.05-.21.16-.37.21-.58.11-.32.27-.64.37-1.01.11-.16.16-.37.21-.58.05-.16.16-.27.21-.42.05-.16.05-.27.11-.42.16-.37.26-.74.42-1.11.11-.32.21-.64.32-1.01q.05-.05.05-.11c.21-.64.48-1.33.64-1.96.11-.32.16-.64.27-.96.05-.11.11-.16.11-.21.16-.58.32-1.11.48-1.64.05-.16.11-.32.16-.48.05-.16.05-.27.11-.42.21-.69.48-1.43.64-2.12.11-.37.21-.69.27-1.01.26-.9.48-1.75.64-2.6.16-.48.26-.95.32-1.43.27-.85.42-1.7.53-2.55.05-.37.16-.74.21-1.11,0-.05,0-.11.05-.21.05-.42.16-.85.21-1.27.21-.85.32-1.75.42-2.6.05-.16.05-.32.05-.48.11-.53.16-1.01.21-1.54,0-.11,0-.27.05-.37,0-.16.05-.32.05-.48.05-.37.11-.8.16-1.22l.16-1.75c.05-.16.05-.27.05-.42v-.05c.05-.16.05-.26.05-.42,0-.11,0-.21.05-.27v-.53c.05-.21.05-.37.05-.58.05-.26.05-.48.05-.74,0-.16.05-.32.05-.53v-.48c.05-.27.05-.53.05-.74v-.27c.05-.16.05-.37.05-.53v-.85c.05-.21.05-.42.05-.64v-1.06c0-.26.05-.58.05-.9v-2.6c0-.21,0-.37-.05-.58v-1.64c-.05-.11-.05-.27-.05-.37v-.42c0-.27-.05-.58-.05-.9v-.26q0-.11-.05-.16v-.05c.05-.05,0-.11,0-.21v-.53c0-.11,0-.21-.05-.32v-.05c0-.21,0-.42-.05-.69,0-.27,0-.48-.05-.74,0-.21,0-.42-.05-.69v-.21c0-.11-.05-.21-.05-.32v-.32c-.05-.05-.05-.16-.05-.32,0-.11,0-.21-.05-.32v-.11c-.05-.27-.05-.58-.11-.85v-.26c-.05-.32-.11-.64-.16-.95v-.37c-.05-.16-.05-.32-.11-.48,0-.16,0-.26-.05-.42,0-.11,0-.21-.05-.32,0-.27-.05-.58-.11-.85,0-.05,0-.16-.05-.21-.05-.37-.11-.69-.16-1.06v-.05c0-.11-.05-.16-.05-.27v-.11c-.05-.21-.11-.48-.16-.74-.05-.42-.16-.85-.27-1.27,0-.16-.05-.32-.05-.48-.05-.11-.05-.27-.11-.37,0-.16-.05-.32-.05-.48-.11-.37-.16-.69-.27-1.06-.05-.21-.05-.37-.11-.58-.05-.16-.11-.32-.16-.53-.05-.21-.11-.42-.16-.64,0-.16-.05-.26-.11-.42,0-.11-.05-.26-.05-.37-.11-.32-.16-.64-.27-.96-.11-.37-.21-.74-.32-1.11,0-.05,0-.11-.05-.16,0-.16-.05-.37-.11-.53-.05-.05-.05-.16-.05-.16,0-.05,0-.11-.05-.16l-.05-.05c0-.05,0-.16-.05-.21-.16-.58-.32-1.11-.53-1.7l.42-.9,1.75-3.44c15.32,32.78,12.09,74.81-7.22,111.39-7.77,14.72-18.13,28.56-30.94,40.55.05.03.1.07.14.1-.05-.03-.1-.06-.15-.1-3.8,3.39-7.63,6.53-11.5,9.44-6.75,5.08-13.59,9.44-20.49,13.06-33.94,17.84-69.1,17.91-100.25-.6-.21-.12-.41-.25-.62-.37.28.19.55.38.83.57.92.64,1.81,1.25,2.67,1.83.38.26.78.52,1.19.78.2.13.39.25.59.38.35.22.72.45,1.08.67,1.51.96,2.99,1.86,4.4,2.67.2.12.4.23.6.34,1.63.92,3.47,1.96,5.37,3.01.06.03.12.07.18.1,1.39.75,2.76,1.47,4.14,2.18,2.61,1.38,5.06,2.56,8.15,3.95,1.68.76,3.55,1.58,5.73,2.53.15.06.29.13.44.19-.08-.03-.16-.07-.25-.11-1.66-.71-3.31-1.48-4.93-2.31,3.81,1.63,7.95,3.32,11.97,4.9,23.68,7.44,50.82,3.47,75.71-11.63,6.57-3.99,12.98-8.74,19.13-14.27,3.36-3.02,6.64-6.27,9.82-9.75-.1-.04-.19-.09-.29-.13.1.04.19.08.29.13,10.11-11.05,18.39-23.47,24.8-36.62,10.89-22.34,16.32-46.77,15.94-70.08-.09-5.59-.51-11.11-1.28-16.53-2.03-14.38-6.46-27.99-13.37-40,0,0,0-.01.01-.02.42-.74.85-1.43,1.22-2.12.11-.05.11-.16.16-.21.21-.32.42-.64.58-.96l1.59-2.49c2.6,3.55,4.99,7.38,7.11,11.3,6.16,11.2,10.56,23.72,13.21,36.93.42,2.28.85,4.56,1.22,6.9,2.33,15.02,2.49,30.78.53,46.37-1.91,14.96-5.73,29.82-11.46,43.78-4.4,10.72-9.98,20.91-16.66,30.19-2.6,3.61-5.31,7-8.07,10.13-4.78,5.41-9.76,10.13-14.96,14.17-17.62,13.74-37.3,19.74-56.08,17.62,3.61.48,7.32.9,10.77,1.27h.16c.37.05.69.11,1.01.11.8.11,1.59.16,2.33.27.42,0,.85.05,1.27.05.51.03,1.06.06,1.61.09-.56-.03-1.11-.06-1.63-.09,1.86.15,3.79.29,5.78.4,2.36.15,4.66.27,6.7.31.11,0,.22,0,.33,0,.35.01.69.02,1.04.03.28,0,.55.01.82.02.31,0,.61.02.92.02.66.01,1.31.02,1.94.03.47,0,.93,0,1.39.01.19,0,.39,0,.59,0,.04,0,.09,0,.13,0h1.38c1.22,0,2.44-.05,3.61-.16,13.96-1.06,27.7-7.38,39.9-18.78,4.19-3.93,8.22-8.49,12.05-13.69,2.33-3.24,4.56-6.69,6.74-10.35Z"/><path class="cls-2" d="m27.3,472.19c.04.08.09.16.13.25-.12-.24-.24-.49-.37-.73.08.16.15.32.23.48Z"/><path class="cls-2" d="m574.24,113.93c1.34,1.91,2.59,3.87,3.76,5.86-1.13-1.77-2.37-3.7-3.76-5.86Z"/><path class="cls-2" d="m584.58,323.79c-10.27,10.28-24.89,18.32-43.42,22.93-.03.1-.06.21-.09.31.03-.1.06-.2.09-.31-23.41,5.82-49.5,5.27-74.61-.39-19.35-4.36-38.11-11.76-54.6-21.64-15.77-9.45-29.47-21.16-39.62-34.65,0,.03-.02.05-.02.08,0-.03.02-.05.02-.08-1.04-1.38-2.03-2.77-2.97-4.16-1.08.38-2.34.83-3.85,1.37-.71.28-1.48.59-2.28.91,1.89,3.12,4,6.26,6.38,9.41.06-.14.12-.28.18-.42-.06.14-.11.28-.17.42,5.06,6.72,10.96,13.12,17.52,19.13,10.5,9.61,22.68,18.22,35.83,25.5,34.72,19.24,76.16,29.3,110.95,24.55.41-.95.82-1.91,1.21-2.85-.39.95-.79,1.9-1.2,2.85,11.07-1.51,20.64-4.41,28.61-8.44,9.75-4.93,17.1-11.55,21.87-19.4.13-.21.26-.42.38-.63.49-.84.94-1.69,1.37-2.55.12-.23.24-.47.35-.7.24-.5.47-1.01.69-1.53.02-.05.04-.09.06-.14.84-2.12,1.71-4.39,2.61-6.75.16-.41.31-.82.47-1.24,2.75-7.32,5.63-15.38,8.02-22.51.03-.1.07-.2.1-.3-.02.04-.03.08-.05.12-2.9,7.69-7.55,14.81-13.82,21.1Z"/><path class="cls-2" d="m128,494.5c13.85-.21,27.91-2.23,41.55-6.21,9.18-2.65,18.15-6.16,26.8-10.56,42.4-21.54,65.21-58.69,62.93-94.77-.11-1.17-.16-2.33-.32-3.45.05.85.05,1.64.11,3.08v.11c-4.72,9.39-12.68,17.4-23.72,23.35-8.12,4.35-17.93,7.59-29.24,9.39h-.05c-33.32,5.36-72.48-2.71-106.23-19.53-15.97-7.91-30.67-17.83-42.93-29.24-6.05-5.57-11.51-11.57-16.24-17.83-16.08-21.38-20.75-42.45-15.39-59.8.11-.27.16-.58.26-.85,0-.05.05-.11.05-.16s.05-.11.05-.16c.37-1.01.74-1.96,1.17-2.92-.32.69-.58,1.43-.9,2.12-.58,1.49-1.17,2.97-1.75,4.4-.05.11-.05.21-.11.32s-.11.21-.11.32c-.48,1.33-.96,2.65-1.49,4.03-.42,1.11-.8,2.28-1.22,3.5-.32,1.01-.69,1.96-1.01,2.87-1.64,4.78-3.5,11.04-4.88,16.18-.11.53-.26,1.06-.37,1.54-.05.11-.05.26-.11.37v.16c-.05,0-.05.05-.05.11-7.64,37.89,18.68,74.13,59.11,96.36,16.61,9.13,35.6,15.92,55.61,19.47,22.71,4.03,46.69,3.98,69.93-1.43h.05c25.2-6.9,39.64-18.47,48.02-29.13,7.22-9.23,10.03-17.78,11.46-22.29-.32,9.55-2.87,22.82-11.99,36.67-9.13,13.9-24.83,28.39-51.47,40.43h-.05c-12.58,4.78-25.36,7.91-38.04,9.55-17.51,2.33-34.76,1.86-51.04-.96-53.64-9.34-96.31-44.62-99.28-92.43-.05-.85-.05-1.75-.11-2.65v1.01c0,.27-.05.53-.05.8v.48c-.05.69-.05,1.38-.05,2.07l-.11,1.96c0,.32.05.58.05.85-.05,1.06-.05,2.12-.05,3.18.05,1.7.11,3.45.21,5.2.05.48.05,1.01.05,1.49.05.64.05,1.22.11,1.8v.74c0,.37,0,.74.05,1.11v.37c.05.64.05,1.22.11,1.86.05.64.11,1.33.16,2.07v.11c.05.42.11.85.11,1.22.05.48.11.96.16,1.43.05.48.11,1.01.16,1.49.05.53.11,1.06.16,1.59,0,.05.05.16.05.27.05.64.16,1.27.21,1.91.05.48.11,1.01.21,1.49v.27c.05.42.11.8.16,1.22,0,.21.05.37.05.58v.16l.21,1.33v.11c0,.11.05.16.05.21,1.91,12.95,7.11,25.58,15.81,37.2,22.18,29.45,61.76,45.1,103.15,44.47Z"/><path class="cls-2" d="m409.48,28.41c.37.05.74.11,1.11.16,9.29,1.17,18.41,4.67,27.06,10.45,7.48,5.04,14.59,11.78,21.01,20.32.8,1.06,1.59,2.23,2.39,3.34,4.14,5.89,7.75,12.31,10.82,19.1,8.33,18.31,13.05,39.42,13.95,61.02.37,8.65.16,17.35-.69,26-1.27,13.42-4.03,26.64-8.22,39.16-3.5,10.35-8.01,20.22-13.53,29.24-2.18,3.66-4.51,7.06-6.95,10.24-3.66,4.83-7.59,9.18-11.67,13-14.49,13.42-31.04,20.06-47.49,19.69h0c-.22-.04-.44-.07-.67-.11l.66.11h-.83c.32,0,.74,0,1.01.05,20.53,3.61,42.61-2.23,62.19-17.3,5.09-3.87,9.98-8.38,14.64-13.48,2.87-3.18,5.62-6.53,8.38-10.13h.05v-.05c7.27-9.82,13.32-20.59,18.09-31.94,6.1-14.59,10.08-30.09,11.89-45.69,3.5-29.55-.8-59.43-13.11-83.52-2.81-5.46-6-10.67-9.6-15.44-4.93-6.58-10.35-12.05-16.13-16.55-9.13-7.06-19.1-11.57-29.56-13.69-.16-.05-.37-.11-.58-.16l-3.08-.48c-2.49-.42-4.99-.9-7.48-1.27-1.22-.16-2.44-.32-3.55-.48-.58-.05-1.22-.11-1.86-.16-3.4-.42-6.79-.74-10.24-1.06-.58-.05-1.22-.05-1.8-.11-.96-.11-1.91-.16-2.92-.21-.21,0-.48-.05-.69-.05h-.58c-.85-.05-1.75-.11-2.65-.16-.74-.05-1.54-.05-2.39-.11-1.27,0-2.65-.05-3.98-.05,1.17.05,2.39.11,3.66.16,1.06.05,2.23.11,3.34.16Z"/></g></svg>