<?xml version="1.0" encoding="UTF-8"?><svg id="Graphic_Elements" xmlns="http://www.w3.org/2000/svg" viewBox="0 0 616.68 612"><defs><style>.cls-1{opacity:.9;}.cls-2{fill:#181818;stroke-width:0px;}</style></defs><g class="cls-1"><path class="cls-2" d="m374.99,26.59c1.34.15,2.68.31,4.01.48-1.33-.17-2.67-.33-4.01-.48Z"/><path class="cls-2" d="m458.88,53.65l-7.34-3.95s.02,0,.03.01c-.21-.11-.42-.22-.63-.33-.77-.39-1.54-.77-2.31-1.15.51.25,1.03.48,1.54.74-1.17-.62-2.32-1.22-3.5-1.82l-5.14-2.34c.46.21.9.44,1.36.65-6.29-2.91-12.72-5.55-19.31-7.86-28.17-6.63-57.24-9.41-107.27-10.25,92.7,4.58,124.55,17.8,135.22,22.34,2.47,1.28,4.93,2.59,7.35,3.96Z"/><path class="cls-2" d="m385.08,24.33c-3.62-.88-7.27-1.74-10.38-2.43l-1.94-.4c-10.69-1.68-31.89,1.66-56.45,5.85,2.12-.28,4.23-.54,6.33-.77,40.72-4.64,52.47-3.89,62.44-2.25Z"/><path class="cls-2" d="m355.06,18.54c-3.22-.42-7.2-.88-10.3-1.23-.05,0-.09,0-.14-.01-.59.14-.68.17-28.31,10.05,32.12-8.52,35.29-8.61,39.57-8.7-.26-.04-.55-.07-.82-.11Z"/><path class="cls-2" d="m217.96,579.11c.7.25,1.41.5,2.15.76,5.15,1.73,11.52,3.72,16.46,5.24,5.07,1.46,11.93,3.07,17.06,4.29-66.9-16.34-123.98-53-169.65-108.95l12.85,15.84c1.6,1.8,3.03,3.4,4.35,4.86,4.76,4.95,10.39,10.69,16.11,16.18,3.56,3.24,7.97,7.15,14.06,12.54,3.15,2.52,6.83,5.33,10.6,8.13,32.45,23.93,54.62,32.75,76,41.1Z"/><path class="cls-2" d="m330.85,16.68c-.42-.15-.99-.35-1.41-.5-.03,0-.06,0-.09-.01-3-.14-4.85-.18-5.04-.19-1.69-.03-3.84-.09-5.64-.11,3.4.13,3.49.23,5.03,2.24q-.97,3.49-7.39,9.24c13.63-7.58,14.05-9.01,14.54-10.67Z"/><path class="cls-2" d="m45.78,412.23c53.18,125.57,186.36,173.62,233.39,181.57.23.03.45.06.68.09,2.5.3,5.6.63,7.99.89l4.95.43c.09,0,.17.01.26.02-27.77-2.57-218.63-58.88-261.57-232.16.47,2.57.93,5.07,1.4,7.41,3.19,12.09,8.08,27.88,12.22,39.93.24.63.47,1.21.7,1.83Z"/><path class="cls-2" d="m308.18,18.12c6.6,2.49,6.93,3.92,8.12,9.23,4.82-10.8-5.18-11-14-11.18-3.09.16-7.21.45-10.29.66l-2.93.26c4.52-.3,13.91-.93,19.1,1.03Z"/><path class="cls-2" d="m309.77,596.05c1.11.02,2.2.05,3.32.06h.46c.17,0,.37,0,.55,0,1.25,0,2.49,0,3.73-.01,1.07,0,2.12-.02,3.06-.03.06,0,.11,0,.17,0-22.01-.38-337.18-119.84-286.25-362.5,0,.02-.01.04-.02.06-1.75,6.84-3.44,16.05-4.91,22.94-1.42,8.83-2.57,20.7-3.53,29.58-5.2,217.7,254.59,307.08,283.43,309.89Z"/><path class="cls-2" d="m262.24,20.94c-.6.12-1.2.24-1.81.36,35.46-6.08,50.27,2.68,55.88,6.04-10.04-11.05-27.52-10.85-54.07-6.41Z"/><path class="cls-2" d="m63.11,163.44c-128.03,246.83,230.59,421.11,273.49,431.94.3-.02.59-.04.89-.07l1.88-.15c.3-.02.6-.05.9-.08,2.2-.19,4.8-.46,7.02-.69.28-.03.56-.06.85-.1-50.8-38.62-112.6-59.66-161.58-101.19-23.97-20.32-80.1-67.92-112.9-131.57-65.64-127.35-7.21-208.58,21.45-243.52-1.01,1.17-1.99,2.32-2.96,3.45l-4.84,5.77c-7.58,10.44-17.14,24.72-23.96,35.74-.09.15-.16.29-.24.43Z"/><path class="cls-2" d="m249.14,23.71c.18-.04.35-.09.52-.13-.45.1-.95.2-1.37.3-3.19.71-7.39,1.86-10.54,2.73-6.49,1.81-15.1,4.45-21.4,6.84-3.86,1.46-9.01,3.4-12.81,5.01-4.55,1.94-10.54,4.73-15.02,6.83-4.59,2.15-10.58,5.3-14.95,7.87-5.14,3.01-11.48,6.92-17.13,10.55-57.97,39.87-103.74,103.86-97.4,176.02,14.94,170.18,207.68,286.91,280.24,330.86q25.12,15.21,26.59,21.16c.16-.03.32-.06.48-.09,3.97-.74,9-1.8,12.94-2.62.14-.03.28-.06.42-.09,1.42-.48,2.44-2.52,3.41-3.66-3.29-6.34-9.77-10.92-44.66-33.77-89.77-58.8-180.1-126.43-232.81-222.27C-13.34,112.9,217.44.99,316.31,27.35c-19.18-7.4-42.49-8.23-67.16-3.64Z"/><path class="cls-2" d="m349.49,527.32c54.63,38.6,67.64,47.8,50.37,56.31.18-.05.38-.11.55-.16,2.65-.83,5.69-1.83,8.64-2.82,2.01-.69,4.02-1.4,6.02-2.12,24.45-11.37,3.14-27.08-47.77-64.55-56.34-41.47-126.46-93.08-185.96-168.59C5.71,122.48,193.16,12.19,316.31,27.35,176.37-2.96-124.69,192.26,349.49,527.32Z"/><path class="cls-2" d="m381.61,483.92c63.69,48.84,87.57,67.16,55.95,85.36.25-.12.49-.23.73-.34,5.3-2.53,11.9-6,16.97-8.6,24.67-14.42,14.81-31.15.49-47.07-59.92-66.62-139.5-110.77-200.86-175.74C57.38,128.42,189.88,24.44,316.31,27.35,187.47,15.59-42.6,158.64,381.61,483.92Z"/><path class="cls-2" d="m430.83,443.53c60.7,48.63,82.31,74.76,49.94,101.04,5.55-3.9,12.56-9.4,18.08-13.62,2.79-2.3,5.68-4.77,8.46-7.21,25.19-23.06,11.06-35.52-158.36-184.73C103.37,122.73,214.05,46.35,294.08,30.39c-72.6,13.53-274.98,83.24,136.76,413.14Z"/><path class="cls-2" d="m313.07,27.61c-5.98.54-12.38,1.45-19,2.77,8.53-1.59,15.26-2.4,19-2.77Z"/><path class="cls-2" d="m316.31,27.35c-.2,0-1.34.08-3.23.26,1.09-.1,2.17-.19,3.23-.26Z"/><path class="cls-2" d="m419.52,348.3c100.67,81.01,138.46,118.07,105.7,158.33.23-.23.42-.44.64-.67,5.16-5.53,11.34-12.86,16.18-18.46.1-.12.2-.25.3-.38,28.65-37.57,1.27-77.1-116.92-168.94C117.08,78.62,280.43,33.88,316.31,27.35c-26.15,3.31-245.38,40.41,103.22,320.95Z"/><path class="cls-2" d="m440.35,283.49c113.91,85.08,145.27,128.6,123.95,172.11.86-1.43,1.71-2.86,2.53-4.26l.8-1.37c.58-1,1.11-1.94,1.64-2.89l6.51-12.53c.79-1.61,1.56-3.21,2.31-4.76,25.45-58.32-70.92-128.47-134.9-175.01C234.83,103.2,259.19,47.43,316.31,27.35c-48.77,12.72-134.33,63.16,124.05,256.14Z"/><path class="cls-2" d="m445.91,217.43c99.45,70.06,159.04,116.93,146.64,175.41.6-1.99,1.19-3.97,1.77-5.92,1.98-7.3,3.96-15.49,5.58-22.03,8.53-58.28-51.62-102.68-150.46-170.31-65.29-44.68-186.83-127.83-133.14-167.23-84.22,39.44,76.72,152.82,129.61,190.08Z"/><path class="cls-2" d="m453.19,165.9c112.08,72.7,150.17,105.71,152.17,155.76.06-.99.13-1.98.18-2.96l.36-12.23-.27-11.86c-.05-1.36-.12-2.69-.19-4.04-4.3-52.54-74.34-95.85-162.88-150.57-62.28-38.49-132.87-82.12-126.25-112.64-29.16,30.84,70.77,95.66,136.89,138.55Z"/><path class="cls-2" d="m445.96,119.49c103.23,58.62,142.09,87.07,154.45,130.01-1.56-7.43-4.06-16.84-6.19-24.8-.48-1.65-.96-3.27-1.45-4.92-16.79-43.65-73.03-74.98-170.66-126.35-69.04-36.33-91.79-50.53-105.82-66.07,8.04,23.09,59.05,52.05,129.66,92.14Z"/><path class="cls-2" d="m578.03,181.93c-.41-.87-.84-1.74-1.26-2.63l-5.88-11.6-3.95-6.93c-.73-1.26-1.47-2.52-2.23-3.8-13.31-20.67-37.38-36.06-71.82-54.09-56.89-29.79-117.95-49.81-176.59-75.53,18.29,11.64,51.9,27.08,94.45,46.63,112.88,51.85,147.7,74.28,167.27,107.95Z"/><path class="cls-2" d="m542.84,125.47c-.54-.66-1.03-1.28-1.59-1.97-.35-.42-.69-.84-1.06-1.27-.43-.52-.89-1.05-1.33-1.58-4.27-4.97-9.09-10.31-12.93-14.65-25.23-25.85-95.76-52.32-209.62-78.66,172.7,51.75,206.12,76.03,226.53,98.12Z"/><path class="cls-2" d="m495.47,78.38c-4.22-3.24-8.84-6.63-12.79-9.57-.82-.56-1.63-1.12-2.47-1.68-27.4-17.29-82.49-30.68-163.91-39.78,50.63,7.52,141.22,24.49,182.76,53.96-1.23-1.01-2.41-1.98-3.59-2.93Z"/><path class="cls-2" d="m380.56,27.29c6.76.93,13.43,2.12,19.96,3.63,11.62,1.92,13.04,2.38,21.87,5.25-.25-.1-.53-.22-.77-.31-4.44-1.73-10.44-3.8-14.94-5.4-.04-.01-.08-.02-.11-.04-10.62-3.42-23.1-3.9-37.56-4.45.67.06,1.32.14,1.98.2-7.39-.7-14.9-1.07-22.51-1.05-11.71.57-13.26.7-32.18,2.22,30.07-1.24,43.67-1.03,64.25-.06Zm-5.57-.7c1.34.15,2.68.31,4.01.48-1.33-.17-2.67-.33-4.01-.48Z"/></g></svg>