<?xml version="1.0" encoding="utf-8"?>
<!-- Generator: Adobe Illustrator 28.0.0, SVG Export Plug-In . SVG Version: 6.00 Build 0)  -->
<svg version="1.1" id="Layer_1" xmlns="http://www.w3.org/2000/svg" xmlns:xlink="http://www.w3.org/1999/xlink" x="0px" y="0px"
	 viewBox="0 0 512 512" style="enable-background:new 0 0 512 512;" xml:space="preserve">
<g>
	<g>
		<path d="M256,0C114.6,0,0,114.6,0,256c0,141.4,114.6,256,256,256s256-114.6,256-256C512,114.6,397.4,0,256,0z M400.8,134.5
			c-2.7,14.4-7.8,27.7-17,39.1c-26.6,33.5-61.7,45.9-103.5,39.6c-9.1-1.4-12.8-0.4-12.5,10.1c0.8,25.7,0.5,51.5,0,77.2
			c-0.1,8,2,11.7,10.4,12.2c16,1.1,31.1,6.1,45.3,13.4c23.9,12.4,41.7,29.8,45.3,58.2c1.3,10.3-3.2,16.8-13.1,16.8
			c-66.6,0.2-133.2,0.2-199.8,0c-9.9,0-14.2-5.6-13.2-15.5c1.8-16.8,8.7-31.1,21.2-42.6c19.6-18.1,43.2-27.3,69.3-30.4
			c6.2-0.7,10.6-1.7,10.4-9.8c-0.4-27.6-0.3-55.2-0.1-82.9c0-6-1.9-8.5-8-6.8c-10.8,2.9-21.8,2.2-32.8,1.7
			c-44.3-2-83.6-36.4-91.6-79.2c-1.6-8.9,0.8-15,9.5-17.8c32.9-10.6,64.6-9.3,95.1,8.2c17.6,10,30,24.7,39.8,43.5
			c1.6-2.6,2.7-4,3.5-5.6c24.3-47,82-64.1,131.2-46.9C398.9,120.1,402.5,125.6,400.8,134.5z"/>
	</g>
</g>
</svg>
