<?xml version="1.0" encoding="UTF-8"?><svg id="Graphic_Elements" xmlns="http://www.w3.org/2000/svg" viewBox="0 0 616.68 612"><defs><style>.cls-1{fill:#fff;stroke:#3a3a3a;stroke-miterlimit:10;stroke-width:.25px;}.cls-2{opacity:.9;}.cls-3{fill:#181818;stroke-width:0px;}</style></defs><circle class="cls-1" cx="307.86" cy="306" r="294.13"/><g class="cls-2"><path class="cls-3" d="m293.22,307.47c-.07,0-.15,0-.22-.01,0,.03,0,.06.01.09,0,0,.01.02.02.02.13,0,.26,0,.39.01-.07-.04-.14-.08-.21-.12Z"/><path class="cls-3" d="m293.58,307.23c-.09-.04-.17-.08-.26-.12-.1,0-.2-.02-.3-.03,0,.02-.01.04-.01.07.02.01.04.03.06.04.17.01.34.03.51.04Z"/><path class="cls-3" d="m293,307.31s0,.05,0,.07c.03,0,.07,0,.1,0-.03-.02-.07-.05-.1-.07Z"/><path class="cls-3" d="m293.06,306.96s0,.03-.01.05c.04,0,.08,0,.12.01-.04-.02-.07-.04-.11-.06Z"/><path class="cls-3" d="m293.16,306.69s0,0,0,0c0,0,.02,0,.03,0,0,0-.01,0-.02-.01Z"/><path class="cls-3" d="m295.48,312.19c.18-.13.37-.26.55-.39.04-.04.07-.08.11-.12-.03,0-.06,0-.09,0-.12.08-.24.16-.36.24-.08.09-.15.18-.22.27Z"/><path class="cls-3" d="m293.55,307.95s.03-.05.05-.08c-.07,0-.13,0-.2,0,.05.03.1.06.16.08Z"/><path class="cls-3" d="m293.97,308.65c.12.03.24.05.38.07.41-.06.83-.12,1.23-.18.04-.02.07-.03.11-.05-.18,0-.35,0-.51,0-.4.05-.81.1-1.21.15Z"/><path class="cls-3" d="m293.71,307.71s-.07-.03-.1-.04c-.16,0-.32,0-.49-.01.05.04.1.08.15.12.13,0,.26,0,.39,0,.02-.02.03-.05.05-.07Z"/><path class="cls-3" d="m295.08,308.77c.07-.03.15-.06.23-.1-.19.03-.39.06-.59.09.11,0,.23.01.36,0Z"/><path class="cls-3" d="m294.26,308.41c-.2.02-.4.04-.6.06-.01.02-.03.04-.04.06.04.02.09.04.14.06.33-.04.65-.07.97-.11-.17-.01-.33-.04-.48-.06Z"/><path class="cls-3" d="m296.19,306.84c-.09-.02-.17-.03-.25-.05,0,0-.01,0-.02.01,0,0,.02,0,.03,0,.08.01.16.02.25.03Z"/><path class="cls-3" d="m293.26,306.49s0,0,0,0c-.01.03-.02.05-.04.07.12.02.23.04.34.06-.1-.04-.2-.08-.3-.13Z"/><path class="cls-3" d="m296.26,307.36c-.17-.02-.34-.05-.51-.08-.18,0-.37-.02-.55-.03-.02.01-.03.02-.05.03.07.02.14.04.22.05.3.01.6.02.89.03Z"/><path class="cls-3" d="m296.47,307.08c-.18-.03-.35-.06-.52-.09-.1,0-.19-.02-.29-.03-.01,0-.02.01-.03.02.06.02.13.03.19.05.22.02.43.04.65.05Z"/><path class="cls-3" d="m295.3,307.18s-.02.01-.03.02c.04,0,.09,0,.13,0-.04,0-.07-.02-.1-.02Z"/><path class="cls-3" d="m295.78,307.06c-.09,0-.17-.01-.26-.02-.03.02-.06.04-.09.06.25.02.49.04.74.05-.13-.03-.26-.06-.39-.09Z"/><path class="cls-3" d="m297.14,307.05c-.12-.02-.24-.04-.36-.06-.33-.03-.67-.06-1-.1h-.02c.11.03.22.06.34.08.35.03.69.06,1.04.09Z"/><path class="cls-3" d="m296.17,306.86c-.1-.01-.19-.02-.29-.04-.02.01-.04.02-.06.03.23.03.46.05.69.08-.12-.02-.23-.05-.35-.07Z"/><path class="cls-3" d="m293.78,306.37c.1.04.19.08.29.12.03,0,.06.01.09.02-.12-.04-.24-.08-.35-.13,0,0-.01,0-.02,0Z"/><path class="cls-3" d="m295.09,307.37s-.06,0-.09,0c-.04.03-.08.05-.12.08.21,0,.42.01.62.02-.14-.03-.28-.06-.42-.09Z"/><path class="cls-3" d="m293.71,306.36c-.11-.03-.22-.05-.34-.08-.01.02-.02.04-.03.05.21.05.42.09.63.14-.09-.04-.18-.07-.27-.11Z"/><path class="cls-3" d="m293.41,306.23s0,.01-.01.02c.04,0,.07.02.11.03-.03-.01-.07-.03-.1-.04Z"/><path class="cls-3" d="m294.81,306.56s.02-.02.03-.03c-.11-.03-.22-.06-.32-.09-.36-.08-.72-.17-1.08-.27,0,0,0,0,0,.01.15.06.3.12.45.17.31.07.62.14.93.2Z"/><path class="cls-3" d="m294.46,306.66c-.1-.04-.19-.07-.29-.11-.28-.05-.56-.11-.85-.17,0,.01-.02.03-.03.04.04.02.07.03.11.05.35.07.7.13,1.05.19Z"/><path class="cls-3" d="m302.81,307.97h.01s0,0,0,0c0,0-.01,0-.02,0Z"/><path class="cls-3" d="m294.89,313.85s.03.04.05.07c.01-.01.03-.03.04-.04.03-.08.07-.15.11-.22-.07.07-.13.14-.2.2Z"/><path class="cls-3" d="m294.72,312.12s.04.02.06.04c.02-.04.03-.07.06-.11-.04.02-.07.05-.11.07Z"/><path class="cls-3" d="m294.67,312.89c-.02.06-.03.12-.04.18.05-.04.11-.09.16-.13-.03-.03-.05-.06-.07-.09-.02.01-.03.03-.05.04Z"/><path class="cls-3" d="m356.84,402.07c-.19.3-.38.6-.57.9.07-.11.15-.23.22-.34.12-.19.23-.38.35-.56Z"/><path class="cls-3" d="m298.51,307.06c.26.01.52.02.78.03,0,0,.02,0,.02,0-.36-.01-.72-.03-1.08-.05.09.01.18.02.27.03Z"/><path class="cls-3" d="m297.79,306.97c.11.02.22.03.33.05.4.03.8.05,1.21.06,0,0,0,0,0,0,.07,0,.13,0,.2,0h-.13c-.54-.02-1.08-.06-1.61-.11Z"/><path class="cls-3" d="m294.7,311.66c-.04.07-.08.13-.11.2.16-.09.32-.18.49-.27-.06-.01-.12-.02-.18-.03-.07.04-.14.07-.21.11Z"/><path class="cls-3" d="m302.83,307.96c-.1.05-.2.1-.3.15-.02.01-.05.02-.07.04-.07.04-.15.08-.22.12.17-.09.35-.18.52-.27.05-.02.09-.05.14-.07.04-.02.07-.04.11-.06-.06.03-.12.06-.18.09Z"/><path class="cls-3" d="m295.33,310.68c-.12.05-.23.1-.35.16.05,0,.1,0,.15,0,.06-.05.13-.1.2-.15Z"/><path class="cls-3" d="m302.95,307.9s-.04.02-.05.03c0,0,0,0-.01,0,.02-.01.04-.02.07-.03Z"/><path class="cls-3" d="m295.67,311.65c-.06,0-.12-.01-.17-.02-.07.04-.14.09-.21.13-.07.08-.13.16-.19.25.19-.12.38-.24.57-.36Z"/><path class="cls-3" d="m299.25,307.1s.01,0,.02,0c-.11,0-.22,0-.33-.01.11,0,.21.01.32.02Z"/><path class="cls-3" d="m297.71,307.11c.18.02.37.04.55.05.27,0,.53.01.8.01,0,0,0,0,.01,0-.2,0-.39-.02-.58-.03-.26,0-.52-.02-.77-.03Z"/><path class="cls-3" d="m296.56,307.51c.21.02.42.04.63.05.32-.01.64-.03.96-.04,0,0,.02,0,.02,0-.18,0-.35,0-.53-.01-.36.01-.73.01-1.1.02Z"/><path class="cls-3" d="m297.39,307.77s.09,0,.14-.01c.07-.03.14-.05.2-.08-.35.03-.7.04-1.05.06.23.01.47.02.71.03Z"/><path class="cls-3" d="m297.96,307.59s.05-.02.08-.03c-.12,0-.24.02-.36.02.09,0,.19,0,.29,0Z"/><path class="cls-3" d="m296.91,308.01s.05-.02.07-.03c-.1.01-.19.02-.29.03.07,0,.15,0,.22,0Z"/><path class="cls-3" d="m295.62,307.95c.18.02.38.03.57.04.32-.03.64-.05.95-.08.04-.01.08-.03.12-.05-.13,0-.25,0-.37,0-.42.03-.84.07-1.28.1Z"/><path class="cls-3" d="m298.98,307.2s.02,0,.03,0c-.1,0-.2,0-.3,0,.09,0,.18,0,.27.01Z"/><path class="cls-3" d="m298.02,307.08c.18.02.36.03.54.05.2,0,.39.01.59.01.02,0,.03-.01.05-.02,0,0,0,0-.01,0-.39,0-.78-.02-1.17-.04Z"/><path class="cls-3" d="m295.91,308.33c.1-.01.19-.03.28-.04.1-.04.2-.08.31-.13-.41.05-.83.1-1.25.15.21.01.42.02.65.02Z"/><path class="cls-3" d="m298.82,307.27s.03-.01.05-.02c-.18,0-.35,0-.53,0,.16,0,.32.01.48.02Z"/><path class="cls-3" d="m298.26,307.35c.12,0,.24,0,.36-.01.04-.01.07-.03.11-.04-.34,0-.67.02-1.01.02.18.01.36.03.54.03Z"/><path class="cls-3" d="m297.32,307.4c.2.02.41.03.62.04.16,0,.31-.01.47-.02.02,0,.05-.02.07-.03-.09,0-.18,0-.27,0-.3,0-.59.01-.89.02Z"/><path class="cls-3" d="m293.66,306.92c-.1-.04-.2-.08-.29-.13-.08-.01-.16-.02-.24-.03-.01.03-.02.05-.03.08h.03c.18.04.36.06.53.08Z"/><path class="cls-3" d="m292.8,306.17s0-.02,0-.03c-.04-.01-.08-.02-.13-.03.04.02.08.04.12.06Z"/><path class="cls-3" d="m125,275.14c.24-.79.49-1.58.75-2.37-.22.67-.44,1.35-.65,2.02-.03.11-.07.23-.1.34Z"/><path class="cls-3" d="m292.29,305.88c.07.04.13.09.19.13.11.03.22.06.33.09,0-.03.02-.06.03-.09-.19-.06-.38-.11-.56-.17,0,.02,0,.03,0,.05Z"/><path class="cls-3" d="m292.73,306.54s-.09-.02-.13-.02c.04.03.08.06.12.09,0-.02,0-.04,0-.07Z"/><path class="cls-3" d="m292.35,306.3s0,0,0,0c.04.04.09.08.13.11.08.02.17.03.25.05,0,0,0-.02,0-.03-.05-.03-.1-.06-.15-.09-.08-.02-.16-.04-.24-.05Z"/><path class="cls-3" d="m292.67,306.87s.04.03.06.05c0-.01,0-.03,0-.04-.02,0-.04,0-.05,0Z"/><path class="cls-3" d="m292.7,306.32s.04,0,.06.01c0-.02.01-.05.02-.08-.1-.02-.2-.05-.3-.07.07.05.14.09.22.13Z"/><path class="cls-3" d="m296.61,306.89c.38.04.76.08,1.14.11-.18-.02-.35-.04-.53-.07-.39-.04-.79-.09-1.18-.15.19.04.38.07.57.1Z"/><path class="cls-3" d="m296.3,308.13c-.22,0-.43-.01-.64-.02-.42.04-.86.07-1.29.1.14.03.3.05.46.07.49-.05.98-.1,1.46-.15Z"/><path class="cls-3" d="m293.87,307.5c-.08,0-.17,0-.25-.01.06.03.12.05.19.08.02-.02.04-.05.06-.07Z"/><path class="cls-3" d="m299.18,307.11c-.17,0-.33-.02-.5-.03,0,0-.01,0-.02,0,.1.01.2.02.3.03.08,0,.15,0,.23,0Z"/><path class="cls-3" d="m297.01,306.96c.19.03.39.05.59.08.38.03.76.05,1.14.06-.16-.01-.33-.03-.49-.04-.41-.02-.82-.06-1.24-.1Z"/><path class="cls-3" d="m294.09,308.04s-.06.05-.09.08c.04.01.07.02.11.03.39-.02.77-.05,1.15-.07-.18-.02-.35-.04-.51-.07-.22.01-.44.02-.67.03Z"/><path class="cls-3" d="m292.05,305.93s-.06-.02-.09-.03c0,.01.01.02.02.03.02.03.04.05.07.08.03,0,.05.01.08.02,0-.02-.02-.04-.02-.05-.02-.02-.04-.03-.05-.05Z"/><path class="cls-3" d="m290.6,304.6c.08.04.16.08.23.12-.02-.02-.04-.04-.06-.06-.14-.11-.27-.22-.41-.34-.4-.33-.79-.67-1.16-1.03.43.47.9.91,1.4,1.31Z"/><path class="cls-3" d="m291.85,305.73s.04.07.06.1c.02,0,.04.01.05.02-.04-.04-.08-.08-.12-.12Z"/><path class="cls-3" d="m292.03,305.76s-.02-.01-.03-.02c-.06-.02-.11-.04-.17-.06.08.07.15.13.23.2-.01-.04-.02-.08-.03-.11Z"/><path class="cls-3" d="m322.29,217.5c-.07-.05-.13-.1-.2-.16.09.07.18.14.27.22-.03-.02-.05-.04-.07-.06Z"/><path class="cls-3" d="m292.12,306.1l.04.04s0-.02-.01-.03c0,0-.02,0-.03,0Z"/><path class="cls-3" d="m292.43,306.48s-.02,0-.02,0c.01.03.02.07.04.1.04,0,.08.01.13.02-.05-.04-.09-.08-.14-.12Z"/><path class="cls-3" d="m292.32,306.15s.01.06.02.09c.05.01.09.02.14.03-.05-.04-.1-.08-.16-.12Z"/><polygon class="cls-3" points="292.29 305.94 292.29 305.95 292.3 305.95 292.29 305.94"/><path class="cls-3" d="m292.66,306.17c-.08-.05-.16-.09-.24-.14-.04-.01-.09-.02-.13-.04,0,.02,0,.04,0,.05.02.01.04.03.06.04.1.03.2.05.3.08Z"/><path class="cls-3" d="m292.72,306.73s-.03-.02-.04-.03c-.06,0-.13-.02-.19-.03.03.04.07.08.11.12.04,0,.09.01.13.02,0-.03,0-.05,0-.08Z"/><path class="cls-3" d="m293.55,306.76c.18.03.37.05.55.08-.11-.04-.22-.08-.33-.12-.17-.03-.34-.05-.52-.08.1.05.2.09.3.13Z"/><path class="cls-3" d="m293.81,308.3s-.05.05-.07.08c.09,0,.17-.02.26-.02-.06-.02-.13-.04-.19-.06Z"/><path class="cls-3" d="m297.21,307.31c-.28,0-.56,0-.84-.01.16.02.33.05.49.06.32,0,.64,0,.96,0-.21-.01-.42-.03-.62-.06Z"/><path class="cls-3" d="m296.06,307.25c.27.01.53.01.79.02-.13-.02-.26-.04-.39-.06-.3-.01-.61-.03-.92-.05.17.04.34.06.51.09Z"/><path class="cls-3" d="m294.93,307.51c.15.03.3.06.46.09.33,0,.66-.01.99-.02-.15-.02-.3-.04-.45-.06-.33,0-.67,0-1-.01Z"/><path class="cls-3" d="m296.84,307.62c-.36.01-.72.03-1.09.04.16.02.33.04.5.06.41-.02.83-.03,1.23-.06-.22,0-.44-.02-.65-.04Z"/><path class="cls-3" d="m296.83,307.13c-.24-.01-.48-.03-.72-.05.14.03.28.06.42.08.28.01.56.03.83.04-.18-.02-.36-.04-.53-.07Z"/><path class="cls-3" d="m296.18,306.87c.14.03.28.06.42.08.16.02.33.03.49.05-.21-.03-.42-.06-.63-.09-.09-.01-.19-.02-.28-.03Z"/><path class="cls-3" d="m295.86,307.79c-.36.02-.73.03-1.1.04.15.03.32.06.48.08.4-.02.79-.05,1.18-.07-.19-.01-.38-.03-.56-.05Z"/><path class="cls-3" d="m297.49,307.05c-.2-.01-.4-.03-.61-.05.16.03.32.05.48.07.25.02.49.03.74.04-.21-.02-.41-.04-.62-.06Z"/><path class="cls-3" d="m296.43,307.03c.19.03.39.06.58.08.27.02.54.03.81.04-.13-.02-.27-.03-.4-.05-.33-.02-.66-.04-.99-.07Z"/><path class="cls-3" d="m298.15,307.19c-.27,0-.54-.01-.81-.03.22.03.45.04.68.06.19,0,.38,0,.56,0-.15-.01-.29-.02-.43-.04Z"/><path class="cls-3" d="m297.82,307.25c-.32,0-.65-.01-.98-.03.14.02.28.04.42.06.34,0,.68,0,1.02,0-.15,0-.3-.02-.46-.04Z"/><path class="cls-3" d="m296.56,307.4c-.28,0-.55,0-.83,0,.16.03.32.05.49.07.33,0,.66,0,.99,0-.22-.02-.43-.03-.64-.06Z"/><path class="cls-3" d="m294.19,307.95c.09,0,.17,0,.26-.01-.06-.01-.13-.03-.19-.05-.02.02-.05.04-.07.06Z"/><path class="cls-3" d="m294.18,306.77c.1.03.19.06.29.09.02-.02.03-.03.05-.05-.11-.02-.23-.03-.34-.05Z"/><path class="cls-3" d="m295.49,307.75c-.17-.02-.33-.05-.49-.08-.14,0-.29,0-.43,0-.05.03-.08.06-.13.09,0,0,.02,0,.03,0,.34,0,.69,0,1.02-.02Z"/><path class="cls-3" d="m294.07,307.27s.06-.06.08-.08c-.14-.01-.28-.03-.42-.04.1.04.21.08.32.12,0,0,0,0,0,0Z"/><path class="cls-3" d="m294.67,307.6s.02,0,.03,0c0,0-.01,0-.02,0,0,0,0,0,0,0Z"/><path class="cls-3" d="m293.91,306.68c.22.04.44.07.65.1.02-.02.04-.04.06-.05-.33-.05-.67-.11-1.01-.17.1.04.19.09.29.12Z"/><path class="cls-3" d="m294.33,307s.04-.04.06-.06c-.01,0-.02,0-.03-.01-.2-.02-.41-.05-.61-.07.1.04.21.08.31.12.09,0,.18.02.27.03Z"/><path class="cls-3" d="m296.02,306.74s-.02.01-.04.02c.27.04.54.08.81.11-.26-.04-.52-.09-.78-.13Z"/><path class="cls-3" d="m293.53,307.06c.22.02.45.05.67.07-.12-.04-.24-.08-.35-.12-.19-.02-.37-.04-.56-.06.08.04.16.08.24.11Z"/><path class="cls-3" d="m294.66,306.69s.01-.01.02-.02c-.08-.02-.17-.05-.25-.07-.04,0-.09-.02-.13-.03.1.04.21.07.31.11.02,0,.03,0,.05,0Z"/><path class="cls-3" d="m294.52,306.58c.07.01.15.03.22.04.01-.01.03-.02.04-.04-.2-.04-.41-.08-.61-.12.12.04.23.08.35.12Z"/><path class="cls-3" d="m293.97,307.39c-.06-.02-.12-.04-.18-.07-.19-.01-.38-.03-.57-.04.07.04.15.08.22.12.16,0,.33.02.49.03.01-.01.02-.03.04-.04Z"/><path class="cls-3" d="m296.93,312.02s-.06.06-.09.09c-.1.11-.2.22-.3.34.24-.23.48-.46.73-.68.02-.02.04-.04.06-.06h-.02c-.12.11-.25.21-.37.32Z"/><path class="cls-3" d="m298.72,310.45s.01,0,.02,0c.03-.02.05-.04.08-.06-.03.02-.06.04-.09.07Z"/><path class="cls-3" d="m299.36,309.94c-.19.12-.37.25-.56.38-.06.05-.12.1-.17.14.01,0,.03,0,.04,0,.12-.09.25-.17.37-.26.11-.09.22-.17.33-.25Z"/><path class="cls-3" d="m298.24,310.51s.07,0,.1-.01c.13-.11.27-.22.41-.32-.17.11-.34.22-.51.33Z"/><path class="cls-3" d="m298.02,310.54s.06,0,.1-.01c.11-.08.21-.17.32-.25-.14.09-.28.17-.42.26Z"/><path class="cls-3" d="m299.35,309.64c-.31.18-.63.36-.94.55-.16.12-.32.24-.47.36.28-.18.56-.35.85-.52.18-.13.37-.26.57-.39Z"/><path class="cls-3" d="m299.23,309.96c-.23.15-.46.3-.69.45-.03.02-.06.05-.09.07.03,0,.05,0,.08-.01.05-.04.11-.08.17-.11.17-.14.35-.27.53-.4Z"/><path class="cls-3" d="m300.07,309.59c-.05.04-.1.08-.16.11.26-.18.52-.36.8-.53-.02.01-.05.03-.07.04-.19.12-.38.25-.57.38Z"/><path class="cls-3" d="m298.82,310.43s.03-.03.05-.04c-.02.01-.04.03-.05.04,0,0,0,0,0,0Z"/><path class="cls-3" d="m300.78,309.13c.3-.19.6-.36.9-.54-.12.07-.23.14-.35.21-.18.11-.37.22-.55.33Z"/><path class="cls-3" d="m299.93,309.69c-.07.05-.14.1-.2.14.02-.02.05-.03.07-.05l.27-.19s-.09.06-.14.09Z"/><path class="cls-3" d="m298.75,310.44s.01,0,.02,0c.11-.08.23-.16.34-.24.18-.14.37-.28.56-.41-.18.12-.37.24-.55.37-.13.1-.25.19-.38.29Z"/><path class="cls-3" d="m294.74,313.6s.02.04.04.07c.05-.05.1-.09.15-.14.03-.07.07-.15.1-.22-.09.08-.18.17-.27.25,0,.01,0,.03-.01.05Z"/><path class="cls-3" d="m295,314s0,0,.01.01c.07-.08.14-.16.22-.24.04-.07.08-.14.12-.21-.09.1-.18.19-.27.29-.03.05-.05.1-.08.15Z"/><path class="cls-3" d="m295.09,312.34s.04.02.07.03c.03-.05.06-.1.1-.15-.06.04-.11.08-.16.12Z"/><path class="cls-3" d="m295.41,313.59s.08-.08.12-.12c-.01,0-.02-.01-.03-.02-.03.05-.05.09-.08.14Z"/><path class="cls-3" d="m296.23,312.74s.05-.05.08-.07c.07-.08.13-.17.21-.25-.11.1-.22.21-.33.31.01,0,.03,0,.04.01Z"/><path class="cls-3" d="m294.8,313.41c.09-.08.17-.15.26-.23-.03-.02-.05-.04-.08-.06-.03.03-.07.06-.1.08-.03.07-.06.14-.08.21Z"/><path class="cls-3" d="m295.47,312.5s0,0,.01,0c0,0,.01-.02.02-.03,0,0-.02.01-.03.02Z"/><path class="cls-3" d="m295.19,313.27s-.02-.01-.03-.02c-.02.03-.03.06-.05.09.03-.02.05-.05.08-.07Z"/><path class="cls-3" d="m296.51,312.3c-.15.13-.3.27-.44.4.02,0,.04.01.06.02.06-.06.12-.11.18-.17.07-.08.13-.17.2-.25Z"/><path class="cls-3" d="m295.34,312.39s-.02.03-.04.05c.03.01.06.02.09.03.08-.06.17-.13.25-.19.07-.09.14-.18.21-.27-.17.12-.35.25-.52.38Z"/><path class="cls-3" d="m296.45,312.09c-.16.13-.33.27-.49.41-.04.05-.07.09-.11.14.01,0,.03,0,.04.01.1-.09.21-.18.32-.27.08-.1.16-.19.24-.29Z"/><path class="cls-3" d="m295.96,312.67s.04-.05.06-.07c-.03.02-.05.05-.08.07,0,0,.01,0,.02,0Z"/><path class="cls-3" d="m295.64,312.57s.06.02.09.03c.06-.09.13-.18.2-.26-.1.08-.19.16-.29.24Z"/><path class="cls-3" d="m302.26,308.26c-.1.05-.19.11-.29.17.12-.07.24-.13.36-.2-.01,0-.03.01-.04.02,0,0-.02,0-.02.01Z"/><path class="cls-3" d="m294.73,314.09s-.01-.03-.02-.05c-.03.03-.06.06-.08.09,0,.03,0,.05,0,.08,0,.02,0,.03,0,.05.03-.03.06-.06.09-.1,0-.02.01-.05.02-.07Z"/><path class="cls-3" d="m294.64,314.02s.03-.03.05-.05c0-.03-.01-.05-.02-.08,0,.04-.02.09-.02.13Z"/><path class="cls-3" d="m294.82,313.02c-.07.06-.14.11-.21.17,0,.02,0,.03,0,.05,0,.03.01.06.02.08.04-.03.08-.07.12-.1.02-.07.05-.13.07-.2Z"/><path class="cls-3" d="m294.66,313.4s.01.05.02.07c0-.04.02-.08.03-.12-.02.02-.04.03-.05.05Z"/><path class="cls-3" d="m294.93,311.89c.05-.08.11-.15.17-.23-.18.11-.37.21-.55.32.03.03.06.06.09.09.1-.06.19-.12.29-.18Z"/><path class="cls-3" d="m295.68,310.44c.2-.13.42-.25.65-.38-.6.24-1.21.5-1.83.76.08,0,.17.02.27.02.3-.13.61-.27.91-.39Z"/><path class="cls-3" d="m294.81,313.73l.03.04s.02-.07.04-.1c-.02.02-.04.04-.06.06Z"/><path class="cls-3" d="m295.89,311.71s.04-.03.06-.04c0,0-.01,0-.02,0-.01.01-.02.03-.04.04Z"/><path class="cls-3" d="m294.64,314.44c.01-.05.03-.11.04-.16-.02.02-.03.04-.05.06,0,.03.01.06.01.1Z"/><path class="cls-3" d="m298.38,309.12c-1.03.38-2.07.77-3.15,1.18-.23.12-.41.24-.55.35.79-.32,1.57-.63,2.33-.93.42-.2.88-.4,1.37-.6Z"/><path class="cls-3" d="m294.75,314.2c-.02.06-.04.13-.06.19.04-.04.08-.09.11-.13-.01-.03-.02-.05-.03-.08,0,0-.01.01-.02.02Z"/><path class="cls-3" d="m302.68,308.04s0,0,.01,0c0,0,0,0-.01,0,0,0,0,0,0,0Z"/><path class="cls-3" d="m300.64,308.58c.93-.39,1.84-.76,2.74-1.09.45-.17.91-.35,1.39-.51-.99.34-2,.72-3.03,1.12-.38.16-.74.32-1.09.48Z"/><path class="cls-3" d="m302.87,307.53c.27-.09.55-.18.83-.28-.09.02-.17.05-.26.07-1.89.6-3.88,1.26-5.98,1.98-.61.24-1.13.45-1.56.66,1.47-.54,2.89-1.05,4.27-1.53.85-.31,1.76-.61,2.7-.91Z"/><path class="cls-3" d="m302.56,307.76c.83-.31,1.65-.6,2.46-.87-.06.02-.11.03-.17.05-.35.12-.71.24-1.07.37-.42.15-.83.3-1.22.46Z"/><path class="cls-3" d="m302.55,308.11c.05-.03.1-.06.16-.08-.12.06-.23.12-.35.19.06-.03.13-.07.2-.1Z"/><path class="cls-3" d="m302.64,308.06s0,0,0,0c-.03.02-.06.03-.09.05-.07.04-.14.07-.21.11.1-.05.2-.11.3-.16Z"/><path class="cls-3" d="m302.8,307.98s-.05.03-.07.04c.16-.08.31-.16.47-.23,0,0,0,0,0,0,0,0-.02,0-.02.01-.13.06-.25.12-.38.19Z"/><path class="cls-3" d="m302.35,307.64c-1.14.36-2.15.69-3.04,1,1.26-.42,2.49-.81,3.67-1.18-.21.06-.42.12-.63.18Z"/><path class="cls-3" d="m303.25,307.41c-.13.04-.26.08-.38.12-.12.04-.24.08-.36.12.25-.08.5-.16.74-.24Z"/><path class="cls-3" d="m299.24,308.87c.99-.37,1.95-.71,2.89-1.04.6-.22,1.22-.44,1.89-.66-.97.32-1.97.65-3,1.01-.64.24-1.24.47-1.79.69Z"/><path class="cls-3" d="m301.34,308.16c.72-.27,1.42-.52,2.12-.76.37-.13.76-.27,1.15-.4-.03,0-.06.02-.09.03-.49.16-.99.33-1.5.51-.59.21-1.16.42-1.69.63Z"/><path class="cls-3" d="m304.39,307.06s-.01,0-.02,0c-.16.05-.32.11-.48.16.16-.05.33-.11.49-.16Z"/><path class="cls-3" d="m298.79,309.86c-.36.2-.72.41-1.09.62-.05.04-.11.08-.16.12.04,0,.07,0,.11-.01.16-.1.31-.19.47-.28.22-.15.44-.31.67-.45Z"/><path class="cls-3" d="m302.87,307.88c-.07.03-.15.06-.22.1-.23.11-.46.22-.69.34-.26.13-.51.27-.75.41.47-.25.94-.49,1.41-.72.08-.04.17-.08.25-.13Z"/><path class="cls-3" d="m300.98,308.68c.23-.12.46-.24.7-.36-.27.12-.54.25-.81.38-.2.1-.4.2-.59.3-.16.09-.32.18-.48.28.4-.21.79-.41,1.19-.6Z"/><path class="cls-3" d="m300.28,309c.07-.04.15-.08.22-.12-.63.31-1.27.64-1.91.98-.18.12-.36.24-.53.36.45-.25.89-.5,1.33-.73.29-.17.59-.34.89-.49Z"/><path class="cls-3" d="m297.68,310.36c-.17.1-.34.19-.51.29.05,0,.1-.01.14-.02.12-.09.24-.18.37-.27Z"/><path class="cls-3" d="m300.92,308.93c-.17.1-.34.21-.5.32.24-.14.48-.29.73-.42.09-.06.18-.11.28-.17.04-.02.07-.04.11-.07-.21.11-.41.22-.61.34Z"/><path class="cls-3" d="m297.24,311.7s-.08.08-.12.12c.05-.04.1-.08.14-.12h-.02Z"/><path class="cls-3" d="m297.09,311.7c-.08.08-.16.17-.24.25.1-.09.2-.17.3-.25-.02,0-.04,0-.06,0Z"/><polygon class="cls-3" points="302.09 308.29 302.1 308.28 302.1 308.29 302.09 308.29"/><path class="cls-3" d="m300.47,309.08c-.22.13-.44.27-.64.4.28-.16.56-.32.84-.48.17-.1.33-.2.51-.3-.23.12-.47.25-.7.38Z"/><path class="cls-3" d="m301.69,308.49c.13-.07.26-.14.39-.21-.44.22-.88.46-1.31.7-.2.12-.4.25-.59.37.14-.08.27-.16.41-.24.36-.22.72-.42,1.11-.62Z"/><path class="cls-3" d="m302.22,308.25c.12-.07.25-.13.37-.19-.06.03-.12.05-.18.08-.19.1-.39.2-.58.3-.14.08-.28.15-.41.23-.07.04-.14.08-.21.13.33-.19.67-.37,1-.54Z"/><path class="cls-3" d="m301.85,308.41s.06-.03.09-.05c-.08.04-.17.08-.25.13-.08.04-.16.09-.24.14.13-.07.26-.14.4-.21Z"/><path class="cls-3" d="m298.7,309.7c-.37.19-.75.39-1.13.59-.17.12-.33.23-.48.35.33-.18.66-.37.99-.55.2-.13.41-.26.62-.39Z"/><path class="cls-3" d="m296.69,310.52c.48-.24.97-.49,1.44-.72.22-.13.44-.26.68-.38-.51.23-1.03.48-1.55.73-.2.12-.39.25-.57.37Z"/><path class="cls-3" d="m296.65,310.71c.15-.08.3-.16.45-.24.18-.13.37-.26.57-.38-.42.21-.84.42-1.26.65.08,0,.16-.02.24-.03Z"/><path class="cls-3" d="m295.36,313.38s-.03.03-.05.05c-.05.08-.09.16-.14.24.08-.08.16-.17.24-.25-.02-.01-.04-.02-.06-.04Z"/><path class="cls-3" d="m296.66,311.7s0,0-.01,0c-.01.01-.02.03-.03.04.02-.01.03-.02.05-.04Z"/><path class="cls-3" d="m300.88,308.67c.28-.15.57-.29.86-.43-.67.3-1.35.61-2.03.94-.26.14-.51.29-.75.44.64-.33,1.28-.65,1.91-.95Z"/><path class="cls-3" d="m296.81,311.7s-.04,0-.07,0c-.12.09-.23.18-.35.27-.09.1-.18.2-.27.31.18-.15.36-.29.55-.44.04-.05.09-.09.14-.14Z"/><path class="cls-3" d="m296.09,312.63c.2-.18.41-.36.61-.54.08-.09.16-.18.24-.27-.2.16-.39.33-.58.49-.09.1-.18.21-.27.31Z"/><path class="cls-3" d="m296.92,311.7s-.05.04-.07.06c-.11.11-.22.22-.32.34.16-.13.32-.26.48-.4-.03,0-.06,0-.09,0Z"/><path class="cls-3" d="m296.8,312.11c.1-.1.19-.21.29-.31-.14.12-.29.25-.43.37-.1.11-.21.23-.31.34.15-.14.3-.27.45-.41Z"/><path class="cls-3" d="m296.13,312.11c.09-.11.18-.21.28-.31-.17.12-.33.25-.5.37-.08.1-.16.2-.23.3.15-.12.3-.24.45-.36Z"/><path class="cls-3" d="m296.09,311.95c.12-.09.24-.17.36-.26-.04,0-.08,0-.11,0-.08.09-.16.17-.24.26Z"/><path class="cls-3" d="m296.23,310.65c-.09.04-.18.09-.27.14.03,0,.07,0,.1,0,.06-.04.11-.08.17-.13Z"/><path class="cls-3" d="m300.43,309.02c.51-.26,1.01-.52,1.51-.76.29-.15.59-.29.9-.43-.55.24-1.1.5-1.65.77-.26.14-.52.28-.76.42Z"/><path class="cls-3" d="m299.15,309.32c.84-.39,1.67-.76,2.49-1.11.32-.14.64-.28.98-.42-.86.34-1.74.7-2.63,1.09-.29.15-.58.29-.85.44Z"/><path class="cls-3" d="m302.47,307.77c-.71.26-1.43.54-2.16.82-.38.16-.74.33-1.08.49.71-.3,1.41-.58,2.09-.85.37-.15.75-.31,1.15-.46Z"/><path class="cls-3" d="m297.76,309.84c.58-.27,1.16-.53,1.73-.78.28-.14.58-.28.88-.42-.61.25-1.23.51-1.85.79-.27.14-.53.28-.77.42Z"/><path class="cls-3" d="m302.23,308.26c.25-.13.5-.26.75-.38-.05.02-.09.04-.14.06-.26.13-.51.26-.77.39-.13.07-.26.14-.38.22.15-.09.31-.17.47-.25.02-.01.05-.02.07-.04Z"/><path class="cls-3" d="m301.6,308.38c.46-.22.93-.43,1.39-.63-.22.09-.43.18-.64.27-.25.12-.51.24-.75.36Z"/><path class="cls-3" d="m297.16,309.82c.82-.34,1.63-.67,2.42-.98.45-.19.93-.39,1.43-.59-.91.33-1.85.69-2.8,1.06-.38.17-.73.34-1.05.51Z"/><path class="cls-3" d="m294.94,312.26s.05.03.08.04c.13-.09.26-.18.39-.26.07-.09.14-.18.22-.27-.21.14-.43.28-.64.42-.02.03-.03.05-.05.08Z"/><path class="cls-3" d="m295.03,313.52c-.03.07-.07.14-.1.21.08-.08.16-.15.24-.23.03-.06.06-.12.1-.17,0,0-.01,0-.02-.01-.07.07-.14.14-.22.21Z"/><path class="cls-3" d="m295.53,310.81c.08,0,.16-.01.24-.02.27-.13.54-.26.82-.39.2-.13.41-.26.64-.39-.54.24-1.08.49-1.63.75-.02.02-.04.03-.07.05Z"/><path class="cls-3" d="m301.98,308.4s.05-.03.08-.04c-.19.1-.37.2-.56.31-.05.03-.11.06-.16.1-.02.01-.03.02-.05.03.27-.16.54-.31.82-.46-.04.02-.08.04-.13.06Z"/><path class="cls-3" d="m295.96,310.51c.63-.28,1.24-.56,1.86-.83.28-.15.58-.3.9-.45-.7.29-1.42.59-2.14.9-.22.13-.43.25-.61.37Z"/><path class="cls-3" d="m300.99,308.52c-.28.13-.54.27-.8.41.69-.33,1.38-.63,2.06-.92.22-.1.44-.2.66-.29-.13.05-.27.1-.4.16-.51.21-1.01.42-1.53.65Z"/><path class="cls-3" d="m300.09,309.42c-.13.08-.26.16-.4.24-.16.11-.31.23-.47.34.15-.1.29-.19.44-.29.14-.1.28-.2.42-.29Z"/><path class="cls-3" d="m298.51,310.29c.19-.12.39-.24.58-.36.21-.15.42-.29.64-.43-.24.14-.48.28-.72.43-.17.12-.34.24-.5.37Z"/><path class="cls-3" d="m298.63,309.62c-.21.12-.42.25-.61.37.44-.23.88-.44,1.31-.65.41-.22.84-.44,1.28-.65-.66.29-1.32.6-1.98.93Z"/><path class="cls-3" d="m301.84,308.35s.07-.04.1-.05c-.25.12-.49.24-.73.36-.11.06-.22.12-.33.18.32-.17.64-.33.96-.49Z"/><path class="cls-3" d="m301.21,308.66c.15-.08.3-.17.46-.25-.53.26-1.07.54-1.6.83-.22.13-.43.27-.64.4.32-.18.63-.36.95-.53.27-.16.55-.31.83-.45Z"/><path class="cls-3" d="m300.17,309.31c-.24.14-.47.28-.71.42-.18.13-.36.25-.54.38.24-.15.48-.3.71-.45.17-.12.35-.24.53-.36Z"/><path class="cls-3" d="m300.88,309.05c-.06.04-.13.08-.19.13.18-.11.36-.22.54-.32-.11.07-.23.13-.35.2Z"/><path class="cls-3" d="m300.97,308.94c-.1.06-.19.13-.29.19.18-.11.36-.22.54-.32.22-.13.44-.26.67-.39-.31.17-.62.34-.92.52Z"/><path class="cls-3" d="m300.56,309.18c-.2.12-.39.24-.59.36-.2.14-.4.27-.59.41.23-.15.46-.3.69-.45.16-.11.32-.22.49-.33Z"/><path class="cls-3" d="m300.52,309.24c-.08.06-.16.11-.24.17.14-.09.28-.19.43-.28-.06.04-.13.08-.19.11Z"/><path class="cls-3" d="m299.79,309.36c.19-.12.38-.23.58-.35-.34.17-.68.35-1.02.54-.19.12-.38.25-.56.37.34-.19.67-.38,1-.56Z"/><path class="cls-3" d="m341.01,422.18c.18-.18.35-.37.53-.55-.18.18-.35.37-.53.55,62.53,64.95,136.03,98.9,163.85,75.68l6.4-6.84s.04-.04.05-.06c-2.73,2.85-6.4,4.99-11.06,6.32-33.05,9.45-102.91-25.71-156.04-78.54-.08.09-.17.18-.25.27.08-.09.16-.18.24-.27-36.22-36.02-55.31-70.94-53.32-92.52-2.18,15.73,4.29,45.47,50.12,95.95Z"/><path class="cls-3" d="m348.48,413.75c.16-.19.31-.39.46-.58-.15.19-.31.39-.46.58,59.29,53.15,144.5,93.37,172.19,66.26.35-.44.71-.89,1.07-1.34l4.17-5.37c.14-.19.29-.38.43-.57-2.66,3.2-6.56,5.61-11.77,7.1-33.05,9.45-106.11-21.8-163.19-69.81-.08.11-.17.22-.25.33.08-.11.16-.22.25-.33-37.58-31.6-58.86-62.58-59.59-82.76-.36,15.58,9.76,42.77,56.69,86.49Z"/><path class="cls-3" d="m324.2,219.07c-.05-.05-.11-.09-.16-.14.05.05.11.09.17.13,56.01-75.13,130.25-133.52,152.76-120.14l-7.71-6.16c-19.24-13.74-89.96,38.15-148.92,123.22.08.06.16.12.24.19-.08-.06-.16-.12-.24-.19-13.34,19.97-41.77,66.43-31.61,85.7-3.74-8.06-2.76-29.04,35.48-82.61Zm-1.92-1.56s.05.04.07.06c-.09-.07-.18-.14-.27-.22.07.05.13.1.2.16Z"/><path class="cls-3" d="m272.1,192.14c-.09-.02-.19-.05-.28-.07.09.02.19.05.28.07,13.3-72.33,50.87-138.63,83.92-148.08,4.76-1.36,9.17-1.47,13.19-.44l-6.35-1.52c-1.71-.39-3.48-.78-5.26-1.16-31.35-4.27-74.7,54.21-90.34,150.04.05.01.11.02.16.04-.05-.01-.11-.02-.16-.03-5.74,40.91-4.14,86.62,14.44,106.73-14.16-17.18-18.64-56.45-9.61-105.57Z"/><path class="cls-3" d="m248.51,188.34s-.06,0-.09,0c.03,0,.06,0,.09,0,.27-74.43,27.28-142.43,60.32-151.88,1.86-.53,3.7-.86,5.52-1.01-3.12-.18-6.16-.34-9.02-.48-31.87,1.82-63.38,58.78-61.88,153.15.06,0,.12,0,.19,0-.06,0-.12,0-.19,0,1.7,43.12,12.9,93.28,38.3,111.83-19.86-16.16-33.44-58.3-33.25-111.61Z"/><path class="cls-3" d="m214.65,48.79c-.08.03-.15.06-.23.09l.55-.19c-.11.04-.21.07-.32.11Z"/><path class="cls-3" d="m386.42,567.67l-1,.25c.33-.08.66-.16.99-.25,0,0,0,0,.01,0Z"/><path class="cls-3" d="m565.65,325.23c-33.05,9.45-117.54,12.8-188.73,7.49,0,.26-.01.52-.02.78,0-.26,0-.52.01-.78-49.26-3.68-79.23-10.54-82.07-17.55.1-.13.2-.25.3-.37,4.25,5.52,33.86,9.71,81.67,10.54-.01-.33-.02-.65-.04-.98.02.33.03.65.04.98,71.13,1.23,155.57-5.43,188.62-14.88,9.09-2.6,13.34-5.14,13.25-7.48l-.08-1.87-.11-1.72c-.13-1.96-.28-4-.46-6.1-.52,1.92-4.8,4.12-13.23,6.53-33.05,9.45-117.35,18.49-188.31,20.2,0,.11.02.23.02.34,0-.11-.02-.23-.03-.34-46.52,1.12-75.75-1.2-81.05-5.59.2-.24.4-.48.61-.72,6.75,2.74,35.25,2.58,79.68-1.05,0-.05-.01-.1-.02-.15,0,.05.01.1.02.15,70.54-5.76,154.5-18.1,187.55-27.55,8.32-2.38,12.62-4.35,13.27-5.87-.43-3.47-.91-6.93-1.43-10.26-2.85,6.35-94.92,25.2-200.16,38.48.02.1.03.19.04.29-.02-.09-.03-.19-.05-.28-25.64,3.13-67.37,7.65-78.15,5.41.39-.41.78-.81,1.19-1.19,9.34-.27,35.94-4.18,75.58-11.38-.01-.06-.03-.11-.04-.17.01.06.03.11.04.17,69.35-12.59,152.36-30.46,185.41-39.91,9.26-2.65,13.61-4.35,13.56-5.16-.03-.13-.06-.27-.09-.4l-1.97-8.31c-.07-.29-.15-.58-.22-.87-.16.52-4.56,2.04-13.67,4.64-33.05,9.45-115.52,29.58-184.21,44.96,0,.03.01.06.02.08,0-.03-.01-.06-.02-.08-36.92,8.27-62.34,13.48-72.83,15.06.95-.79,1.94-1.52,2.99-2.21.03-.02.06-.03.1-.05.1-.05.19-.1.29-.15l.46-.21c.14-.06.28-.12.42-.18.08-.03.16-.06.24-.1.01,0,.02,0,.03-.01.41-.16.84-.33,1.29-.5.02,0,.03-.01.05-.02.41-.16.82-.32,1.22-.47,12.69-3.59,34.53-9.79,63.78-18.1-.03-.1-.06-.19-.09-.29.03.1.06.19.09.29,67.61-19.21,149.2-42.45,182.25-51.9,9.39-2.69,13.85-3.97,13.87-3.99l-3.05-9.28c-.11-.3-4.63.81-14.03,3.5-33.05,9.45-113.92,34.87-180.64,56.78.03.08.05.16.08.24l-.08-.24c-35.02,11.5-59.17,19.74-69.45,23.62-1.03-.12-2.04-.29-3.03-.5,7.94-4.56,32.52-15.13,69.96-29.8-.02-.05-.04-.11-.07-.16.02.05.05.11.07.16,65.33-25.6,145.08-54.02,178.13-63.47,8.89-2.54,13.49-3.45,14.2-2.93-.29-.72-.58-1.44-.88-2.17l-2.78-6.55s-.04-.08-.05-.12c-3.16-4.15-93.5,28.22-190.61,70.54.04.09.08.18.12.28-.04-.09-.08-.18-.12-.27-23.24,10.23-60.63,27.21-69.18,34.22-.5-.12-1-.26-1.5-.4,4.16-5.68,28.23-20.24,67.63-40.23-.01-.03-.03-.05-.04-.08.01.03.03.05.04.08,62.55-31.73,140.04-65.12,173.09-74.57,9.27-2.65,14.06-3.14,14.77-1.76l-3.44-6.59s-.05-.09-.07-.14l-.95-1.74s-.03-.06-.05-.09c-.91-1.62-5.77-1.28-14.98,1.36-33.05,9.45-109.48,44.84-170.73,79.05,0,.02.02.03.03.05,0-.02-.02-.03-.03-.05-39.71,22.18-63.27,38.41-65.94,44.51-.11-.03-.21-.07-.32-.1-.12-.05-.24-.1-.35-.16.73-6.67,23.38-25.2,63.07-50.35-.05-.09-.11-.17-.16-.26.05.09.11.17.16.26,59.29-37.57,134.15-75.69,167.19-85.14,9.04-2.58,14.01-2.76,15.26-.87-.03-.04-.05-.09-.08-.13l-5.05-7.93s-.04-.05-.05-.08c-1.44-2.1-6.5-2.05-15.48.51-33.05,9.45-106.69,49.47-164.49,89.39.04.06.08.13.13.19-.04-.06-.09-.13-.13-.19-39.41,27.22-61.28,47.37-60.72,54.43-.12-.06-.25-.12-.37-.17-2.32-7.55,18.29-29.93,57.09-60.01-.04-.05-.08-.1-.11-.16.04.05.08.1.12.15,55.59-43.1,127.44-85.69,160.48-95.14,8.89-2.54,14.06-2.43,15.8-.06l-.99-1.35-4.48-5.86c-.17-.22-.34-.43-.51-.65-2.06-2.37-7.27-2.52-15.88-.06-33.05,9.45-103.54,53.83-157.46,99.13.06.08.12.16.19.24-.06-.08-.13-.16-.19-.24-38.2,32.09-57.82,56.03-54.26,63.9-.07-.03-.14-.06-.2-.1-5.22-8.26,12.89-34.35,50.03-69.19h0s0,0,0,0c51.46-48.27,119.97-95.06,153.02-104.51,8.55-2.45,13.89-2.15,16.21.47-.02-.03-.04-.05-.07-.08l-6.41-7.14c-2.55-2.72-7.95-3.09-16.4-.67-33.05,9.45-100.06,57.9-149.69,108.22,0,0,.01.01.02.02,0,0-.01-.01-.02-.02-36.23,36.74-53.17,64.31-46.82,72.84-.02,0-.04-.02-.06-.03-.04-.03-.07-.05-.11-.08-7.78-8.93,7.43-38.48,42.14-77.71-.07-.07-.14-.14-.22-.21.07.07.15.14.22.21,46.95-53.07,111.8-103.75,144.85-113.2,8.15-2.33,13.6-1.93,16.49.78-.08-.08-.17-.16-.25-.25l-6.31-5.96c-.2-.19-.4-.37-.6-.55-3.11-2.7-8.58-3.11-16.54-.84-33.05,9.45-96.28,61.66-141.24,116.61.05.05.1.09.15.14-.05-.05-.1-.09-.15-.14-32.33,39.51-46.4,69.69-39.47,80.01-.46-.61-.87-1.26-1.22-1.94.58,1.26,1.28,2.21,1.98,2.91-.11-.09-.22-.18-.34-.27.14.12.27.23.41.34.02.02.04.04.06.06-.08-.04-.16-.08-.23-.12-.5-.39-.96-.83-1.4-1.31.37.35.76.7,1.16,1.03-.65-.57-1.31-1.22-1.94-1.97-9.15-12.31-.08-46.42,26.36-90.45,0,0-.02-.01-.03-.02.01,0,.02.01.03.02,36.87-61.42,93.55-118.87,126.6-128.32,6.78-1.94,12.04-1.7,15.79.42-.64-.45-1.29-.9-1.93-1.34l-5.5-3.68c-3.94-2.52-9.46-2.93-16.57-.9-33.05,9.45-87.89,68.13-122.5,131.07-23.35,42.47-31.52,76.02-24.21,90.45-6.6-11.07-8.5-36.34,18.34-94.03-.09-.05-.17-.1-.26-.15.09.05.17.1.26.15,35.29-72.76,100.91-146.99,132.81-133.95-.53-.31-1.06-.61-1.59-.91l-4.92-2.74c-.09-.05-.17-.09-.26-.14l-1.89-1.01s-.02,0-.02-.01c-25.91-11.9-86.34,43.9-128.43,136.39.05.03.11.06.16.09-.05-.03-.11-.06-.16-.09-8.06,18.44-31.56,77.53-12.5,98.85.74.96,1.57,1.8,2.51,2.51-.04-.02-.08-.04-.12-.07-.94-.59-1.92-1.3-2.91-2.16-13.66-13.22-11.99-52.13,6.86-102.18-.07-.03-.14-.07-.21-.1.07.03.14.06.21.1,25.58-67.92,73.1-130.64,106.15-140.09,6.17-1.76,11.4-1.55,15.66.42l-8.32-3.68c-.65-.27-1.31-.54-1.98-.82-4.08-1.45-8.88-1.47-14.37.1-33.05,9.45-78.55,73.06-101.64,142.08.09.04.18.08.27.12-.09-.04-.18-.08-.27-.12-16.19,48.4-17.06,86.6-4.73,101.85-9.83-10.88-18.98-37.81-1.68-104.35-.02,0-.04-.01-.06-.02.02,0,.04.01.06.02,21.48-75.75,71.84-153.71,109.81-144.59-.58-.21-1.15-.42-1.72-.62l-7.5-2.51c-.37-.12-.74-.24-1.11-.35-4.05-1.17-8.6-1.11-13.6.32-33.05,9.45-73.59,74.89-90.56,146.17.04.01.07.02.11.04-.04-.01-.07-.02-.11-.03-12.41,52.15-8.76,92.96,7.03,107.42-1.43-1.13-2.78-2.38-4.06-3.76,1.45,1.76,3,3.29,4.65,4.58-17.17-11.97-30.94-46.05-25.92-112.6-.08-.01-.17-.03-.25-.04.08.01.17.02.25.04,7.52-74.86,41.65-154.01,83.69-151.34l-6.95-.98c-2.15-.26-4.37-.5-6.63-.71-2.51-.02-5.1.34-7.75,1.1-33.05,9.45-63.18,77.16-67.31,151.23.1.01.19.03.29.04-.1-.01-.19-.02-.29-.04-3.14,56.24,9.62,99.97,30.41,113.63-1.43-.8-2.81-1.69-4.16-2.67,3.18,2.59,6.53,4.51,10,5.71.04.05.07.1.11.15h0s0,.02,0,.02c-26.76-8.19-49.86-55.32-55.02-117.7-.05,0-.09,0-.14,0,.05,0,.09,0,.14,0-6.16-74.55,15.63-142.64,48.68-152.09,1.6-.46,3.19-.76,4.78-.94-3.49.13-6.98.3-10.17.51-1.54.17-3.09.48-4.63.92-33.05,9.45-52.6,77.43-43.67,151.85.11,0,.22-.01.32-.02-.11,0-.22.01-.32.02,7.49,62.44,32.66,109.56,60.08,117.52.03.04.05.07.08.11h0c-28.31-7.63-56.33-54.6-67.05-116.96-.9.11-1.8.24-2.69.37.89-.13,1.79-.26,2.69-.37-12.73-74.04,3.74-141.72,36.78-151.17.68-.19,1.36-.36,2.04-.5-2.47.34-4.87.68-7.02.96l-1.6.27c-1.05.18-2.09.41-3.12.71-33.05,9.45-47.34,76.81-31.94,150.45.45-.08.9-.14,1.35-.21-.45.07-.9.15-1.34.22,13.01,62.17,43.03,108.94,71.96,116.31.03.04.06.07.09.11-29.74-6.99-62.53-53.35-78.7-115.11-.03,0-.06.01-.09.02.03,0,.06-.02.09-.02-19.08-72.92-7.76-139.68,25.28-149.13.13-.04.27-.07.4-.11-.11.03-.22.05-.32.08l-5.46,1.36c-1.67.43-3.3.86-4.85,1.27-32.33,10.37-41.19,76.08-19.72,147.7.35-.09.7-.18,1.04-.27-.35.09-.69.19-1.04.28,18.4,61.36,53.14,107.32,83.44,114.02.02.04.04.07.06.11-31.04-6.29-68.45-51.58-89.9-112.2-.08.03-.15.05-.23.07.08-.03.15-.05.23-.08-24.63-69.61-19.1-133.64,12.03-145.31l-7.84,2.8c-.58.22-1.16.43-1.72.64-30.49,12.23-33.83,75.18-6.95,143.47.27-.1.54-.2.81-.3-.27.1-.54.2-.81.31,23.6,59.97,62.88,104.68,94.43,110.68,0,0,0,.02.01.02l.05.09c-32.23-5.55-74.06-49.34-100.61-108.27-.12.05-.23.1-.35.15.12-.05.23-.11.35-.16-29.73-66.01-29.5-127.07-.4-140.42-.11.05-.22.1-.32.15l-6.33,2.93-1.94.95c-.28.14-.56.28-.84.42-28,14.12-26.08,73.72,5.57,137.99.2-.1.41-.2.61-.3-.2.1-.4.2-.61.3,28.61,58.09,72.23,101.13,104.92,106.35l.04.07s.01.02.02.03c0,0,0,0,0,0h0c-33.31-4.73-79.37-46.62-110.79-103.38-.15.09-.31.17-.47.26.15-.09.31-.18.46-.27-33.68-60.84-38.81-117.56-13.68-133.6-.13.08-.27.15-.4.22l-7.31,4.34c-25.25,15.62-18.52,71.56,17.36,131.43.15-.09.29-.18.44-.27-.15.09-.29.18-.44.27,33.39,55.72,81.14,96.7,114.88,101.08.03.04.05.08.08.11-34.3-3.88-84.36-43.48-120.42-97.6-.19.13-.38.26-.57.4.19-.13.38-.27.56-.4-31.06-46.94-50.51-104.41-24.01-127.04-.34.23-.67.47-1,.69l-6.54,4.79c-.44.34-.88.67-1.33,1.02-21.29,17.31-10.01,68.74,29.09,123.29.1-.07.19-.14.29-.22-.1.07-.19.15-.29.22,37.92,52.9,89.58,91.44,124.27,94.93,0,0,.02.02.03.03,0,.03.02.06.03.08-35.19-2.97-89-39.92-129.41-90.95-.22.19-.44.37-.66.56.22-.19.44-.38.66-.57-41.37-52.25-54.82-101.74-34.46-118.98l-7.32,6.47c-.19.17-.37.34-.55.51-18.66,17.67-3.58,65.17,38.82,115.11.05-.05.11-.1.16-.15-.05.05-.11.1-.16.15,42.13,49.61,97.41,85.34,132.95,87.93.01.03.02.06.04.09v.02c-35.98-2.05-93.24-35.99-137.68-83.49-.25.26-.5.51-.75.77.25-.26.5-.52.75-.78-34.21-36.85-63.72-85.08-44.06-110-.2.21-.4.42-.61.63l-4.53,4.83c-.82.89-1.63,1.78-2.42,2.66-14.66,18.2,3.92,60.93,48.41,105.31.02-.02.03-.04.05-.06-.02.02-.03.04-.05.06,46.03,45.92,104.66,78.51,140.96,80.16.02.03.03.05.04.08,0,.01.01.03.02.04-36.7-1.08-97.14-31.7-145.29-75.29-.28.35-.57.7-.85,1.05.28-.35.56-.71.84-1.06-45.6-41.28-65.94-81.31-53.3-99.46-2.06,2.63-4.14,5.35-6.01,7.77-11.58,17.91,9.91,56.18,56.41,95.41.52-.69,1.05-1.38,1.58-2.06-.53.68-1.06,1.37-1.58,2.06,49.59,41.84,111.27,70.99,148.24,71.65.02.04.04.08.06.12-37.32-.07-100.63-27.08-152.12-66.38-.33.5-.66,1-.99,1.5.33-.5.65-1.01.99-1.5-48.47-37-71.4-73.4-59.89-90.52l-5.23,8.14c-.06.1-.12.19-.18.29-10.25,16.86,13.68,51.32,62.73,86.09.43-.7.87-1.4,1.32-2.09-.44.69-.88,1.39-1.31,2.09,52.78,37.41,117.2,62.83,154.75,62.46.03.04.07.08.11.12-37.84.99-103.72-22.13-158.19-56.82-.39.72-.78,1.44-1.16,2.16.38-.73.76-1.45,1.15-2.16-49.61-31.59-74.8-63.27-66.43-79.67-.08.15-.16.3-.24.45l-2.88,5.46-1.26,2.5c-7.9,15.86,18.12,45.88,68.59,75.54.3-.6.6-1.19.91-1.79-.31.59-.61,1.19-.91,1.79,55.61,32.68,122.49,54.09,160.51,52.64.03.02.06.04.09.06,0,.02-.01.04-.02.06-38.26,2.07-106.38-16.89-163.43-46.65-.35.8-.69,1.61-1.02,2.42.33-.81.67-1.62,1.02-2.42-29.56-15.76-78.15-45.7-71.52-69.22l-3.47,8.44c-.15.39-.3.77-.45,1.16-4.92,14.67,22.72,39.89,73.59,64.11.18-.46.37-.92.55-1.38-.18.46-.36.92-.54,1.38,57.94,27.59,126.81,44.74,165.24,42.25,0,.03-.02.06-.03.09l.02.04c-38.64,3.1-108.46-11.46-167.54-35.95,0,.01,0,.03-.01.04,0-.01,0-.03.01-.04-23.99-10.07-79.35-35.85-75.77-58.02-.11.34-.23.67-.34,1l-2.55,8.31c-3.82,13.08,25.15,34.08,77.2,53.42.11-.38.23-.77.34-1.15-.11.38-.22.77-.34,1.15,59.81,22.23,130.26,34.88,169.02,31.32l.05.12c-38.9,4.21-110.12-5.74-170.83-24.74-.01.06-.03.12-.05.19.01-.06.03-.13.04-.19-52.22-16.34-81.74-34.7-78.93-46.79,0,.01,0,.03-.01.04l-1.42,6.67c-.25,1.23-.49,2.47-.72,3.71-.78,11.32,28.89,27.39,80.03,41.28.06-.32.13-.65.2-.97-.06.32-.13.65-.19.97,61.24,16.63,132.92,24.6,171.9,19.92l.05.12s0,0,0,0c-39.07,5.33-111.28.18-173.12-13.09-.02.12-.04.23-.05.35.02-.12.03-.23.05-.35-52.34-11.22-82.53-25.1-81.05-35.36l-1.19,9.87c-.17,5.82,10.21,17.52,81.63,30.57.03-.27.06-.54.09-.8-.03.27-.05.54-.08.81,62.19,10.81,134.7,13.91,173.81,8.1.05.04.13.07.23.1-39.1,6.51-112,6.33-174.59-1.01,0,.18-.02.35-.03.53,0-.18.01-.35.02-.53-36.25-4.44-79.9-12.17-82.14-23.79,0,.12-.01.24-.02.36l-.31,9.72c.25,4.53,11.28,13.01,82.3,18.94,0-.22.01-.43.01-.64,0,.21,0,.43,0,.64,62.83,4.81,136.02,2.85,175.06-4.18.07,0,.16,0,.24,0-.09.05-.18.09-.25.13-39.03,7.68-112.18,12.64-174.96,11.43.02.41.03.82.04,1.23-.02-.41-.04-.82-.05-1.23-35.74-.79-79.01-3.54-82.21-12.1l.1,2.37v.21c.23,2.5.43,5.32.65,8.2,2.47,4.97,32.37,7.73,81.77,6.64,0-.09-.01-.18-.02-.27,0,.09.01.18.02.27,62.5-1.38,135.35-8.47,174.42-16.6-.09.06-.13.11-.12.15,0,0,0,0,0,0,0,0,0,0,0,0h0s0,.02,0,.02c-39.03,8.78-111.48,18.84-173.55,23.79,0,.08.02.15.03.23-.01-.08-.02-.15-.03-.23-50.82,4.05-80.81,3.58-81.26-.54l1.44,9.92c.48,3.24,30.19,1.92,80.57-4.18-.02-.1-.03-.21-.05-.31l.05.31c61.71-7.48,133.87-19.64,172.83-28.89,0,.01.01.03.02.05,0,.03.02.06.03.08-38.83,9.9-110.45,24.96-171.51,35.92,0,.01,0,.03,0,.04,0-.01,0-.03-.01-.04-47.94,8.6-76.81,12.43-79.18,10.85.74,3.04,1.54,6.26,2.39,9.55,3.12.48,31.41-5.01,77.98-15.34,0-.01,0-.02,0-.04,0,.01,0,.02,0,.04,60.48-13.42,131.63-30.53,170.35-40.89,0,.02.01.04.02.07l.02.06c-38.55,10.98-108.9,30.91-168.44,47.7.03.1.06.2.09.3-.03-.1-.06-.2-.09-.3-46.3,13.06-74.04,20.84-76.36,21.42.94,3.21,1.91,6.34,2.89,9.27.69-1,28.14-10.49,75.07-25.8-.02-.06-.04-.12-.06-.18.02.06.04.12.06.18,60.78-19.83,133.28-42.58,170.72-53.63.92-.26,1.99-.56,3.22-.91-36.25,11-110.17,37.36-171.43,61.24.03.08.06.15.09.23-.03-.08-.06-.15-.09-.23-46.2,18-72.84,29.77-72.84,31.79.15.37.3.74.45,1.12l3.31,7.82s.02.04.03.06c-1.13-2.52,24.94-15.97,71.03-36.1-.04-.09-.08-.19-.12-.28.04.09.08.19.12.28,58.32-25.47,128.67-52.86,165.9-64.78-.99.34-1.76.63-2.31.87-37.52,12.84-104.93,42.24-160.56,70.33.01.02.02.04.03.07-.01-.02-.02-.04-.03-.06-45.04,22.74-70.09,38.42-68.29,41.91l3.67,7.05.13.23c.19.33.39.67.59,1.01-1.23-4.59,22.92-21.63,66.25-45.72-.02-.04-.04-.08-.07-.13.02.04.04.08.07.12,54.13-30.09,120.08-61.12,157.53-74.49-.18.1-.29.19-.33.26-37.2,13.99-101.45,47.38-153.66,80.33.05.08.1.16.15.24-.05-.08-.1-.16-.15-.24-42.03,26.52-64.99,45.65-63.09,51.2.34.58.68,1.15,1.02,1.71l4,6.3c.1.15.2.31.31.46-2-4.67,6.92-18.09,60.46-55.42-.03-.04-.06-.09-.09-.13.03.04.06.09.09.13,50.88-35,113.98-70.08,150.95-84.47l.03.12s0,0,0,0c-36.61,14.93-98.07,52.33-146.99,90.11.05.07.1.14.15.21-.05-.07-.1-.14-.15-.21-40.55,31.32-61.29,54.25-56.79,60.73.23.32.46.64.69.95l.45.61c.07.1.14.19.21.28l3.91,5.13c.16.2.32.41.48.61-4.87-7.18,14.82-31.46,54.07-64.32-.06-.08-.12-.15-.18-.23l.18.23c47.44-39.7,107.65-78.71,143.99-94.01.01.04.02.09.03.13-35.94,15.81-94.33,56.98-139.59,99.27.02.03.04.05.06.07-.02-.02-.04-.05-.06-.07-26.43,25.06-56.5,57.48-49.73,69.62.03.03.05.06.08.09l5.78,6.47c.13.14.26.28.39.43-6.77-8.26,10.21-35.92,46.8-72.89-.05-.05-.09-.1-.14-.15.05.05.09.1.14.15,43.64-44.08,100.65-86.73,136.29-102.9,0,.01,0,.02,0,.03,0,0,0-.01,0-.02,0,.02,0,.03,0,.04,0,.02.02.04.03.06-35.2,16.64-90.23,61.29-131.5,107.76.06.06.12.12.18.18-.06-.06-.12-.12-.19-.18-35.03,39.45-50.26,69.08-42.12,77.74.29.29.59.57.88.86l5.67,5.38c.13.12.27.24.4.37-8.79-9.13,5.16-40.01,38.77-80.93-.03-.03-.06-.06-.09-.09.03.03.06.06.1.09,39.52-48.13,93.09-94.15,127.96-111.11.03.03.07.06.12.08-34.39,17.37-85.86,65.24-122.87,115.58.07.06.14.12.21.17-.07-.06-.14-.11-.21-.17-32.2,43.81-44.13,76.81-33.27,85.77l7.69,6.17c-11.83-9.13-1.35-43.41,29.44-88.85-.07-.06-.14-.12-.22-.17.07.06.15.11.22.17,35.12-51.81,85-100.91,119.03-118.59-.03.06-.05.12-.07.18-33.51,18.14-81.04,68.8-113.4,122.5.03.02.07.05.1.07-.03-.02-.07-.05-.1-.07-28.48,47.25-36.91,83.06-24.19,92.7.36.25.71.5,1.07.75l7.61,5.12c-8.34-6.48-16.87-27.55,19.6-95.82-.07-.04-.14-.09-.21-.14.07.04.14.09.21.13,30.35-54.97,76.16-106.69,109.28-125.14,0,.03-.01.05-.01.08v.07c-32.55,18.85-75.92,71.95-103.4,128.58.06.04.13.07.19.11-.06-.04-.13-.07-.19-.11-25,51.51-29.34,90.43-13.51,99.54l7.15,4,1.68.9c-16.9-8.96-14.33-49.02,8.99-102.04-.03-.02-.06-.03-.09-.05.03.02.06.03.09.05,25.39-57.74,66.98-111.76,99.12-130.87l.02.13c-31.54,19.46-70.59,74.66-92.98,133.81.09.04.17.08.26.12-.09-.04-.17-.08-.26-.12-20.51,54.15-20.85,95.24-3.36,104.83.67.32,1.34.64,2,.96l7.37,3.27c.08.03.16.07.24.1-18.88-9.02-20.54-51.29-1.74-107.16-.08-.03-.16-.07-.24-.1.08.03.16.07.24.1,20.21-60.06,57.4-116.02,88.5-135.72v.09s.02.02.02.04c-30.45,20.01-65,76.91-82.11,138.1.05.02.09.03.14.05-.05-.02-.09-.03-.14-.05-7.51,28.03-21.61,94.75,9.31,110.14,1.1.41,2.18.8,3.22,1.17l6.27,2.11c.17.05.34.11.51.16-10.97-4.65-34.02-24.85-14.64-111.99-.09-.03-.17-.06-.26-.09.09.03.17.06.26.08,14.85-61.9,47.48-119.39,77.46-139.6.01.04.02.08.04.12-29.3,20.47-59.22,78.67-70.87,141.41.05.01.1.03.16.04-.05-.01-.1-.03-.16-.04-8.7,47.34-7.63,101.69,21.08,113.74,2.89.74,5.81,1.46,8.69,2.13-22.93-8.32-33.89-54.1-24.95-114.72-.03,0-.05-.01-.08-.02.03,0,.05.01.08.02,9.33-63.23,37.26-121.84,66.06-142.48,0,.05-.02.11-.02.16-28.06,20.88-53.17,79.9-59.22,143.63.1.02.19.03.29.05-.1-.02-.19-.03-.29-.04-4.32,50.93,2.8,108.42,35.71,117.07l10.79,1.54c-28.72-5.67-44.25-49.75-41.54-117.9-.08-.01-.16-.02-.24-.03.08.01.16.02.24.03,3.68-63.97,26.75-123.2,54.27-144.23,0,.02,0,.03,0,.05,0,0,0,.01,0,.02,0,0,0,0,0,0v.09c-26.73,21.21-46.93,80.59-47.28,144.75.06,0,.12,0,.17.01-.06,0-.12,0-.17-.01-.36,66.55,20.77,115.7,48.87,118.6,3.08.18,6.37.3,9.54.41-28.29-3.43-51.23-52.49-53.36-118.77-.1,0-.2,0-.3-.01.1,0,.2,0,.3,0-2.06-64.18,16.07-123.57,42.24-144.88v.14c-25.34,21.44-40.57,80.7-35.16,144.73.06,0,.11,0,.17,0-.06,0-.11,0-.17,0,5.86,69.38,33.89,119.89,64.39,118.94l11.1-.57c-31.17,2.25-61.95-48.54-70.49-118.63-.11,0-.23.01-.34.02.11,0,.23-.02.34-.02-7.77-63.8,5.42-122.87,30.18-144.37v.02s.01.07.01.11c-23.92,21.55-34.31,80.22-23.31,143.55l.34-.04c-.11.02-.23.03-.34.05,12.08,69.55,45.67,119.96,77.09,117.96,1.4-.17,2.82-.34,4.25-.53l6.29-.92,2.12-.35c-32.38,5.53-69.84-45.53-84.9-116.89-.05,0-.1.02-.15.02.05,0,.1-.02.15-.03-13.27-62.87-4.85-121.17,18.47-142.73,0,.02,0,.05,0,.07,0,.02,0,.04,0,.06-22.47,21.56-28.19,79.19-11.83,141.27.09-.02.17-.04.26-.06-.09.02-.17.04-.26.06,18.54,70.34,58.64,120.69,91.12,115.63,2.09-.48,4.28-.98,6.46-1.5l5.05-1.27c-32.9,7.73-76.45-42.76-97.95-114.03-.09.03-.18.05-.27.07.09-.02.18-.05.27-.07-18.52-61.4-14.7-118.44,7.15-139.98,0,.03,0,.07,0,.1v.04c-20.98,21.48-22.2,77.6-.75,137.9.05-.02.1-.03.15-.05-.05.02-.1.03-.15.05,25.32,71.16,72.63,121.19,105.68,111.74.42-.12.83-.25,1.24-.38l10.04-3.6c-.76.29-1.53.55-2.32.77-33.05,9.45-82.36-39.85-110.15-110.13-.1.04-.21.08-.31.11.1-.04.21-.08.31-.12-23.49-59.41-24.08-114.78-3.73-136.2v.13c-19.47,21.28-16.43,75.5,9.83,133.54.11-.05.22-.1.33-.15-.11.05-.22.1-.33.15,31.16,68.88,83.21,117.05,116.26,107.6.83-.24,1.64-.51,2.43-.82.93-.4,1.84-.8,2.75-1.2l5.09-2.36c.72-.35,1.48-.73,2.24-1.11-1.27.58-2.6,1.08-3.99,1.47-33.05,9.45-87-37.82-120.52-105.59-.12.06-.23.11-.34.17.12-.06.23-.12.34-.17-28.17-56.96-32.93-110.27-14.1-131.43,0,.04,0,.09,0,.13-17.93,20.96-10.86,72.89,19.89,128.22.23-.13.46-.27.7-.4-.23.13-.46.27-.69.4,36.71,66.06,93.26,111.96,126.31,102.5,1.71-.49,3.32-1.12,4.84-1.88.78-.43,1.55-.87,2.3-1.29l7.8-4.64s.02-.01.03-.02c-27.54,15.26-85-13.58-137.25-97.07-.07.04-.13.08-.2.12.07-.04.13-.08.2-.12-27.59-47.54-37.9-88.77-29.74-113.59-6.46,24.43,5.9,66.18,35.19,109.99.22-.15.44-.31.66-.47-.22.16-.43.31-.65.47,41.95,62.75,102.74,105.95,135.79,96.5,3.03-.87,5.71-2.14,8.07-3.8l.64-.45,5.2-3.82c.43-.32.86-.64,1.29-.97-2.24,1.51-4.79,2.69-7.65,3.51-33.05,9.45-95.53-32.51-139.56-93.73-.07.06-.15.11-.22.16.07-.06.14-.11.22-.17-32.37-45.01-45.75-87.89-37.43-111.2.4-.91.84-1.79,1.3-2.65-9.41,22.09,5.58,64.9,41.21,109.75.2-.17.4-.35.6-.52-.2.17-.4.35-.6.52,46.84,58.95,111.6,99.08,144.64,89.63,3.8-1.09,7.01-2.78,9.65-5.02.03-.03.07-.06.1-.09l6-5.32c.23-.21.47-.42.7-.64-2.58,2.14-5.72,3.78-9.45,4.85-33.05,9.45-99.37-29.29-148.14-86.53-.08.07-.16.14-.24.21.08-.07.16-.15.23-.22-37.68-44.23-53.85-86.55-44.01-107.87.33-.56.67-1.11,1.03-1.64-1.33,2.65-2.14,5.67-2.45,9,.5-3.62,1.46-6.5,2.51-8.72-1.21,2.86-1.74,6.13-1.61,9.75.05-2.26.33-4.28.74-6.07-2.99,18.87,19.93,50.92,62.66,83.43.13-.2.26-.39.39-.59-.13.2-.26.4-.39.59,73.98,55.22,157.85,81.43,179.63,56.17.2-.3.4-.6.6-.9l4.72-7.37s.05-.08.07-.12c-19.39,25.71-104.64,1.51-182.45-51.79-.08.13-.16.26-.24.39.08-.13.16-.26.24-.39-16.41-11.68-65.61-49.13-64.75-77.52.76,17.49,25.39,44.65,68.09,71.74.11-.2.21-.4.32-.59-.11.2-.21.4-.32.6,62.45,39.62,139.85,64.08,172.9,54.63,6.25-1.79,10.46-4.66,12.76-8.41.5-.91.99-1.82,1.47-2.72l1.66-3.14c.21-.4.41-.8.61-1.19l1.17-2.33c-2.05,4.13-6.41,7.31-13.25,9.26-33.05,9.45-111.45-13.1-175.11-50.36-.08.15-.15.3-.23.45.08-.15.15-.3.23-.46-45.69-26.74-71.37-53.8-70.02-70.44.12-.75.28-1.49.48-2.22-2.94,15.51,23.91,41.37,72.36,66.54.08-.2.17-.39.25-.59-.08.2-.16.4-.25.59,65.23,33.89,144.89,53.69,177.94,44.24,7.04-2.01,11.39-5.19,13.25-9.27.09-.2.17-.39.25-.58l3.3-8.07c.07-.17.13-.34.2-.51-10.73,22.09-97.23,13.7-193.11-30.3-.07.17-.14.35-.21.52.07-.17.13-.35.2-.52-27.53-13.28-71.64-37.79-73.8-59.32,2.52,13.86,30.14,33.92,76.09,52.88.06-.19.13-.39.19-.58-.06.19-.12.39-.19.58,67.51,27.85,149.03,42.76,182.07,33.31,7.61-2.18,11.98-5.46,13.39-9.56.1-.29.19-.58.29-.87l1.98-6.49c.13-.46.27-.92.4-1.39-1.48,3.73-5.78,6.77-13.16,8.88-33.05,9.45-115.21-3.35-183.52-28.6-.06.2-.12.39-.17.59.06-.2.11-.39.17-.59-49.18-18.17-77.76-37.84-77.58-50.96.04-.58.12-1.15.24-1.72-1.69,12.06,27.72,30,79.08,45.97.04-.19.09-.37.13-.56-.04.19-.08.38-.12.56,69.27,21.54,152.21,31.33,185.26,21.88,8.11-2.32,12.46-5.58,13.39-9.5l2.05-9.68c-3.75,18.9-96.61,19.1-199.65-7.6-.04.22-.09.44-.13.65.04-.22.08-.44.13-.65-50.81-14.24-77.64-27.73-79.83-40.11,2.37,9.98,31.97,22.73,80.97,33.14.02-.18.05-.36.07-.54-.02.18-.04.36-.07.54,70.48,14.98,154.39,19.46,187.44,10.01,8.51-2.43,12.81-5.55,13.32-9.1l1.09-9.14c.02-.18.03-.37.05-.55-3.29,15.99-96.38,20.84-201.29,3.7-.02.24-.05.48-.08.72.03-.24.05-.48.07-.72-35.89-6.41-78.86-16.75-81.56-29.75,0-.01.02-.02.03-.04,1.87,8.01,31.98,16.81,82.06,22.59,0-.17.02-.34.03-.5,0,.17-.01.34-.02.5,71.1,8.2,155.53,7.19,188.58-2.27,8.45-2.42,12.72-5.15,13.21-8.02.03-.46.05-.93.07-1.38l.27-8.93s0-.07,0-.1c-.11,2.72-4.37,5.44-13.24,7.98Zm-273.64-19.49s.02.01.03.02c.01.04.02.08.03.11-.08-.06-.15-.13-.23-.2.06.02.11.04.17.06Zm-.09.09s-.04-.07-.06-.1c.04.04.08.08.12.12-.02,0-.04-.01-.05-.02Zm.13.18s-.05-.05-.07-.08c0,0-.01-.02-.02-.03.03,0,.06.02.09.03.02.02.04.04.05.05,0,.02.01.04.02.05-.03,0-.05-.01-.08-.02Zm.08.08s.02,0,.03,0c0,.01,0,.02.01.03l-.04-.04Zm.17-.15s0,0,0,0c0,0,0,0,0,0h0Zm0,.06s.09.02.13.04c.08.05.16.09.24.14-.1-.02-.2-.05-.3-.08-.02-.01-.04-.03-.06-.04,0-.02,0-.04,0-.05Zm.04.24s-.01-.06-.02-.09c.05.04.1.08.16.12-.05-.01-.09-.02-.14-.03Zm.11.35s-.02-.07-.04-.1c0,0,.02,0,.02,0,.04.04.09.08.14.12-.04,0-.09-.01-.13-.02Zm.15.2s-.07-.08-.11-.12c.06.01.13.02.19.03.01.01.03.02.04.03,0,.03,0,.05,0,.08-.04,0-.09-.01-.13-.02Zm0-.27s.09.02.13.02c0,.02,0,.05,0,.07-.04-.03-.08-.06-.12-.09Zm.07.36s.04,0,.05,0c0,.01,0,.03,0,.04-.02-.02-.04-.03-.06-.05Zm.06-.4c-.08-.02-.17-.03-.25-.05-.05-.04-.09-.08-.13-.11,0,0,0,0,0,0,.08.02.16.04.24.05.05.03.1.06.15.09,0,0,0,.02,0,.03Zm.02-.14s-.04,0-.06-.01c-.07-.04-.15-.09-.22-.13.1.02.2.05.3.07,0,.03-.01.05-.02.08Zm.04-.16s-.08-.04-.12-.06c.04.01.08.02.13.03,0,.01,0,.02,0,.03Zm.02-.08c-.11-.03-.22-.06-.33-.09-.07-.04-.13-.08-.19-.13,0-.02,0-.03,0-.05.19.06.37.12.56.17-.01.03-.02.06-.03.09Zm-167.82-30.95c.03-.11.07-.23.1-.34.21-.68.43-1.35.65-2.02-.26.78-.51,1.57-.75,2.37Zm172.75,31.86c-.38-.03-.76-.07-1.14-.11-.19-.03-.38-.06-.57-.1.39.06.79.11,1.18.15.17.02.35.05.53.07Zm.99.09c-.38-.01-.76-.03-1.14-.06-.2-.02-.39-.05-.59-.08.41.04.83.07,1.24.1.16.01.33.03.49.04Zm-.09-.02s.01,0,.02,0c.17.01.34.03.5.03-.08,0-.15,0-.23,0-.1,0-.2-.02-.3-.03Zm-4.54,1.07s-.08-.02-.11-.03c.03-.03.06-.05.09-.08.22-.01.44-.02.67-.03.16.03.33.05.51.07-.38.03-.77.05-1.15.07Zm1.56-.04c.2.01.41.02.64.02-.48.05-.97.1-1.46.15-.16-.02-.32-.04-.46-.07.43-.03.86-.06,1.29-.1Zm-1.8-.61s-.04.05-.06.07c-.07-.03-.13-.05-.19-.08.08,0,.17,0,.25.01Zm-.43-.1c-.08-.04-.15-.08-.22-.12.19.01.38.03.57.04.06.02.12.05.18.07-.01.01-.02.03-.04.04-.16,0-.33-.02-.49-.03Zm.37.9c.06.02.12.04.19.06-.09,0-.17.02-.26.02.02-.03.05-.05.07-.08Zm-.08-1.15c.14.01.28.03.42.04-.03.03-.06.06-.08.08,0,0,0,0,0,0-.11-.04-.22-.08-.32-.12Zm.71.61s.08-.06.13-.09c.14,0,.29,0,.43,0,.16.03.32.06.49.08-.34.01-.68.01-1.02.02,0,0-.02,0-.03,0Zm.01.18c-.09,0-.17,0-.26.01.02-.02.05-.04.07-.06.06.02.12.03.19.05Zm-.27-1.17c.11.02.23.03.34.05-.02.02-.03.03-.05.05-.1-.03-.2-.06-.29-.09Zm.49.83s0,0,0,0c0,0,.01,0,.02,0,0,0-.02,0-.03,0Zm.08-.98c-.07-.01-.15-.03-.22-.04-.12-.04-.23-.08-.35-.12.2.04.41.08.61.12-.01.01-.03.02-.04.04Zm-.31-.02c.08.03.17.05.25.07,0,0-.01.01-.02.02-.02,0-.03,0-.05,0-.1-.03-.21-.07-.31-.11.04,0,.09.02.13.03Zm.19.13s-.04.04-.06.05c-.22-.03-.43-.06-.65-.1-.1-.04-.2-.08-.29-.12.34.06.67.12,1.01.17Zm-.85-.01c.11.04.22.08.33.12-.18-.02-.37-.05-.55-.08-.1-.04-.2-.08-.3-.13.17.03.34.06.52.08Zm.6.21s.02,0,.03.01c-.02.02-.04.04-.06.06-.09,0-.18-.02-.27-.03-.11-.04-.21-.08-.31-.12.2.03.41.05.61.07Zm-.52.08c.11.04.23.08.35.12-.22-.02-.44-.05-.67-.07-.08-.04-.16-.07-.24-.11.19.02.37.04.56.06Zm1.39.9c-.17-.02-.33-.05-.48-.08.37-.01.74-.02,1.1-.04.18.02.37.03.56.05-.39.03-.78.05-1.18.07Zm1.02-.19c-.17-.02-.34-.04-.5-.06.37,0,.73-.02,1.09-.04.21.02.42.03.65.04-.41.02-.82.04-1.23.06Zm-.87-.11c-.16-.03-.31-.06-.46-.09.33,0,.67.01,1,.01.15.02.29.05.45.06-.33,0-.66.01-.99.02Zm.83-.13c-.17-.02-.33-.05-.49-.07.28,0,.55,0,.83,0,.21.03.42.04.64.06-.33,0-.65,0-.99,0Zm.65-.11c-.17-.02-.33-.04-.49-.06.28,0,.56.01.84.01.2.02.41.04.62.06-.32,0-.64,0-.96,0Zm-.01-.1c-.27,0-.53,0-.79-.02-.17-.03-.35-.06-.51-.09.31.02.61.04.92.05.13.02.26.04.39.06Zm-.74-.18c.24.02.48.03.72.05.18.03.35.05.53.07-.28,0-.55-.02-.83-.04-.14-.02-.28-.05-.42-.08Zm.73.13c.33.01.65.02.98.03.15.01.3.03.46.04-.34,0-.68,0-1.02,0-.14-.02-.28-.04-.42-.06Zm1.17,0c-.23-.02-.46-.03-.68-.06.27.01.54.02.81.03.14.01.29.03.43.04-.19,0-.37,0-.56,0Zm-1.01-.11c-.19-.03-.39-.05-.58-.08.33.03.66.05.99.07.13.02.27.04.4.05-.27,0-.54-.02-.81-.04Zm.35-.04c-.16-.02-.32-.05-.48-.07.2.02.4.04.61.05.2.02.41.04.62.06-.25-.01-.49-.02-.74-.04Zm-.77-.12c-.14-.03-.28-.05-.42-.08.09.01.19.02.28.03.21.04.42.06.63.09-.16-.01-.33-.03-.49-.05Zm-.58-.2c.26.05.52.09.78.13-.27-.03-.54-.07-.81-.11.01,0,.02-.01.04-.02Zm-.08.05c.08.02.17.03.25.05-.08-.01-.16-.02-.25-.03,0,0-.02,0-.03,0,0,0,.01,0,.02-.01Zm-.06.03c.1.01.19.03.29.04.11.03.23.05.35.07-.23-.02-.46-.05-.69-.08.02-.01.04-.02.06-.03Zm-.1.06c.33.04.67.07,1,.1.12.02.24.04.36.06-.35-.02-.69-.05-1.04-.09-.11-.02-.23-.05-.34-.07h.02Zm-.12.07c.1.01.19.02.29.03.17.03.34.07.52.09-.22-.02-.43-.03-.65-.05-.06-.01-.13-.03-.19-.05.01,0,.02-.01.03-.02Zm-.14.08c.09,0,.17.01.26.02.13.03.26.06.39.09-.24-.02-.49-.03-.74-.05.03-.02.06-.04.09-.06Zm-.22.14s.07.02.1.02c-.04,0-.09,0-.13,0,0,0,.02-.01.03-.02Zm-.1.06c.18,0,.37.02.55.03.17.03.34.06.51.08-.3,0-.59-.02-.89-.03-.07-.02-.15-.03-.22-.05.02-.01.03-.02.05-.03Zm-.19.13s.06,0,.09,0c.14.03.27.07.42.09-.21,0-.42-.01-.62-.02.04-.03.08-.05.12-.08Zm-1.57-1.2c.36.1.72.19,1.08.27.11.03.22.06.32.09-.01,0-.02.02-.03.03-.31-.06-.62-.13-.93-.2-.15-.06-.3-.11-.45-.17,0,0,0-.01,0-.01Zm.72.33s-.06-.01-.09-.02c-.1-.04-.19-.08-.29-.12,0,0,.01,0,.02,0,.12.04.23.09.35.13Zm-.75-.28s.07.03.1.04c-.04,0-.07-.02-.11-.03,0,0,0-.01.01-.02Zm-.03.05c.11.03.22.05.34.08.09.04.18.08.27.11-.21-.04-.42-.09-.63-.14.01-.02.02-.04.03-.05Zm-.06.1c.28.06.56.12.85.17.1.04.19.07.29.11-.35-.06-.7-.12-1.05-.19-.04-.02-.07-.03-.11-.05,0-.01.02-.03.03-.04Zm-.06.11s0,0,0,0c.1.05.2.09.3.13-.11-.02-.23-.04-.34-.06.01-.02.02-.05.04-.07Zm-.1.2s.01,0,.02.01c0,0-.02,0-.03,0,0,0,0,0,0,0Zm-.03.07c.08.01.16.02.24.03.09.04.19.09.29.13-.18-.02-.35-.04-.53-.07h-.03s.02-.07.03-.09Zm-.07.2s.07.04.11.06c-.04,0-.08,0-.12-.01,0-.02,0-.03.01-.05Zm-.03.12c.1,0,.2.02.3.03.08.04.17.08.26.12-.17-.01-.34-.03-.51-.04-.02-.01-.04-.03-.06-.04,0-.02.01-.04.01-.07Zm-.03.22s.07.05.1.07c-.03,0-.07,0-.1,0,0-.02,0-.05,0-.07Zm.04.27s-.01-.02-.02-.02c0-.03,0-.06-.01-.09.07,0,.15,0,.22.01.07.04.13.08.21.12-.13,0-.26,0-.39-.01Zm.23.21c-.05-.04-.1-.08-.15-.12.16,0,.33,0,.49.01.03.01.06.03.1.04-.02.02-.03.05-.05.07-.13,0-.26,0-.39,0Zm.28.17c-.05-.03-.11-.05-.16-.08.07,0,.13,0,.2,0-.02.03-.03.05-.05.08Zm.22.64s-.1-.04-.14-.06c.01-.02.02-.04.04-.06.2-.02.4-.04.6-.06.15.03.31.05.48.06-.32.04-.65.08-.97.11Zm1.31.18c-.13,0-.24,0-.36,0,.19-.03.39-.06.59-.09-.08.03-.15.07-.23.1Zm.51-.22c-.41.06-.82.12-1.23.18-.14-.02-.26-.04-.38-.07.41-.05.82-.1,1.21-.15.16,0,.33,0,.51,0-.04.02-.07.03-.11.05Zm.61-.25c-.09.01-.19.03-.28.04-.23,0-.45,0-.65-.02.42-.05.84-.1,1.25-.15-.11.04-.21.09-.31.13Zm.71-.29c-.07,0-.15,0-.22,0,.1,0,.19-.02.29-.03-.02,0-.05.02-.07.03Zm.24-.1c-.31.03-.63.06-.95.08-.2,0-.39-.02-.57-.04.43-.03.85-.06,1.28-.1.12,0,.24,0,.37,0-.04.02-.08.03-.12.05Zm.38-.15s-.09,0-.14.01c-.24,0-.48-.01-.71-.03.35-.02.7-.04,1.05-.06-.07.03-.14.05-.2.08Zm.44-.17c-.1,0-.19,0-.29,0,.12,0,.24-.02.36-.02-.03,0-.05.02-.08.03Zm.19-.07c-.32.02-.64.03-.96.04-.22-.01-.43-.03-.63-.05.37,0,.74,0,1.1-.02.17,0,.35.01.53.01,0,0-.02,0-.02,0Zm.25-.1c-.16,0-.31.02-.47.02-.21,0-.42-.02-.62-.04.3,0,.6,0,.89-.02.09,0,.18,0,.27,0-.02,0-.05.02-.07.03Zm.21-.08c-.12,0-.24,0-.36.01-.18,0-.36-.02-.54-.03.34,0,.67-.01,1.01-.02-.04.01-.07.03-.11.04Zm.2-.08c-.16,0-.32,0-.48-.02.18,0,.35,0,.53,0-.02,0-.03.01-.05.02Zm.16-.06c-.09,0-.18,0-.27-.01.1,0,.2,0,.3,0,0,0-.02,0-.03,0Zm.08-.03c-.27,0-.53,0-.8-.01-.18-.01-.37-.03-.55-.05.26.01.52.02.77.03.19.01.39.02.58.03,0,0,0,0-.01,0Zm.1-.04c-.2,0-.39,0-.59-.01-.18-.01-.36-.03-.54-.05.39.02.78.03,1.17.04,0,0,0,0,.01,0-.02,0-.03.01-.05.02Zm.09-.04c-.11,0-.21-.01-.32-.02.11,0,.22,0,.33.01,0,0-.01,0-.02,0Zm.04-.01c-.26,0-.52-.02-.78-.03-.09,0-.18-.02-.27-.03.36.02.72.04,1.08.05,0,0-.02,0-.02,0Zm.04-.01s0,0,0,0c-.4-.01-.81-.03-1.21-.06-.11-.01-.22-.03-.33-.05.53.05,1.07.09,1.61.11h.13c-.07,0-.13,0-.2,0Zm57.51,95c-.12.19-.23.38-.35.56-.07.11-.15.23-.22.34.19-.3.38-.6.57-.9Zm-61.9-88.16s-.03-.04-.05-.07c.07-.07.13-.14.2-.2-.04.07-.07.15-.11.22-.01.01-.03.03-.04.04Zm-.17-1.76s-.04-.02-.06-.04c.04-.02.07-.05.11-.07-.02.04-.04.07-.06.11Zm.02.78c-.05.04-.11.09-.16.13.01-.06.03-.12.04-.18.02-.01.03-.03.05-.04.02.03.05.06.07.09Zm.19-2.1c.12-.05.23-.11.35-.16-.07.05-.14.1-.2.15-.05,0-.1,0-.15,0Zm.1.74c-.16.09-.32.18-.49.27.03-.06.06-.13.11-.2.07-.04.14-.07.21-.11.05.01.11.02.18.03Zm.21.19c.07-.04.14-.09.21-.13.05,0,.11.01.17.02-.19.12-.38.24-.57.36.06-.08.12-.16.19-.25Zm7.66-3.86s-.04.02-.07.03c0,0,0,0,.01,0-.05.02-.09.05-.14.07-.17.09-.35.18-.52.27.07-.04.14-.08.22-.12.02-.01.05-.02.07-.04.1-.05.2-.1.3-.15h-.01s.01,0,.02,0c0,0,0,0,0,0,.06-.03.12-.06.18-.09-.04.02-.07.04-.11.06.02,0,.04-.02.05-.03Zm-6.89,3.78s.06,0,.09,0c-.04.04-.08.08-.11.12-.18.13-.37.26-.55.39.07-.09.14-.18.22-.27.12-.08.24-.16.36-.24Zm-.17.03s.02-.03.04-.04c0,0,.01,0,.02,0-.02.01-.04.03-.06.04Zm3.44-2.38c-.44.21-.87.43-1.31.65.19-.12.4-.25.61-.37.67-.32,1.33-.63,1.98-.93-.44.21-.87.42-1.28.65Zm.39-.15c.68-.33,1.36-.64,2.03-.94-.3.14-.58.28-.86.43-.63.3-1.27.62-1.91.95.24-.15.49-.29.75-.44Zm-1.58.62c-.48.23-.96.47-1.44.72.18-.12.37-.25.57-.37.52-.25,1.04-.49,1.55-.73-.24.13-.46.26-.68.38Zm-.47.29c-.2.13-.39.25-.57.38-.15.08-.3.16-.45.24-.08,0-.17.02-.24.03.42-.22.84-.44,1.26-.65Zm-1,1.61s-.03.02-.05.04c.01-.01.02-.02.03-.04,0,0,0,0,.01,0Zm-.22,0c-.12.09-.24.17-.36.26.08-.09.16-.18.24-.26.04,0,.07,0,.11,0Zm-.48-.91c.09-.05.18-.09.27-.14-.06.04-.12.08-.17.13-.03,0-.07,0-.1,0Zm.45,1.01c-.1.1-.19.21-.28.31-.15.12-.3.24-.45.36.07-.1.15-.2.23-.3.17-.13.33-.25.5-.37Zm-.01.18c.12-.09.23-.18.35-.27.02,0,.04,0,.07,0-.04.05-.09.09-.14.14-.18.14-.37.29-.55.44.09-.1.17-.21.27-.31Zm.45-.21s.05-.04.07-.06c.03,0,.06,0,.09,0-.16.13-.32.26-.48.4.1-.11.21-.22.32-.34Zm.09.06c-.08.09-.16.18-.24.27-.21.18-.41.36-.61.54.08-.11.18-.21.27-.31.19-.17.39-.33.58-.49Zm.15-.02c-.1.1-.19.21-.29.31-.15.14-.3.27-.45.41.1-.12.21-.23.31-.34.14-.13.29-.25.43-.37Zm-.24.16c.08-.09.16-.17.24-.25.02,0,.04,0,.06,0-.1.08-.2.17-.3.25Zm.39-.25h.02s-.1.08-.14.12c.04-.04.08-.08.12-.12Zm-.08-1.05c.17-.1.34-.2.51-.29-.13.09-.25.18-.37.27-.05,0-.1.01-.14.02Zm-.07-.02c.15-.12.31-.23.48-.35.38-.2.75-.4,1.13-.59-.21.13-.42.26-.62.39-.33.18-.66.36-.99.55Zm1.5-.77c.64-.34,1.28-.67,1.91-.98-.07.04-.15.08-.22.12.19-.1.39-.2.59-.3.27-.13.54-.26.81-.38-.24.12-.47.24-.7.36-.4.19-.79.39-1.19.6.16-.09.32-.19.48-.28-.3.16-.6.32-.89.49-.44.24-.89.48-1.33.73.17-.12.35-.24.53-.36Zm2.56-1.03c-.24.14-.48.28-.73.42.17-.11.33-.21.5-.32.2-.12.41-.23.61-.34-.04.02-.08.04-.11.07.13-.08.27-.15.41-.23.19-.1.39-.2.58-.3.06-.03.12-.05.18-.08-.12.06-.25.13-.37.19-.34.17-.67.35-1,.54.07-.04.14-.09.21-.13-.1.05-.19.11-.28.17Zm-.38.15c.44-.24.87-.48,1.31-.7-.13.07-.26.14-.39.21.08-.04.16-.08.25-.13-.03.02-.06.03-.09.05-.13.07-.27.14-.4.21.08-.04.16-.09.24-.14-.38.2-.75.4-1.11.62-.14.08-.27.16-.41.24.19-.13.39-.25.59-.37Zm-.94.51c.21-.14.42-.27.64-.4.23-.13.47-.25.7-.38-.17.1-.34.2-.51.3-.28.15-.56.31-.84.48Zm2.26-1.2s0,0,0,0c0,0,0,0,0,0,0,0,0,0,0,0Zm-.89.43c.24-.14.5-.28.75-.41.23-.11.46-.23.69-.34.07-.03.15-.06.22-.1-.08.04-.17.08-.25.13-.47.23-.94.47-1.41.72Zm.75-.46c-.5.24-1.01.49-1.51.76.25-.14.5-.28.76-.42.55-.27,1.1-.53,1.65-.77-.31.14-.61.28-.9.43Zm-1.58.75c-.2.11-.39.23-.58.35-.33.18-.67.37-1,.56.18-.13.37-.25.56-.37.34-.19.68-.37,1.02-.54Zm-.3.23c.53-.29,1.07-.57,1.6-.83-.16.08-.31.16-.46.25.24-.12.48-.24.73-.36-.03.02-.07.04-.1.05-.32.16-.64.32-.96.49.11-.06.22-.12.33-.18-.28.15-.56.3-.83.45-.32.17-.63.35-.95.53.21-.14.42-.27.64-.4Zm-.33.26c-.22.14-.43.28-.64.43-.19.12-.39.24-.58.36.16-.12.33-.25.5-.37.24-.14.48-.29.72-.43Zm-.27.24c.24-.14.47-.28.71-.42-.18.12-.36.24-.53.36-.24.15-.48.3-.71.45.17-.13.35-.26.54-.38Zm.24-.08c.13-.08.26-.16.4-.24-.14.09-.28.19-.42.29-.15.09-.3.19-.44.29.15-.11.31-.23.47-.34Zm.28-.12c.2-.12.39-.24.59-.36-.17.11-.33.22-.49.33-.23.15-.46.3-.69.45.19-.14.39-.28.59-.41Zm.55-.31c.06-.04.13-.08.19-.11-.15.09-.29.19-.43.28.08-.06.16-.11.24-.17Zm.36-.19c.11-.07.23-.13.35-.2-.18.11-.36.21-.54.32.06-.04.13-.08.19-.13Zm.34-.24c-.18.1-.36.21-.54.32.09-.06.19-.13.29-.19.31-.18.61-.35.92-.52-.23.13-.45.26-.67.39Zm.11-.04c.05-.03.11-.07.16-.1.19-.11.37-.21.56-.31-.03.01-.05.03-.08.04.04-.02.09-.04.13-.06-.28.15-.55.3-.82.46.02-.01.04-.02.05-.03Zm.36-.22c.13-.07.25-.15.38-.22.26-.13.51-.27.77-.39.05-.02.09-.04.14-.06-.25.12-.5.25-.75.38-.02.01-.05.02-.07.04-.16.08-.31.17-.47.25Zm-.1-.17c.24-.12.49-.24.75-.36.21-.09.43-.18.64-.27-.46.2-.92.41-1.39.63Zm.65-.37c-.68.29-1.37.6-2.06.92.26-.14.53-.27.8-.41.51-.23,1.02-.44,1.53-.65.13-.05.26-.1.4-.16-.23.1-.45.19-.66.29Zm-.6.21c-.82.35-1.65.72-2.49,1.11.27-.15.55-.29.85-.44.89-.39,1.76-.75,2.63-1.09-.34.14-.66.28-.98.42Zm-2.15.85c-.57.25-1.15.51-1.73.78.24-.14.5-.28.77-.42.62-.27,1.24-.53,1.85-.79-.31.14-.6.28-.88.42Zm-.27.02c.34-.16.7-.33,1.08-.49.73-.29,1.45-.56,2.16-.82-.4.15-.78.31-1.15.46-.69.27-1.39.56-2.09.85Zm.35-.24c-.79.31-1.6.64-2.42.98.32-.17.67-.33,1.05-.51.95-.37,1.89-.73,2.8-1.06-.51.2-.99.4-1.43.59Zm-.87.4c-.32.15-.62.3-.9.45-.61.27-1.23.54-1.86.83.19-.12.39-.25.61-.37.72-.31,1.44-.61,2.14-.9Zm-1.49.78c-.23.13-.44.26-.64.39-.27.13-.54.26-.82.39-.08,0-.16.01-.24.02.02-.02.04-.03.07-.05.55-.26,1.09-.51,1.63-.75Zm-1.6,1.76c-.08.09-.15.18-.22.27-.13.09-.26.18-.39.26-.02-.01-.05-.03-.08-.04.01-.03.03-.05.05-.08.21-.14.43-.28.64-.42Zm-.45,1.73c-.08.08-.16.15-.24.23.03-.07.06-.14.1-.21.07-.07.14-.14.22-.21,0,0,.01,0,.02.01-.03.06-.07.11-.1.17Zm.15-.07s.03-.03.05-.05c.02.01.04.02.06.04-.08.08-.16.16-.24.25.04-.08.09-.16.14-.24Zm-.16-1.05s-.04-.02-.07-.03c.05-.04.11-.08.16-.12-.04.05-.07.1-.1.15Zm.03.9s-.05.05-.08.07c.02-.03.03-.06.05-.09,0,0,.02.01.03.02Zm-.21-.15s.05.04.08.06c-.09.08-.17.15-.26.23.02-.07.05-.14.08-.21.03-.03.07-.06.1-.08Zm.04.19c-.03.07-.07.15-.1.22-.05.05-.1.09-.15.14-.01-.02-.02-.04-.04-.07,0-.01,0-.03.01-.05.09-.08.18-.17.27-.25Zm.21.47c-.07.08-.14.16-.22.24,0,0,0,0-.01-.01.02-.05.05-.1.08-.15.09-.1.18-.19.27-.29-.04.07-.08.14-.12.21Zm.17-.18s.05-.09.08-.14c.01,0,.02.01.03.02-.04.04-.08.08-.12.12Zm.06-1.09s.02-.01.03-.02c0,0-.01.02-.02.03,0,0,0,0-.01,0Zm-.08-.03s-.06-.02-.09-.03c.01-.02.02-.03.04-.05.17-.13.34-.25.52-.38-.07.09-.14.18-.21.27-.08.06-.17.13-.25.19Zm.25.1c.1-.08.19-.16.29-.24-.07.09-.13.18-.2.26-.03,0-.06-.02-.09-.03Zm.32.1s-.01,0-.02,0c.03-.02.05-.05.08-.07-.02.02-.04.05-.06.07Zm-.07-.02s-.03,0-.04-.01c.04-.05.07-.09.11-.14.16-.14.33-.27.49-.41-.08.1-.16.19-.24.29-.11.09-.21.18-.32.27Zm.18.06c.15-.14.29-.27.44-.4-.07.08-.13.16-.2.25-.06.06-.12.11-.18.17-.02,0-.04-.01-.06-.02Zm.23-.03s-.05.05-.08.07c-.01,0-.03,0-.04-.01.11-.1.22-.21.33-.31-.07.08-.14.17-.21.25Zm.96-.9c-.25.22-.49.45-.73.68.1-.11.2-.23.3-.34.03-.03.06-.06.09-.09.12-.11.25-.21.37-.32h.02s-.04.04-.06.06Zm.27-1.16c.05-.04.11-.08.16-.12.36-.21.73-.42,1.09-.62-.23.15-.45.3-.67.45-.16.09-.31.19-.47.28-.04,0-.07,0-.11.01Zm.4-.06c.15-.12.31-.24.47-.36.31-.19.63-.37.94-.55-.19.13-.38.26-.57.39-.28.17-.56.34-.85.52Zm.08,0c.14-.09.28-.18.42-.26-.11.08-.22.17-.32.25-.03,0-.06,0-.1.01Zm.22-.03c.17-.11.34-.22.51-.33-.14.1-.28.21-.41.32-.03,0-.07,0-.1.01Zm.21-.03s.06-.05.09-.07c.23-.15.46-.31.69-.45-.18.13-.36.26-.53.4-.06.04-.11.08-.17.11-.03,0-.05,0-.08.01Zm.18-.03c.06-.05.12-.1.17-.14.19-.13.37-.25.56-.38-.11.08-.22.17-.33.25-.12.09-.25.17-.37.26-.01,0-.02,0-.04,0Zm.09-.01s.06-.04.09-.07c-.03.02-.05.04-.08.06,0,0-.01,0-.02,0Zm.1-.01s0,0,0,0c.02-.01.04-.03.05-.04-.02.01-.03.03-.05.04Zm.3-.24c-.11.08-.23.16-.34.24,0,0-.01,0-.02,0,.12-.1.25-.19.38-.29.18-.13.37-.25.55-.37-.19.14-.38.27-.56.41Zm.61-.36c.07-.05.13-.09.2-.14.05-.03.09-.06.14-.09l-.27.19s-.05.03-.07.05Zm.19-.13c.05-.04.1-.08.16-.11.19-.13.38-.26.57-.38.02-.01.05-.03.07-.04-.27.17-.53.35-.8.53Zm.86-.57c.18-.11.37-.22.55-.33.12-.07.23-.14.35-.21-.3.17-.61.35-.9.54Zm1.19-.7c.1-.05.19-.11.29-.17,0,0,.02,0,.02-.01.01,0,.03-.01.04-.02-.12.06-.24.13-.36.2Zm.72-.39s0,0,0,0c0,0,0,0,.01,0,0,0,0,0-.01,0Zm-.14.07s.06-.03.09-.05c0,0,0,0,0,0-.1.05-.2.1-.3.16.07-.04.14-.07.21-.11-.06.03-.13.07-.2.1.12-.06.23-.13.35-.19-.05.03-.1.06-.16.08Zm.65-.33c-.16.08-.32.15-.47.23.02-.01.05-.03.07-.04.13-.06.25-.13.38-.19,0,0,.02,0,.02-.01,0,0,0,0,0,0Zm.18-.3c-.9.34-1.81.7-2.74,1.09.35-.16.71-.32,1.09-.48,1.03-.41,2.05-.78,3.03-1.12-.48.17-.94.34-1.39.51Zm1.64-.6c-.8.27-1.62.56-2.46.87.39-.15.8-.31,1.22-.46.36-.13.72-.25,1.07-.37.06-.02.11-.03.17-.05Zm-.4.11c-.4.13-.78.27-1.15.4-.7.24-1.4.49-2.12.76.53-.21,1.09-.42,1.69-.63.51-.18,1.01-.34,1.5-.51.03,0,.06-.02.09-.03Zm-.23.07c-.16.05-.33.11-.49.16.16-.05.32-.11.48-.16,0,0,.01,0,.02,0Zm-2.26.77c-.94.33-1.9.67-2.89,1.04.55-.23,1.14-.46,1.79-.69,1.03-.36,2.03-.69,3-1.01-.67.22-1.3.44-1.89.66Zm.22-.19c.21-.06.41-.12.63-.18-1.18.37-2.41.76-3.67,1.18.89-.31,1.91-.64,3.04-1Zm-4.88,1.67c2.1-.73,4.09-1.39,5.98-1.98.09-.02.17-.05.26-.07-.28.09-.56.18-.83.28.13-.04.26-.08.38-.12-.25.08-.49.16-.74.24.12-.04.24-.08.36-.12-.94.3-1.84.61-2.7.91-1.38.48-2.8.98-4.27,1.53.43-.2.95-.42,1.56-.66Zm-2.24.99c1.07-.41,2.12-.8,3.15-1.18-.49.2-.95.4-1.37.6-.76.3-1.54.61-2.33.93.14-.11.33-.22.55-.35Zm-.73.51c.62-.26,1.23-.51,1.83-.76-.24.13-.46.25-.65.38-.3.13-.6.26-.91.39-.1,0-.19,0-.27-.02Zm.05,1.17c.18-.11.37-.22.55-.32-.06.08-.12.15-.17.23-.1.06-.19.12-.29.18-.04-.03-.06-.06-.09-.09Zm.08,1.33s-.02-.05-.02-.08c0-.02,0-.03,0-.05.07-.06.14-.11.21-.17-.03.07-.05.13-.07.2-.04.03-.08.07-.12.1Zm.05.15s-.01-.05-.02-.07c.02-.02.04-.03.05-.05-.01.04-.02.08-.03.12Zm0,.5s-.03.03-.05.05c0-.04.02-.09.02-.13,0,.03.01.05.02.08Zm-.07.24s0-.05,0-.08c.03-.03.06-.06.08-.09,0,.02.01.03.02.05,0,.02-.01.05-.02.07-.03.03-.06.06-.09.1,0-.02,0-.03,0-.05Zm.02.23s-.01-.07-.01-.1c.02-.02.03-.04.05-.06-.01.05-.03.11-.04.16Zm.05-.05c.02-.06.04-.13.06-.19,0,0,.01-.01.02-.02.01.03.02.05.03.08-.04.04-.08.09-.11.13Zm.12-.67s.04-.04.06-.06c-.01.03-.02.07-.04.1l-.03-.04Z"/></g></svg>