<?xml version="1.0" encoding="utf-8"?>
<!-- Generator: Adobe Illustrator 28.0.0, SVG Export Plug-In . SVG Version: 6.00 Build 0)  -->
<svg version="1.1" id="Layer_1" xmlns="http://www.w3.org/2000/svg" xmlns:xlink="http://www.w3.org/1999/xlink" x="0px" y="0px"
	 viewBox="0 0 512 512" style="enable-background:new 0 0 512 512;" xml:space="preserve">
<path d="M260.9,115.6C298,43.9,386,17.8,461.3,44c12.9,4.5,18.4,12.9,15.8,26.6c-4.1,21.9-11.9,42.2-25.9,59.7
	c-40.7,51.1-94.2,70.1-158,60.5c-13.9-2.1-19.6-0.6-19.1,15.4c1.1,39.3,0.8,78.6,0.1,117.8c-0.2,12.2,3.1,17.9,15.9,18.7
	c24.5,1.6,47.5,9.2,69.2,20.5c36.5,19,63.7,45.5,69.2,88.8c2,15.7-4.8,25.7-20.1,25.7c-101.7,0.4-203.3,0.3-305,0.1
	c-15.1-0.1-21.8-8.6-20.2-23.6c2.7-25.7,13.3-47.4,32.4-65.1c29.9-27.7,65.9-41.7,105.8-46.4c9.5-1.1,16.1-2.6,15.9-15
	c-0.6-42.2-0.4-84.3-0.1-126.5c0.1-9.2-2.8-13-12.2-10.5c-16.4,4.5-33.3,3.4-50,2.6c-67.6-3.1-127.7-55.6-139.8-121
	c-2.5-13.6,1.2-22.9,14.4-27.2C99.6,28.9,148.1,31,194.7,57.7c26.8,15.3,45.9,37.6,60.8,66.4C258,120.1,259.6,118,260.9,115.6z"/>
</svg>
