<?xml version="1.0" encoding="UTF-8"?><svg id="Graphic_Elements" xmlns="http://www.w3.org/2000/svg" xmlns:xlink="http://www.w3.org/1999/xlink" viewBox="0 0 616.68 612"><defs><style>.cls-1{clip-path:url(#clippath);}.cls-2{fill:none;}.cls-2,.cls-3{stroke-width:0px;}.cls-4{clip-path:url(#clippath-1);}.cls-3{fill:#181818;}</style><clipPath id="clippath"><circle class="cls-2" cx="317.56" cy="306" r="277.9"/></clipPath><clipPath id="clippath-1"><circle class="cls-2" cx="317.56" cy="306" r="277.9"/></clipPath></defs><g class="cls-1"><path class="cls-3" d="m36.68,58.7c2.93-7.17.98-16-4.16-19.17-3.65-2.26-7.94-.91-11.16,2.72v23.8c.17.11.33.23.5.33,5.15,2.87,11.89-.5,14.82-7.67Z"/><path class="cls-3" d="m83.04,34.58c5.29,4.16,11.19,1.65,12.39-5.48.11-.66.16-1.33.18-2.02h-17.74c1.21,3.07,2.96,5.76,5.17,7.5Z"/><path class="cls-3" d="m77,84.99c2.96-6.47.92-15.07-4.36-18.78-5.29-3.71-11.81-.84-14.75,5.97-2.94,6.81-1.23,14.98,4.04,18.34,5.27,3.36,12.11.93,15.07-5.53Z"/><path class="cls-3" d="m35.68,142.2c5.29,2.54,12.55-.71,16.11-7.29,3.56-6.58,2.07-14.31-3.21-17.25-5.28-2.93-12.34.37-15.91,7.35-3.58,6.97-2.28,14.65,3.01,17.19Z"/><path class="cls-3" d="m21.36,170.23v19.14c.94-1.07,1.78-2.27,2.48-3.57,3.46-6.39,2.33-13.21-2.48-15.57Z"/><path class="cls-3" d="m124.06,67.74c5.38,4.41,11.4,2.67,12.73-3.74,1.33-6.41-2.62-15.36-8.06-20.1-5.45-4.75-10.24-3.25-11.5,3.5-1.26,6.76,1.46,15.94,6.83,20.34Z"/><path class="cls-3" d="m113.59,95.8c-5.36-3.93-11.98-1.92-14.97,4.14-2.98,6.07-1.21,13.82,4.13,17.38,5.34,3.56,12.24,1.9,15.24-3.81,3.01-5.7.95-13.78-4.41-17.71Z"/><path class="cls-3" d="m76.56,162.44c5.34,2.69,12.62.25,16.17-5.44,3.55-5.69,2.01-12.82-3.33-15.93-5.34-3.11-12.45-.69-16.01,5.42-3.56,6.11-2.18,13.26,3.16,15.95Z"/><path class="cls-3" d="m45.56,193.77c-3.58,6.18-2.05,12.64,3.32,14.44,5.37,1.8,12.53-1.42,16.1-7.18,3.56-5.76,2.16-12.22-3.19-14.44-5.35-2.22-12.64,1-16.22,7.18Z"/><path class="cls-3" d="m39.69,245.4c2.91-5.78,1.1-11.56-4.29-12.9-4.75-1.19-10.69,1.72-14.03,6.64v13.33c.94.81,2.11,1.38,3.5,1.63,5.4.97,11.91-2.92,14.82-8.7Z"/><path class="cls-3" d="m21.36,282.18v9.29c.24-.55.44-1.12.61-1.71.78-2.83.51-5.51-.61-7.58Z"/><path class="cls-3" d="m170.83,56.81c5.61,4.9,9.67,4.25,8.18-1.35-1.49-5.6-7.27-13.92-13.08-18.89-5.81-4.96-9.29-4.87-7.59.87,1.69,5.73,6.87,14.47,12.49,19.37Z"/><path class="cls-3" d="m165.5,101.43c5.39,4.3,11.49,3.06,12.97-2.64,1.48-5.7-2.3-13.98-7.76-18.61-5.47-4.63-10.46-3.63-11.87,2.4-1.41,6.03,1.28,14.54,6.67,18.84Z"/><path class="cls-3" d="m159.25,141.95c3.06-4.95,1.03-12.24-4.35-16.08-5.38-3.84-12.06-2.46-15.09,2.84-3.04,5.3-1.25,12.37,4.1,15.85,5.36,3.48,12.28,2.34,15.34-2.61Z"/><path class="cls-3" d="m133.87,179.01c3.54-4.81,2-11.12-3.35-14.15-5.35-3.04-12.49-1.32-16.04,3.91-3.55,5.22-2.14,11.63,3.22,14.26,5.35,2.63,12.62.8,16.17-4.01Z"/><path class="cls-3" d="m90.2,221.93c5.38,1.75,12.52-.84,16.06-5.72,3.54-4.88,2.11-10.52-3.25-12.68-5.37-2.16-12.65.34-16.2,5.63-3.55,5.29-1.98,11.03,3.4,12.78Z"/><path class="cls-3" d="m81.17,254.12c2.88-5,1.05-10.05-4.34-11.35-5.39-1.3-12.31,1.95-15.21,7.31-2.9,5.36-.64,10.5,4.76,11.44,5.4.94,11.9-2.4,14.79-7.4Z"/><path class="cls-3" d="m63.57,293.16c1.59-5.17-1.17-9.78-6.59-10.35s-11.43,3.34-13.02,8.78c-1.59,5.44,1.87,10.13,7.28,10.43,5.41.31,10.73-3.69,12.32-8.87Z"/><path class="cls-3" d="m58.39,333.76c-.17-5.24-4.54-9.79-9.94-9.86-5.4-.07-9.77,4.5-9.59,9.86.16,4.84,4.14,9.04,9.53,9.02,5.39-.01,10.16-4.18,10.01-9.02Z"/><path class="cls-3" d="m35.05,371.81c-.92,4.89,2.47,8.58,7.76,8.3,5.29-.29,10.53-4.29,11.52-9.01.99-4.72-2.72-8.5-8.07-8.38-5.35.12-10.28,4.21-11.2,9.09Z"/><path class="cls-3" d="m32.26,415.82c5.07-.83,10.51-5.05,12.05-9.5,1.54-4.45-1.49-7.67-6.67-7.12-5.19.55-10.48,4.86-11.91,9.6-1.43,4.73,1.46,7.86,6.54,7.03Z"/><path class="cls-3" d="m31.68,439.55c1.67-4.2-.96-6.7-5.89-5.51-1.49.36-2.99,1.06-4.43,1.95v13.35c4.38-1.88,8.8-5.99,10.32-9.79Z"/><path class="cls-3" d="m31.26,568.71c-2.91-3.2-6.62-4.39-9.89-3.47v18.61h10.7s.04-.03.06-.05c3.81-3.81,3.25-10.58-.86-15.09Z"/><path class="cls-3" d="m206.7,50.25c6.49,4.56,10.21,2.95,7.88-3.62-2.31-6.49-9.74-15.19-16.29-19.55h-8.26c.02.93.28,2.09.83,3.5,2.46,6.31,9.36,15.11,15.84,19.67Z"/><path class="cls-3" d="m216.19,94.43c6.11,4.73,10.93,4.16,9.93-1.17-1-5.33-6.92-13.79-13.25-18.57-6.32-4.79-10.51-4.23-9.27,1.22,1.24,5.45,6.48,13.8,12.59,18.52Z"/><path class="cls-3" d="m208.85,134.46c5.82,4.15,12.39,3.36,14.08-1.65,1.69-5.01-2.26-12.58-8.19-17.05-5.92-4.47-11.46-3.91-13.04,1.42-1.58,5.33,1.33,13.13,7.15,17.28Z"/><path class="cls-3" d="m202.83,169.74c3.18-4.2.89-10.69-4.87-14.4-5.76-3.7-12.78-2.92-15.89,1.63-3.12,4.54-1.12,10.92,4.59,14.27,5.71,3.35,13,2.7,16.17-1.5Z"/><path class="cls-3" d="m173.04,188.16c-5.66-2.93-13.05-1.87-16.62,2.48-3.57,4.35-1.96,10,3.67,12.53,5.63,2.53,13.18,1.28,16.78-2.66,3.6-3.95,1.84-9.42-3.83-12.35Z"/><path class="cls-3" d="m132.43,235.33c5.58,1.67,12.93-.32,16.5-4.33,3.57-4.01,1.97-8.84-3.63-10.91-5.6-2.07-13.07-.27-16.61,4.14-3.55,4.41-1.83,9.43,3.75,11.11Z"/><path class="cls-3" d="m108.49,268.73c5.53.89,12.18-1.92,15.1-6.15,2.92-4.23.97-8.56-4.59-9.8-5.56-1.25-12.59,1.36-15.49,5.95-2.9,4.58-.55,9.11,4.98,10.01Z"/><path class="cls-3" d="m105.64,296.43c1.65-4.61-1.15-8.66-6.66-9.2-5.5-.54-11.6,2.86-13.21,7.73-1.61,4.86,1.86,9.13,7.33,9.41,5.47.29,10.89-3.33,12.54-7.94Z"/><path class="cls-3" d="m99.85,333.76c-.12-5.02-4.38-9.22-9.8-9.29-5.42-.07-9.88,4.18-9.74,9.29.14,4.85,4.1,8.93,9.49,8.91,5.39-.01,10.16-4.04,10.04-8.91Z"/><path class="cls-3" d="m83.43,377.89c5.29-.29,10.67-3.94,11.79-8.29,1.12-4.36-2.5-7.92-7.85-7.8-5.35.12-10.36,3.98-11.42,8.51-1.06,4.53,2.2,7.87,7.48,7.58Z"/><path class="cls-3" d="m83.76,401.07c1.78-3.85-1.08-6.63-6.26-6.08-5.19.55-10.65,4.42-12.32,8.55-1.67,4.13,1.02,6.74,6.09,5.91,5.08-.83,10.72-4.53,12.5-8.38Z"/><path class="cls-3" d="m69.07,429.12c1.97-3.47-.44-5.39-5.37-4.2-4.93,1.19-10.42,5.3-12.25,9.12-1.83,3.81.6,5.6,5.39,4.07,4.79-1.53,10.26-5.52,12.22-8.99Z"/><path class="cls-3" d="m43.69,464.62c4.48-2.29,9.36-6.71,11.05-9.92,1.68-3.21-.6-4.29-5.23-2.35-4.63,1.93-9.73,6.44-11.27,10.01-1.54,3.57.97,4.56,5.45,2.27Z"/><path class="cls-3" d="m38.46,478.02c-4.32,2.68-8.74,7.19-9.45,11.03-.71,3.84,2.16,4.59,6.34,1.55,4.17-3.03,8.19-8.41,9.05-11.86.86-3.45-1.61-3.41-5.93-.72Z"/><path class="cls-3" d="m37.33,521.21c3.89-3.63,5.77-9.83,4.94-13.73-.83-3.9-4.19-4.25-8.19-.85-4,3.39-7.03,9.47-6.08,13.61.94,4.14,5.44,4.6,9.33.97Z"/><path class="cls-3" d="m61.42,554.48c3.81-3.81,3.25-10.62-.86-15.09-4.11-4.47-9.74-4.87-13.56-1.08-3.82,3.79-4.35,10.4-.24,14.89,4.11,4.49,10.85,5.09,14.67,1.28Z"/><path class="cls-3" d="m75.86,575.95c-1.93,1.87-3.06,4.73-3.38,7.9h16.48c-.22-1.18-.54-2.33-.99-3.42-2.63-6.44-8.26-8.2-12.11-4.48Z"/><path class="cls-3" d="m243.43,27.08h-5.92c2.75,1.19,4.78,1.12,5.92,0Z"/><path class="cls-3" d="m264.75,75.56c-2.13-7.01-9.46-15.39-16-18.77-6.54-3.38-9.75-.64-7.53,6.18,2.22,6.82,8.92,15.31,15.38,18.88,6.45,3.57,10.29.72,8.16-6.3Z"/><path class="cls-3" d="m261.64,107.77c-6.33-3.72-10.83-2.11-10.1,3.12.73,5.23,5.69,12.59,11.81,16.29,6.12,3.7,11.24,2.39,10.75-2.79-.49-5.18-6.13-12.9-12.46-16.62Z"/><path class="cls-3" d="m260.44,146.84c-5.93-3.52-11.76-2.75-13.56,1.93-1.81,4.68,1.03,11.29,6.85,14.56,5.83,3.28,12.49,2.21,14.41-2.23,1.91-4.43-1.76-10.74-7.69-14.27Z"/><path class="cls-3" d="m226.24,182.74c-3.25,3.85-1.29,9.13,4.43,11.76,5.72,2.63,13.06,1.84,16.37-1.74,3.31-3.59,1.15-8.81-4.62-11.72-5.77-2.91-12.92-2.15-16.17,1.7Z"/><path class="cls-3" d="m203.48,220.61c5.64,1.96,13.21.79,16.88-2.42,3.67-3.21,2-7.49-3.67-9.78-5.67-2.28-13.16-1.42-16.79,2.11-3.64,3.54-2.05,8.13,3.59,10.09Z"/><path class="cls-3" d="m175.4,246.74c5.58,1.25,12.95-.54,16.57-3.82,3.62-3.27,2.09-7.03-3.52-8.61-5.61-1.58-13.14-.11-16.74,3.49-3.6,3.6-1.89,7.68,3.69,8.94Z"/><path class="cls-3" d="m166.25,269.12c2.97-3.59,1.07-7.05-4.49-7.95-5.56-.91-12.66,1.33-15.61,5.2-2.95,3.87-.63,7.67,4.9,8.29,5.54.63,12.21-1.95,15.19-5.54Z"/><path class="cls-3" d="m147.83,298.74c1.72-4.16-1.02-7.63-6.52-7.98-5.5-.36-11.66,2.71-13.35,7.06-1.69,4.35,1.72,8.17,7.19,8.34,5.47.17,10.96-3.26,12.68-7.42Z"/><path class="cls-3" d="m141.31,333.76c-.06-4.93-4.17-8.86-9.59-8.89-5.42-.03-10.03,3.94-9.94,8.89.09,4.89,4.07,8.81,9.46,8.8,5.39-.01,10.14-3.89,10.07-8.8Z"/><path class="cls-3" d="m136.13,368.09c1.26-4-2.28-7.33-7.63-7.21-5.35.12-10.45,3.75-11.65,7.92-1.2,4.17,1.92,7.16,7.21,6.87,5.29-.29,10.8-3.59,12.07-7.58Z"/><path class="cls-3" d="m110.27,403.08c5.08-.83,10.92-4.01,12.94-7.26,2.02-3.25-.67-5.59-5.86-5.04-5.19.55-10.83,3.98-12.73,7.51-1.9,3.54.57,5.62,5.65,4.79Z"/><path class="cls-3" d="m106.45,418.69c2.26-2.74.09-4.08-4.84-2.9-4.93,1.19-10.65,4.73-12.77,7.81-2.12,3.08.06,4.26,4.85,2.73,4.79-1.53,10.5-4.91,12.76-7.65Z"/><path class="cls-3" d="m78.15,447.01c4.48-2.29,9.62-6.1,11.62-8.55,2-2.45-.04-2.9-4.67-.97-4.63,1.93-9.99,5.82-11.84,8.62-1.85,2.81.41,3.18,4.89.89Z"/><path class="cls-3" d="m71.66,457.42c-4.32,2.68-8.96,6.75-9.99,9.76-1.03,3.01,1.57,3.14,5.74.1,4.17-3.03,8.46-7.79,9.65-10.41,1.18-2.62-1.07-2.14-5.39.55Z"/><path class="cls-3" d="m72.55,480.39c-.59-3.39-3.71-3.24-7.71.16-4,3.39-7.26,8.97-6.56,12.61.71,3.63,5.05,3.76,8.94.12,3.89-3.63,5.92-9.49,5.33-12.88Z"/><path class="cls-3" d="m90.72,525.17c3.81-3.81,3.25-10.65-.86-15.09-4.11-4.44-9.68-4.68-13.5-.89-3.82,3.79-4.41,10.25-.3,14.71,4.11,4.45,10.85,5.09,14.67,1.28Z"/><path class="cls-3" d="m105.46,547.36c-3.85,3.72-4.4,11.64-1.67,18.3,2.73,6.66,7.8,9.67,11.74,6.15,3.94-3.52,5.17-12.45,2.35-19.3-2.82-6.86-8.56-8.86-12.42-5.14Z"/><path class="cls-3" d="m269.32,27.92c3.37,8.08,11.06,16.24,17.32,17.98,6.26,1.74,8.71-3.73,5.33-11.98-.97-2.36-2.31-4.68-3.88-6.84h-19.1c.11.28.2.55.32.83Z"/><path class="cls-3" d="m290.68,86.86c2.05,7.18,8.42,14.75,14.59,16.74,6.17,1.99,9.86-2.42,7.87-9.69-2-7.27-8.93-14.58-15.16-16.48-6.23-1.9-9.35,2.25-7.3,9.43Z"/><path class="cls-3" d="m309.47,130.28c-6.08-2.03-10.64.97-10.41,6.16.23,5.18,4.72,11.22,10.61,13.29,5.89,2.07,11.11-.64,11.1-5.89,0-5.25-5.22-11.53-11.3-13.57Z"/><path class="cls-3" d="m312.21,179.4c2.11-4.08-1.13-8.85-6.85-10.87-5.72-2.03-11.66-.45-13.68,3.76-2.02,4.21.57,9.35,6.21,11.24,5.63,1.89,12.21-.05,14.32-4.13Z"/><path class="cls-3" d="m270.11,201.77c-3.37,3.34-1.58,7.31,3.98,8.8,5.56,1.48,12.79.05,16.21-3.13,3.41-3.18,1.51-6.94-4.08-8.59-5.6-1.65-12.73-.41-16.1,2.93Z"/><path class="cls-3" d="m259.81,222.28c-5.53-1.26-12.99-.16-16.69,2.74-3.7,2.9-2.23,6.31,3.28,7.36,5.51,1.05,12.99-.49,16.7-3.18,3.71-2.69,2.23-5.66-3.29-6.92Z"/><path class="cls-3" d="m218.03,253.98c5.49.59,12.78-1.39,16.43-4.13,3.65-2.75,2.25-5.38-3.25-6.18-5.5-.8-13.01.71-16.65,3.67-3.64,2.96-2.02,6.05,3.47,6.64Z"/><path class="cls-3" d="m208.55,272.33c3-3.16,1.2-5.77-4.28-6.14-5.48-.37-12.57,1.79-15.56,5.12-2.99,3.33-.75,6.42,4.73,6.62,5.48.2,12.12-2.44,15.12-5.61Z"/><path class="cls-3" d="m177.1,306.8c5.44-.01,10.95-3.47,12.73-7.41,1.77-3.94-.89-6.9-6.35-6.96-5.46-.06-11.64,2.9-13.4,6.91-1.76,4.01,1.58,7.48,7.02,7.46Z"/><path class="cls-3" d="m173.35,324.92c-5.41.02-10.15,3.88-10.12,8.84.04,4.93,4.04,8.7,9.43,8.69,5.39-.01,10.12-3.75,10.11-8.69-.02-5.05-4-8.87-9.42-8.84Z"/><path class="cls-3" d="m164.7,373.46c5.29-.29,10.94-3.23,12.34-6.87,1.4-3.64-2.05-6.74-7.41-6.63-5.35.12-10.53,3.53-11.87,7.34-1.33,3.81,1.65,6.45,6.94,6.16Z"/><path class="cls-3" d="m149.28,396.71c5.08-.83,11.13-3.49,13.38-6.14,2.25-2.66-.26-4.55-5.45-4-5.19.55-11,3.53-13.14,6.47-2.14,2.94.13,4.5,5.21,3.67Z"/><path class="cls-3" d="m130.53,414.57c4.8-1.53,10.75-4.3,13.31-6.3,2.56-2,.61-2.78-4.32-1.59-4.93,1.19-10.88,4.15-13.3,6.5-2.42,2.35-.48,2.92,4.31,1.39Z"/><path class="cls-3" d="m124.78,422.22c2.31-1.68.53-1.52-4.1.41-4.63,1.93-10.24,5.2-12.4,7.24-2.16,2.04-.16,1.81,4.32-.48,4.48-2.29,9.87-5.49,12.18-7.17Z"/><path class="cls-3" d="m99.48,443.97c4.17-3.03,8.74-7.17,10.24-8.96,1.5-1.79-.53-.87-4.85,1.82-4.32,2.68-9.18,6.31-10.53,8.49-1.35,2.18.98,1.69,5.15-1.34Z"/><path class="cls-3" d="m102.84,453.31c-.35-2.87-3.24-2.23-7.24,1.16-4,3.39-7.49,8.48-7.03,11.6s4.66,2.91,8.55-.72c3.89-3.63,6.07-9.16,5.72-12.04Z"/><path class="cls-3" d="m119.16,480.76c-4.11-4.4-9.62-4.5-13.44-.71-3.82,3.79-4.47,10.1-.36,14.52,4.11,4.42,10.85,5.09,14.67,1.28,3.81-3.82,3.25-10.69-.86-15.09Z"/><path class="cls-3" d="m135.05,518.77c-3.85,3.72-4.29,11.89-1.37,18.96,2.92,7.08,8.19,10.52,12.13,6.99,3.94-3.52,4.97-12.87,1.96-20.15-3.01-7.28-8.87-9.53-12.72-5.8Z"/><path class="cls-3" d="m155.25,578.94c-1.32,1.03-2.39,2.75-3.18,4.91h12.22c-2.38-5.22-5.97-7.3-9.03-4.91Z"/><path class="cls-3" d="m316.28,37.2c3.4,8.38,10.7,15.3,16,15.1,5.3-.19,6.93-7.25,3.57-15.6-1.49-3.71-3.72-7.05-6.22-9.62h-14.9c-.5,2.69-.05,6.22,1.54,10.11Z"/><path class="cls-3" d="m343.49,84.44c-5.26.24-8.1,6.09-6.15,13.4,1.95,7.31,7.9,13.27,13.16,13.02,5.26-.25,8.1-6.4,6.17-13.69-1.93-7.29-7.92-12.97-13.18-12.73Z"/><path class="cls-3" d="m354.24,137.43c-5.31.22-9.74,4.95-9.96,10.35-.22,5.4,3.7,9.82,8.83,9.51,5.13-.31,9.82-4.92,10.31-10.27.49-5.35-3.86-9.82-9.17-9.6Z"/><path class="cls-3" d="m339.54,190.73c4.92-.38,10.77-4.03,13.01-8.05,2.23-4.01-.02-6.86-4.98-6.48-4.96.38-10.85,3.42-13.05,7.43-2.2,4.01.1,7.48,5.02,7.1Z"/><path class="cls-3" d="m327.76,204.95c-4.98.32-11.97,2.63-15.42,5.72-3.45,3.09-1.89,5.63,3.2,5.39s11.76-2.96,15.12-6.12c3.36-3.16,2.08-5.3-2.9-4.98Z"/><path class="cls-3" d="m287.97,236c5.35-.07,12.49-2.45,16.1-5.02,3.61-2.57,2.44-4.3-2.78-4.14-5.22.16-12.53,2.03-16.25,4.56-3.72,2.53-2.42,4.68,2.93,4.6Z"/><path class="cls-3" d="m272.91,246.19c-5.5-.02-12.85,2.01-16.49,4.6-3.64,2.59-2.16,4.67,3.44,4.77,5.6.1,12.81-2.24,16.36-4.86,3.55-2.62,2.18-4.48-3.32-4.51Z"/><path class="cls-3" d="m250.87,272.33c2.96-3.07,1.03-5.35-4.66-5.51-5.69-.16-12.65,2.34-15.64,5.4-2.99,3.06-.86,5.48,4.86,5.67,5.72.19,12.48-2.48,15.44-5.55Z"/><path class="cls-3" d="m218.94,306.15c5.58.12,11.25-3.33,13.1-7.24,1.85-3.91-.9-6.84-6.58-7.02-5.68-.18-11.8,3-13.58,6.94-1.78,3.94,1.49,7.2,7.06,7.32Z"/><path class="cls-3" d="m223.73,333.45c.22-5.14-3.51-8.88-8.87-8.88-5.36,0-10.17,3.97-10.17,9.19,0,4.95,4.03,8.65,9.13,8.36,5.1-.29,9.71-4.04,9.91-8.67Z"/><path class="cls-3" d="m204.86,370.55c4.77-1.05,10.15-4.2,11.73-7.37,1.57-3.17-1.36-5.38-6.25-4.67-4.89.72-10.2,3.82-11.67,7.27-1.47,3.45,1.42,5.81,6.19,4.76Z"/><path class="cls-3" d="m187.91,389.57c4.68-1.64,10.59-4.37,13-6.45,2.41-2.08.4-2.91-4.3-1.53-4.7,1.38-10.72,3.86-13.1,6.2-2.38,2.34-.29,3.42,4.39,1.78Z"/><path class="cls-3" d="m177.19,396.86c-4.7,1.9-10.88,4.27-13.59,5.89-2.71,1.62-1.04,1.58,3.7-.54,4.73-2.12,10.85-4.63,13.56-6.01,2.71-1.38,1.03-1.24-3.67.66Z"/><path class="cls-3" d="m160.88,405.23c1.09-.47,1.03-.47,0,0h0Z"/><path class="cls-3" d="m160.88,405.23c-.09.04-.18.08-.28.12-2.47,1.06-8.39,3.62-13.24,6.14-1.73.9-3.04,1.58-3.91,2.05.19-.09.37-.17.52-.23,2.74-1.37,8.01-3.8,12.43-5.96,2.09-1.02,3.62-1.73,4.48-2.12Z"/><path class="cls-3" d="m138.55,416.07c-4.89,2.73-9.89,6.02-11.56,7.37-1.67,1.35.28.12,5.19-2.8,4.92-2.92,10.4-6.02,12.08-7.14.81-.54.63-.59-.3-.19-.15.06-.34.15-.52.23-1.07.49-2.73,1.33-4.89,2.53Z"/><path class="cls-3" d="m135.84,427.26c-.15-2.37-3.77-1.95-8.69,1.22-4.92,3.17-8.52,7.91-8.29,10.51.22,2.6,4.13,1.9,8.98-1.51,4.85-3.42,8.14-7.86,8-10.22Z"/><path class="cls-3" d="m150.59,451.66c-3.91-4.14-10.13-4.6-14.8-.86-4.66,3.74-5.25,10.07-1.14,14.45,4.11,4.39,10.74,4.94,15.19,1.05,4.44-3.89,4.66-10.51.75-14.65Z"/><path class="cls-3" d="m176.44,517.85c4.37-3.15,5.79-12.12,2.65-19.89-3.14-7.77-9.65-11.16-14.03-7.7-4.37,3.46-4.61,12.04-1.49,19.54,3.12,7.5,8.5,11.19,12.87,8.04Z"/><path class="cls-3" d="m199.21,567.9c-2.13-10.23-7.81-16.25-12.24-13.39-4.43,2.86-5.82,13.28-3.8,23.27.45,2.24,1.05,4.27,1.76,6.06h14.09c1.19-4.44,1.39-10.22.19-15.95Z"/><path class="cls-3" d="m369.91,45.74c4.52-1.45,5.83-9.26,2.83-17.37-.16-.44-.34-.87-.52-1.29h-17.85c.25,1.99.78,4.12,1.63,6.3,3.2,8.24,9.39,13.81,13.91,12.36Z"/><path class="cls-3" d="m386.61,103.25c4.18-1.67,6.34-8.79,4.64-15.94-1.71-7.15-6.76-11.67-11.08-10.09-4.32,1.58-6.15,8.73-4.31,15.97,1.85,7.23,6.57,11.73,10.74,10.06Z"/><path class="cls-3" d="m390.08,129.66c-4.07,1.73-7.26,7.86-8.03,13.09-.77,5.23,1.65,8,5.56,6.21,3.9-1.79,7.93-7.42,8.91-12.57.98-5.15-2.38-8.46-6.44-6.74Z"/><path class="cls-3" d="m373.14,182.4c3.86-1.72,8.78-6.52,10.96-10.64,2.18-4.12.85-5.94-2.97-4.15-3.82,1.79-8.68,6.47-10.91,10.52-2.23,4.05-.95,5.99,2.92,4.27Z"/><path class="cls-3" d="m362.18,197.39c-4.01,1.59-9.87,5.44-13.05,8.75-3.17,3.31-2.23,4.64,1.97,3.19,4.2-1.45,9.93-5.18,12.9-8.65,2.98-3.47,2.18-4.88-1.83-3.29Z"/><path class="cls-3" d="m326.23,231.14c4.63-1.14,10.87-4.55,14.09-7.4,3.21-2.86,2.34-3.95-2.08-2.66-4.42,1.29-10.88,4.35-14.3,7.06-3.42,2.71-2.33,4.15,2.29,3.01Z"/><path class="cls-3" d="m300.69,252.54c5.04-.84,11.55-4.07,14.75-6.95,3.19-2.89,2.01-4.22-2.85-3.25-4.85.98-11.71,3.77-15.08,6.51-3.38,2.75-1.86,4.52,3.18,3.68Z"/><path class="cls-3" d="m277.81,276.11c5.32-.61,11.66-3.98,14.44-7.21,2.77-3.23,1.02-5.03-4.2-4.33-5.21.7-12.02,3.54-14.9,6.68-2.88,3.14-.66,5.47,4.66,4.86Z"/><path class="cls-3" d="m260.88,304.43c5.34-.54,10.98-4.43,12.94-8.33,1.95-3.9-.54-6.32-5.91-5.77-5.37.55-11.59,3.82-13.52,7.71-1.93,3.89,1.15,6.93,6.49,6.4Z"/><path class="cls-3" d="m263.23,329.64c.76-4.85-2.56-8.02-7.77-7.43-5.21.59-10.21,4.74-10.73,9.72-.45,4.27,2.96,6.91,7.98,6.17,5.02-.73,9.89-4.42,10.52-8.46Z"/><path class="cls-3" d="m253.79,355.83c1.73-2.81-1.01-4.55-5.89-3.64-4.88.91-9.98,4.25-11.65,7.17-1.67,2.92.68,4.2,5.5,3.18,4.82-1.03,10.31-3.9,12.04-6.71Z"/><path class="cls-3" d="m224.65,378.87c4.87-1.15,10.83-3.36,13.18-5.24,2.35-1.88.24-2.73-4.58-1.62s-10.55,3.81-12.94,5.73c-2.4,1.92-.52,2.28,4.35,1.13Z"/><path class="cls-3" d="m205,389.74c5.06-1.16,11.25-2.86,13.78-4.15,2.53-1.28.52-1.62-4.43-.46-4.96,1.17-11.06,3.4-13.69,4.67-2.63,1.28-.71,1.09,4.35-.07Z"/><path class="cls-3" d="m194.83,394.16c-5.19,1.13-11.34,3.11-13.72,4.09-2.38.98.03.59,5.33-.51,5.3-1.1,11.4-2.52,13.65-3.53,2.26-1.02-.09-1.18-5.27-.05Z"/><path class="cls-3" d="m172.38,405.7c5.51-1.03,11.31-2.6,12.85-3.67,1.54-1.07-1.51-1.36-6.93-.31-5.42,1.06-11.24,3.04-12.86,4.08-1.63,1.04,1.44.92,6.95-.1Z"/><path class="cls-3" d="m168.01,420.59c5.57-1.05,9.53-3.5,9.44-5.69-.09-2.19-4.24-3.3-9.82-2.27-5.58,1.03-10.5,3.83-10.4,6.04.1,2.22,5.21,2.98,10.79,1.92Z"/><path class="cls-3" d="m187.35,447.24c5.28-1.17,6.36-6.22,2.93-9.98-3.44-3.76-9.98-5.98-15.44-4.85-5.46,1.13-7.65,5.28-4.01,9.16,3.64,3.88,11.23,6.84,16.51,5.68Z"/><path class="cls-3" d="m213.07,502.57c5.12-.9,7.1-8.33,4.03-16.41-3.07-8.08-10.07-13.68-15.24-12.69-5.16.99-6.47,8.11-3.36,16.1,3.11,7.99,9.44,13.9,14.56,13Z"/><path class="cls-3" d="m231.96,577.9c5.19-.87,7.83-9.94,5.57-20.27-2.26-10.33-8.55-18.01-13.68-17.15-5.13.86-7.19,9.93-4.98,20.27,2.21,10.34,7.91,18.02,13.1,17.16Z"/><path class="cls-3" d="m402.25,30.97c1.27-.76,2.26-2.13,2.95-3.89h-11.75c2.71,3.82,6.08,5.5,8.8,3.89Z"/><path class="cls-3" d="m410.48,61.19c-3.6,2.52-5.14,10.33-3.66,17.34,1.48,7.01,5.21,10.45,8.56,7.78,3.35-2.67,5.25-10.33,4.02-17.19-1.23-6.86-5.32-10.45-8.92-7.93Z"/><path class="cls-3" d="m417.5,111.98c-3.12,2.8-5.66,9.8-6.85,14.89-1.18,5.09.21,6.88,3.18,4.04,2.97-2.84,6.46-9.23,7.8-14.29,1.34-5.06-1.02-7.44-4.14-4.64Z"/><path class="cls-3" d="m399.55,165.25c3.05-2.68,7.12-8.39,9.12-12.73,2-4.33,1.26-5.55-1.69-2.77-2.95,2.79-7.04,8.45-9.14,12.67-2.1,4.22-1.34,5.5,1.71,2.82Z"/><path class="cls-3" d="m389.99,181.49c-3.26,2.49-8.14,7.42-10.86,11.1-2.72,3.68-2.06,4.4,1.45,2.1,3.5-2.3,8.34-6.84,10.81-10.73,2.46-3.89,1.87-4.95-1.39-2.46Z"/><path class="cls-3" d="m359.47,219.25c4.05-1.9,9.43-6.17,12.11-9.42,2.68-3.25,1.86-4.08-1.93-1.98-3.79,2.09-9.32,6.15-12.26,9.2-2.94,3.05-1.97,4.1,2.08,2.2Z"/><path class="cls-3" d="m347.85,231.95c-4.34,1.68-10.38,5.38-13.33,8.45-2.95,3.07-1.5,4.5,3.08,3.01,4.58-1.5,10.38-5.48,13.09-8.74,2.71-3.26,1.5-4.39-2.85-2.72Z"/><path class="cls-3" d="m317.36,269.12c4.98-1.17,10.86-5.13,13.32-8.64,2.46-3.51.69-5.11-4.12-3.81-4.82,1.31-11.03,4.9-13.65,8.27-2.62,3.37-.53,5.34,4.45,4.17Z"/><path class="cls-3" d="m313.65,289.16c1.93-4-.45-6.17-5.55-5.12-5.1,1.05-11.04,4.87-12.99,8.81-1.95,3.94.85,6.56,5.97,5.56,5.12-1,10.64-5.25,12.57-9.25Z"/><path class="cls-3" d="m301.78,322.51c1.15-4.67-1.84-7.51-6.89-6.51-5.05,1-10.16,5.46-11.15,10.2-.81,3.9,2.24,6.05,7.16,5.02,4.91-1.03,9.93-4.85,10.88-8.7Z"/><path class="cls-3" d="m290.91,348.19c1.77-2.84-.83-4.5-5.66-3.49-4.83,1.02-10.03,4.3-11.79,7.09-1.76,2.78.58,4.03,5.41,3.07,4.82-.96,10.28-3.83,12.05-6.68Z"/><path class="cls-3" d="m262.51,371.73c4.97-.72,10.82-2.76,13-4.84,2.18-2.07-.07-3.26-4.94-2.41-4.88.85-10.6,3.32-12.87,5.26-2.27,1.94-.16,2.7,4.81,1.98Z"/><path class="cls-3" d="m258.32,380.74c2.23-1.58-.1-2.62-5.21-2.09-5.11.54-11.18,2.32-13.57,3.72-2.39,1.4-.06,2.01,5.2,1.65,5.26-.36,11.34-1.7,13.57-3.28Z"/><path class="cls-3" d="m235.77,389.44c-5.45.13-11.62,1.4-13.72,2.55-2.1,1.15.81,1.91,6.42,1.98,5.61.07,11.67-.75,13.6-2.11,1.93-1.36-.86-2.56-6.31-2.43Z"/><path class="cls-3" d="m208.32,400.9c-1.41,1.21,2.19,2.53,8.12,3.04,5.92.51,11.81-.15,13.09-1.57,1.27-1.42-2.27-3.03-8.05-3.33-5.79-.3-11.74.65-13.15,1.87Z"/><path class="cls-3" d="m212.95,420.08c6.09.85,10.45-.3,10.29-2.71-.16-2.41-4.76-5.03-10.8-5.74-6.05-.7-11.31.67-11.2,2.93.11,2.26,5.62,4.66,11.71,5.51Z"/><path class="cls-3" d="m230.37,447.01c5.88,1.01,7.72-2.51,4.64-6.3-3.07-3.79-9.83-7.66-15.86-8.62-6.03-.96-8.96,1.3-5.73,5.03,3.23,3.73,11.07,8.87,16.95,9.89Z"/><path class="cls-3" d="m254.63,502.91c5.66.91,8.08-5.02,5.15-13.02-2.94-8-10.19-15.09-15.92-16.09-5.73-1-7.68,4.54-4.67,12.61,3.01,8.08,9.78,15.58,15.44,16.49Z"/><path class="cls-3" d="m273.75,577.02c5.66.58,8.56-7.12,6.24-17.16-2.33-10.04-8.99-18.75-14.63-19.51-5.64-.76-8.1,6.86-5.8,17.07,2.3,10.22,8.53,19.02,14.19,19.6Z"/><path class="cls-3" d="m438.78,63.24c2.78-3.26,4.77-11.03,4.19-17.51-.57-6.49-3.75-9.38-6.85-6.31-3.11,3.08-4.7,11.11-3.8,17.78.9,6.67,3.68,9.3,6.46,6.04Z"/><path class="cls-3" d="m434,106.42c2.32-3.46,5.44-10.33,7.06-15.36,1.62-5.04.17-6.75-2.29-3.32-2.46,3.43-4.8,10.83-6.29,15.87-1.5,5.04-.8,6.27,1.53,2.81Z"/><path class="cls-3" d="m427.15,125.8c-2.34,3.38-5.79,9.76-7.66,14.24-1.87,4.48-1.34,5.48,1.13,2.24,2.48-3.24,5.82-9.61,7.56-14.23,1.73-4.62,1.31-5.62-1.03-2.25Z"/><path class="cls-3" d="m412.86,160.09c-2.73,3.02-6.73,8.8-8.88,12.94-2.15,4.14-1.53,4.6,1.47,1.8,3-2.81,7.05-7.92,8.91-12.3,1.86-4.38,1.22-5.45-1.51-2.44Z"/><path class="cls-3" d="m396.87,189.74c-3.33,2.56-7.98,7.42-10.35,10.9-2.36,3.48-1.29,4.46,2.33,2.12,3.63-2.34,8.2-7.28,10.26-10.99,2.06-3.71,1.08-4.6-2.25-2.03Z"/><path class="cls-3" d="m368.04,227.28c-2.41,3.48-.86,4.86,3.38,2.99,4.23-1.88,9.33-6.46,11.47-10.15,2.14-3.7.72-4.93-3.23-2.84-3.96,2.09-9.2,6.53-11.61,10.01Z"/><path class="cls-3" d="m362.33,245.12c-4.51,1.66-10.1,5.87-12.35,9.55-2.25,3.68-.14,5.57,4.56,4.08s10.1-5.91,12.15-9.76c2.05-3.85.15-5.53-4.36-3.88Z"/><path class="cls-3" d="m351.75,279.67c1.81-4.16-.55-6.33-5.41-4.99-4.86,1.34-10.46,5.59-12.34,9.67-1.87,4.08.75,6.51,5.67,5.25,4.92-1.26,10.27-5.77,12.08-9.93Z"/><path class="cls-3" d="m328.2,322.6c4.79-1.19,9.81-5.24,11.06-9.21,1.44-4.59-1.27-7.27-6.16-6.04-4.89,1.23-10.04,5.88-11.35,10.5-1.1,3.89,1.67,5.93,6.46,4.74Z"/><path class="cls-3" d="m315.75,347.88c4.77-.85,9.94-3.99,11.68-7.15,1.75-3.16-.63-5-5.37-3.97-4.74,1.03-9.93,4.47-11.69,7.45-1.76,2.98.61,4.52,5.38,3.67Z"/><path class="cls-3" d="m313.09,362.51c1.94-2.55-.2-4.18-5.06-3.59-4.86.6-10.44,3.12-12.49,5.42-2.05,2.3.3,3.69,5.29,3.35,4.99-.34,10.32-2.64,12.26-5.19Z"/><path class="cls-3" d="m298.24,380.45c1.88-2.16-.39-3.88-5.56-3.86-5.17.02-11.04,1.71-13.08,3.57-2.04,1.86.67,3.41,6.02,3.7,5.35.29,10.75-1.25,12.62-3.41Z"/><path class="cls-3" d="m284.92,396.25c1.54-1.99-1.15-4.06-6.72-4.71-5.57-.65-11.57.35-13.3,2.01-1.73,1.67,1.64,3.63,7.41,4.61,5.77.98,11.06.07,12.61-1.92Z"/><path class="cls-3" d="m275.17,411.62c.95-2.05-2.38-4.67-8.37-6.02-5.98-1.35-11.86-.89-12.96.83-1.1,1.73,2.97,4.46,9.12,6.14,6.15,1.68,11.25,1.09,12.2-.96Z"/><path class="cls-3" d="m261.03,432.4c6.39,2.28,10.12,1.45,9.84-1.46-.28-2.91-4.48-6.59-10.79-8.61-6.32-2.01-11.68-1.45-11.46,1.19.22,2.64,6.03,6.59,12.42,8.87Z"/><path class="cls-3" d="m282.07,457.44c-2.77-4.09-8.75-9.02-15.12-11.56-6.37-2.54-9.77-1.46-6.86,2.46,2.91,3.92,10.75,10.47,16.99,13.12,6.24,2.66,7.76.07,4.99-4.02Z"/><path class="cls-3" d="m299.48,515.51c5.98,2.29,7.92-2.64,5.15-10.27-2.77-7.63-9.23-15.2-15.3-17.7-6.07-2.5-8.52,1.57-5.68,9.39,2.85,7.83,9.84,16.28,15.82,18.57Z"/><path class="cls-3" d="m324.4,571.54c-2.36-9.46-8.51-18.33-14.45-20.33-5.94-2-8.7,4.2-6.36,13.96,1.83,7.64,6.25,15.02,10.93,18.69h9.58c1.45-2.57,1.62-7,.3-12.31Z"/><path class="cls-3" d="m453.94,32.48c.2,6.27,2.04,8.42,4.35,5.03,1.51-2.23,2.95-6.23,3.82-10.43h-7.89c-.22,1.83-.33,3.67-.27,5.39Z"/><path class="cls-3" d="m455.76,60.59c-1.97,3.58-4.37,10.89-6.11,15.92-1.74,5.04-1.52,6.16.33,2.54,1.85-3.61,4.64-10.62,6.46-15.66,1.82-5.04,1.28-6.39-.69-2.81Z"/><path class="cls-3" d="m443.43,99.11c-1.91,3.53-4.84,10.28-6.41,15.06-1.57,4.78-1.05,5.9,1.03,2.52,2.09-3.38,4.78-10.12,6.17-15.05,1.4-4.93,1.12-6.06-.79-2.54Z"/><path class="cls-3" d="m427.2,152.62c2.69-2.94,6.02-8.38,7.21-13.28,1.19-4.9.32-6.29-2.06-3.13-2.38,3.16-5.61,9.49-7.13,14.14-1.52,4.65-.71,5.21,1.98,2.27Z"/><path class="cls-3" d="m421.24,169.41c-3.06,2.7-6.96,8.1-8.67,12.07-1.71,3.96-.32,5.17,3.08,2.7,3.4-2.47,7.24-7.86,8.61-12.05,1.38-4.19.04-5.41-3.02-2.72Z"/><path class="cls-3" d="m403.14,215.3c4.09-2,8.58-6.99,10.08-11.15,1.49-4.16-.32-5.73-4.09-3.51-3.77,2.22-8.34,7.19-10.15,11.13-1.81,3.94.08,5.53,4.16,3.53Z"/><path class="cls-3" d="m390.16,246.8c4.64-1.61,9.65-6.34,11.23-10.55,1.58-4.21-.68-6.17-5.09-4.39-4.4,1.78-9.5,6.45-11.31,10.49-1.81,4.04.53,6.05,5.17,4.45Z"/><path class="cls-3" d="m389.06,269.1c1.63-4.35-.95-6.67-5.79-5.21-4.84,1.46-10.22,6.03-11.94,10.29-1.73,4.26.94,6.67,5.87,5.3,4.94-1.37,10.23-6.03,11.86-10.38Z"/><path class="cls-3" d="m370.53,297.51c-4.95,1.33-10.25,6.14-11.83,10.67-1.42,4.06,1.16,6.19,5.99,4.92,4.83-1.27,10.23-5.59,11.81-9.75,1.69-4.47-1.01-7.17-5.96-5.84Z"/><path class="cls-3" d="m351.14,341.07c4.67-.87,9.93-4.34,11.76-7.92,1.83-3.58-.5-5.75-5.21-4.66-4.71,1.09-9.95,4.86-11.74,8.22-1.79,3.37.52,5.23,5.19,4.35Z"/><path class="cls-3" d="m348.78,358.81c1.81-3.13-.48-5.31-5.16-4.72-4.68.59-10.01,3.5-11.88,6.34-1.87,2.84.47,4.76,5.21,4.45,4.74-.3,10.02-2.95,11.83-6.08Z"/><path class="cls-3" d="m323.61,385.96c4.96.39,10.23-1.49,11.86-4.34,1.63-2.84-.92-5.29-5.76-5.34-4.84-.05-10.23,2.05-11.97,4.56-1.74,2.5.92,4.73,5.88,5.12Z"/><path class="cls-3" d="m317.39,396.47c-5.1-.78-10.46.59-11.86,2.96-1.39,2.37,1.81,5.12,7.05,6.26,5.23,1.14,10.41-.06,11.67-2.78,1.26-2.73-1.76-5.65-6.86-6.43Z"/><path class="cls-3" d="m316.48,423.95c.73-2.78-2.91-6.35-8.28-7.9-5.37-1.55-10.52-.78-11.36,1.65-.83,2.42,2.92,5.99,8.39,7.9,5.47,1.91,10.51,1.14,11.24-1.64Z"/><path class="cls-3" d="m304.17,450.14c5.56,2.57,9.47,1.76,9.17-1.75-.3-3.51-4.69-8.16-10.25-10.43-5.56-2.27-10.2-1.56-9.91,1.65.29,3.21,5.43,7.96,10.99,10.53Z"/><path class="cls-3" d="m318.34,482.14c5.3,2.99,7.18,1.21,4.82-3.29-2.37-4.5-8.24-10.34-13.71-13.2-5.47-2.86-8.35-1.85-5.79,2.44,2.56,4.29,9.38,11.06,14.68,14.05Z"/><path class="cls-3" d="m339.72,533.33c5.17,2.58,7.21-1.45,4.49-8.62-2.73-7.17-9.2-14.93-14.4-17.74-5.2-2.81-7.11.56-4.36,7.96,2.75,7.4,9.1,15.81,14.27,18.39Z"/><path class="cls-3" d="m350.38,566.74c-5.2-2.26-7.35,3.12-4.9,12.25.44,1.63,1,3.27,1.65,4.86h16.39c-2.91-7.81-8.47-15.08-13.13-17.11Z"/><path class="cls-3" d="m469.65,33.01c-1.68,3.54-4.35,10.56-6.26,15.6-1.91,5.04-1.96,6.21-.4,2.65,1.56-3.57,4.15-10.54,6.13-15.59,1.98-5.05,2.2-6.19.53-2.65Z"/><path class="cls-3" d="m456.98,72.02c-1.64,3.47-4.1,10.44-5.3,15.54-1.2,5.1-.53,6.51,1.29,3.19,1.82-3.32,3.93-10.25,4.94-15.5,1.01-5.25.71-6.7-.93-3.23Z"/><path class="cls-3" d="m449.58,112.02c-2.13,3.09-4.61,9.81-5.42,14.98-.82,5.17.29,6,2.74,3.13,2.45-2.86,5.08-8.45,5.56-13.87.48-5.42-.75-7.33-2.88-4.24Z"/><path class="cls-3" d="m443.81,148.83c-2.83,2.61-5.94,8.39-6.93,12.84-.99,4.45.8,6.08,3.98,3.7,3.18-2.38,6.27-8.03,6.91-12.72.64-4.69-1.13-6.43-3.96-3.82Z"/><path class="cls-3" d="m428.75,195.69c-1.13,4.41,1.11,6.4,5,4.51,3.89-1.89,7.72-7.11,8.52-11.74.8-4.63-1.45-6.74-5.01-4.62-3.57,2.11-7.38,7.45-8.51,11.86Z"/><path class="cls-3" d="m419.41,229.53c-1.3,4.41,1.26,6.74,5.73,5.26,4.47-1.48,8.99-6.34,10.04-10.92,1.06-4.59-1.54-7.02-5.77-5.37-4.22,1.66-8.7,6.62-10,11.03Z"/><path class="cls-3" d="m425.83,258.98c1.39-4.55-1.32-7.23-6-5.91-4.68,1.32-9.68,6.04-11.19,10.49-1.51,4.46,1.14,7.04,5.93,5.81,4.79-1.23,9.86-5.85,11.25-10.4Z"/><path class="cls-3" d="m401.36,303.82c4.71-1.11,10.29-5.55,12.19-9.98,1.88-4.38-.68-7.3-5.5-6.11-4.82,1.18-10.05,5.99-11.84,10.4-1.74,4.29.44,6.8,5.15,5.69Z"/><path class="cls-3" d="m386.67,335.09c4.58-.66,9.77-4.37,11.66-8.44,1.9-4.07-.24-6.78-4.84-5.88-4.61.9-9.89,4.89-11.76,8.72-1.87,3.84.36,6.26,4.94,5.6Z"/><path class="cls-3" d="m384.6,356.72c1.66-3.77-.65-6.66-5.26-6.3-4.61.36-9.81,3.57-11.55,7.04-1.74,3.46.7,6.11,5.39,6.07,4.68-.05,9.76-3.03,11.42-6.81Z"/><path class="cls-3" d="m372.95,384.94c1.35-3.59-1.36-6.86-6.16-7.19-4.8-.33-9.98,2.12-11.46,5.35s1.39,6.32,6.32,7.01c4.94.69,9.95-1.58,11.3-5.17Z"/><path class="cls-3" d="m363.99,412.23c.96-3.53-2.29-7.35-7.39-8.46-5.1-1.11-10.22.61-11.33,3.76-1.11,3.15,2.34,6.84,7.58,8.33s10.18-.1,11.14-3.63Z"/><path class="cls-3" d="m349.58,429.48c-5.39-1.92-10.37-.84-10.98,2.36-.61,3.2,3.36,7.74,8.87,10.04,5.51,2.3,10.39,1.2,10.88-2.39.49-3.58-3.37-8.08-8.77-10.01Z"/><path class="cls-3" d="m347.22,471.76c5.63,3.01,9.63,2,9.3-2.19-.33-4.18-4.87-9.7-10.48-12.39-5.61-2.69-10.23-1.81-9.92,2.05.31,3.86,5.46,9.51,11.09,12.53Z"/><path class="cls-3" d="m359.46,507.18c5.4,3.47,7.61,2.32,5.63-2.66-1.98-4.98-7.7-11.57-13.26-14.9-5.55-3.33-8.74-2.33-6.58,2.42,2.16,4.75,8.82,11.67,14.21,15.14Z"/><path class="cls-3" d="m379.81,554.97c5.25,3.01,7.34-.23,4.69-6.88-2.66-6.64-9.08-14.34-14.36-17.61-5.28-3.26-7.37-.67-4.68,6.22,2.69,6.89,9.11,15.25,14.36,18.26Z"/><path class="cls-3" d="m469.04,46.61c-1.53,3.09-3.65,10.03-4.45,15.45-.81,5.42.14,7.38,1.85,4.44,1.71-2.94,3.35-9.81,3.97-15.38.62-5.57.16-7.6-1.37-4.51Z"/><path class="cls-3" d="m465.24,109.36c2.34-2.49,4.37-7.99,4.12-13.94-.24-5.94-1.94-8.61-3.95-5.9-2.01,2.71-3.84,9.59-3.93,15.28-.09,5.7,1.42,7.04,3.76,4.55Z"/><path class="cls-3" d="m464.79,148.36c3.06-2.01,5.48-7.72,5.38-12.9-.1-5.18-2.39-7.69-5.1-5.44-2.72,2.24-5.11,8.18-5.36,13.13-.25,4.95,2.02,7.22,5.08,5.21Z"/><path class="cls-3" d="m463.16,186.91c3.77-1.53,6.97-6.77,7.08-11.88.11-5.11-2.64-7.96-6.08-6.21-3.44,1.75-6.56,7.24-6.99,12.13-.44,4.88,2.23,7.49,6,5.96Z"/><path class="cls-3" d="m461.36,206.99c-4.1,1.3-7.99,6.35-8.76,11.14-.78,4.79,2.05,7.63,6.39,6.51,4.34-1.12,8.39-5.91,8.92-10.88.53-4.96-2.45-8.08-6.55-6.78Z"/><path class="cls-3" d="m450.89,261.17c4.66-.87,9.51-5.28,10.67-10.03,1.16-4.75-1.72-7.97-6.27-7.01-4.55.97-9.18,5.65-10.44,10.31-1.27,4.66,1.39,7.6,6.05,6.73Z"/><path class="cls-3" d="m449.59,286.62c2.05-4.32-.36-7.59-5.04-6.76-4.69.83-9.85,5.43-11.82,9.78-2.07,4.58-.24,7.61,4.35,6.84,4.59-.77,10.28-5.16,12.51-9.87Z"/><path class="cls-3" d="m432.98,322.39c1.93-4.56-.02-7.92-4.51-7.35-4.49.57-9.79,4.68-11.71,9.01-1.92,4.33.25,7.43,4.73,7.09,4.48-.35,9.56-4.2,11.49-8.76Z"/><path class="cls-3" d="m419.83,356.82c1.49-4.42-.86-8.05-5.38-8.01-4.52.05-9.56,3.54-11.14,7.65-1.58,4.12.98,7.56,5.59,7.81,4.61.25,9.44-3.04,10.93-7.45Z"/><path class="cls-3" d="m410.06,390.42c1.06-4.34-1.83-8.43-6.57-9.04-4.74-.61-9.66,2.2-10.86,6.2-1.2,3.99,1.89,7.94,6.77,8.9,4.89.96,9.6-1.72,10.66-6.05Z"/><path class="cls-3" d="m403.58,423.68c.63-4.33-2.85-8.99-7.92-10.35-5.06-1.37-9.91.78-10.7,4.74-.79,3.96,2.89,8.53,8.11,10.27,5.22,1.74,9.87-.33,10.5-4.65Z"/><path class="cls-3" d="m389.87,460.53c5.52,2.53,10.18.94,10.4-3.44.23-4.38-3.86-9.69-9.25-11.85-5.39-2.16-10.14-.64-10.5,3.37-.35,4.01,3.83,9.39,9.34,11.92Z"/><path class="cls-3" d="m399.97,492.79c-.4-4.85-5.06-11.07-10.69-13.97-5.63-2.9-10.16-1.66-9.8,2.89.36,4.54,5.51,10.92,11.18,14.14,5.66,3.21,9.71,1.8,9.31-3.05Z"/><path class="cls-3" d="m401.15,534.74c5.45,3.65,7.98,2.9,6.36-2.56-1.62-5.45-7.18-12.57-12.79-16.09-5.6-3.52-9.03-2.29-7.24,2.95,1.79,5.23,8.22,12.04,13.67,15.7Z"/><path class="cls-3" d="m420.25,579.07c5.27,3.22,7.4.56,4.85-5.56-2.56-6.12-8.87-13.56-14.19-17.02-5.32-3.46-7.57-1.45-4.96,4.91,2.61,6.36,9.03,14.45,14.3,17.67Z"/><path class="cls-3" d="m479.61,46.32c1.75-2.26,3.07-8.8,3.32-14.67.08-1.84.06-3.39-.05-4.57h-2.91c-1.34,3.08-2.68,8.33-3.03,13-.42,5.73.92,8.49,2.66,6.24Z"/><path class="cls-3" d="m480.88,71.07c-2.03,2.04-3.32,8.82-2.7,15.03.62,6.21,2.64,8.3,4.99,6.47s3.89-6.99,2.95-13.44c-.94-6.45-3.2-10.1-5.23-8.06Z"/><path class="cls-3" d="m485.82,115.11c-2.7,1.59-4.48,7.46-4,12.89.48,5.44,3.3,8.56,6.34,7.19,3.04-1.37,4.87-6.89,4.06-12.55-.81-5.66-3.69-9.13-6.4-7.54Z"/><path class="cls-3" d="m490.43,157.61c-3.41,1.12-5.89,6.56-5.65,11.91.25,5.35,3.38,8.76,7.1,7.85,3.72-.91,6.37-5.96,5.81-11.52-.56-5.56-3.86-9.36-7.26-8.23Z"/><path class="cls-3" d="m492.55,199.16c-4.03.7-7.38,5.64-7.64,10.8-.26,5.15,2.85,8.7,7.11,8.17,4.26-.53,7.89-5.06,7.91-10.37.03-5.32-3.36-9.29-7.39-8.59Z"/><path class="cls-3" d="m486.26,256.48c4.55-.31,9.21-4.31,10.15-9.24.94-4.93-2.1-8.86-6.55-8.47-4.45.39-8.73,4.86-9.77,9.71-1.04,4.85,1.63,8.31,6.17,8.01Z"/><path class="cls-3" d="m468.23,284.24c-2.41,4.83-.87,8.49,3.58,8.25,4.45-.24,10.2-4.37,12.77-9.29,2.23-4.27.01-8.01-4.54-7.73-4.55.28-9.67,4.48-11.81,8.78Z"/><path class="cls-3" d="m462.52,312.4c-4.37.09-9.64,4.18-11.59,8.97-1.95,4.79.17,8.62,4.53,8.7,4.36.09,9.3-3.77,11.25-8.73,1.95-4.97.17-9.03-4.2-8.94Z"/><path class="cls-3" d="m454.34,359.56c1.29-4.98-1.09-9.37-5.51-9.71-4.42-.33-9.26,3.33-10.65,8.06-1.39,4.73,1.28,8.95,5.8,9.54,4.52.58,9.07-2.91,10.36-7.89Z"/><path class="cls-3" d="m446.63,397.95c.73-5.01-2.32-9.85-6.98-10.75-4.66-.9-9.28,2.25-10.17,6.96-.89,4.71,2.41,9.45,7.23,10.65,4.82,1.2,9.19-1.85,9.92-6.86Z"/><path class="cls-3" d="m434.35,424.61c-5-1.56-9.53,1.04-9.98,5.76-.45,4.72,3.47,10.06,8.64,11.95,5.17,1.88,9.49-.67,9.78-5.72.28-5.05-3.44-10.43-8.44-11.99Z"/><path class="cls-3" d="m432.17,480.25c5.49,2.58,9.88.44,9.82-4.66-.06-5.1-4.37-11.05-9.71-13.31-5.35-2.25-9.83-.22-9.9,4.56-.08,4.77,4.31,10.83,9.79,13.41Z"/><path class="cls-3" d="m434.19,520.52c5.66,3.17,9.69,1.22,9.21-4.22-.48-5.44-5.26-12.12-10.87-15.03-5.61-2.91-10-1.16-9.56,4.02.44,5.18,5.58,12.06,11.23,15.23Z"/><path class="cls-3" d="m443.05,562.56c5.45,3.54,8.29,2.86,7.01-2.99-1.28-5.85-6.67-13.21-12.27-16.63-5.6-3.42-9.21-1.77-7.78,3.91,1.44,5.68,7.59,12.18,13.04,15.71Z"/><path class="cls-3" d="m451.79,582.97c-4.13-2.64-6.48-2.2-6.16.87h7.39c-.41-.3-.83-.62-1.23-.87Z"/><path class="cls-3" d="m493.66,32.63c1.06-.69,1.88-2.78,2.41-5.54h-5.96c.45,4.21,1.96,6.57,3.55,5.54Z"/><path class="cls-3" d="m495.24,73.12c1.29,6.7,3.89,9.75,6.36,8.87,2.48-.87,3.68-5.43,2.1-12.35-1.59-6.92-4.47-11.77-6.66-10.7-2.19,1.07-3.08,7.48-1.79,14.18Z"/><path class="cls-3" d="m506.92,106.27c-2.8.66-4.09,6.2-2.91,12.09,1.17,5.9,4.6,10.08,7.7,9.62,3.11-.46,4.48-5.54,3.01-11.64-1.48-6.09-4.99-10.73-7.8-10.07Z"/><path class="cls-3" d="m516.71,152.22c-3.45.24-5.4,5.37-4.51,11.16.89,5.79,4.52,10.19,8.25,10.14,3.73-.05,5.93-4.66,4.75-10.64-1.18-5.98-5.05-10.9-8.49-10.66Z"/><path class="cls-3" d="m516.72,206.85c.22,5.49,3.62,9.9,7.84,10.19,4.21.29,7.5-3.74,7.08-9.38-.42-5.64-4.22-10.63-8.23-10.77-4.01-.15-6.9,4.47-6.69,9.97Z"/><path class="cls-3" d="m520.78,256.96c4.44.47,8.97-2.93,9.75-8,.78-5.08-2.41-9.86-6.79-10.27-4.37-.41-8.36,3.64-9.21,8.65-.85,5.01,1.8,9.15,6.24,9.62Z"/><path class="cls-3" d="m505.45,293.22c4.3.46,10.06-3.13,12.98-8.12,2.46-4.21.47-8.53-3.94-9.01-4.42-.48-9.52,3.11-11.87,7.35-2.75,4.98-1.48,9.31,2.83,9.77Z"/><path class="cls-3" d="m488.52,332.74c4.23.63,9.01-3.02,10.96-8.25,1.95-5.23.34-10-3.89-10.52-4.23-.52-9.46,3.33-11.41,8.46-1.95,5.13.11,9.69,4.34,10.32Z"/><path class="cls-3" d="m472.25,362.22c-1.18,5.23,1.61,10.18,6.01,11.14,4.4.96,8.65-2.59,9.73-7.99,1.07-5.4-1.35-10.49-5.64-11.27-4.3-.78-8.92,2.9-10.1,8.13Z"/><path class="cls-3" d="m465.68,402.72c-.56,5.31,2.95,10.73,7.67,12.14,4.72,1.41,8.72-1.91,9.12-7.45.4-5.53-2.82-11.02-7.38-12.21-4.56-1.19-8.85,2.2-9.4,7.51Z"/><path class="cls-3" d="m472.43,457.03c5.09,1.93,9.04-1.09,8.96-6.71-.08-5.62-4.03-11.55-8.94-13.23-4.91-1.68-9.08,1.32-9.17,6.7-.09,5.38,4.06,11.31,9.14,13.24Z"/><path class="cls-3" d="m474.1,499.69c5.42,2.46,9.52-.26,9.15-5.93-.37-5.67-4.88-12.03-10.15-14.24-5.27-2.21-9.44.37-9.22,5.79.22,5.43,4.8,11.93,10.22,14.38Z"/><path class="cls-3" d="m477.48,543.94c5.6,2.88,9.58.32,8.99-5.57-.58-5.89-5.46-12.75-11.02-15.44-5.56-2.7-9.76-.37-9.22,5.33.53,5.7,5.64,12.8,11.25,15.68Z"/><path class="cls-3" d="m480.71,567.99c-5.56-3.05-9.31-.84-8.2,5.17.7,3.79,3.27,7.61,6.44,10.69h13.35c-1.17-5.98-6.19-12.9-11.59-15.86Z"/><path class="cls-3" d="m511.11,27.08h-2.83c.48.44.97.69,1.47.7.51.01.96-.25,1.36-.7Z"/><path class="cls-3" d="m521.53,79.86c2.73.37,3.76-3.3,1.61-10.62-2.15-7.32-5.71-13.57-8.2-13.78-2.49-.21-3.15,5.55-1.25,12.69,1.9,7.14,5.11,11.34,7.84,11.71Z"/><path class="cls-3" d="m536.19,128.81c3.28.72,4.33-3.66,2.27-10.13-2.06-6.47-6.24-12.46-9.25-13.01-3.01-.55-3.94,4.39-2.14,10.7,1.8,6.3,5.85,11.72,9.12,12.44Z"/><path class="cls-3" d="m543.61,154.64c-3.57-.91-5.12,3.68-3.65,9.85,1.47,6.18,5.6,11.73,9.41,12.8,3.81,1.07,5.68-2.86,3.97-9.2-1.72-6.33-6.16-12.54-9.73-13.45Z"/><path class="cls-3" d="m548.38,210.61c.63,5.78,4.31,11.2,8.52,12.54,4.21,1.34,7.25-1.97,6.46-7.86-.79-5.9-4.98-12.06-9.03-13.29-4.05-1.23-6.58,2.82-5.95,8.61Z"/><path class="cls-3" d="m557.15,245.61c-4.32-1.43-8.09,1.97-8.82,7.1-.73,5.13,1.87,10.07,6.22,11.53,4.35,1.46,8.82-1.11,9.52-6.27.7-5.16-2.6-10.93-6.92-12.36Z"/><path class="cls-3" d="m537.95,300.07c4.15,1.35,9.88-1.38,13.16-6.23,2.78-4.1,1.08-9.11-3.2-10.54-4.28-1.43-9.43,1.31-12.05,5.47-3.11,4.94-2.06,9.94,2.09,11.29Z"/><path class="cls-3" d="m527.55,320.83c-4.08-1.29-9.24,2.07-11.18,7.35-1.94,5.28.07,10.52,4.16,11.79,4.09,1.28,8.69-1.89,10.62-7.16,1.93-5.27.49-10.69-3.59-11.98Z"/><path class="cls-3" d="m514.87,362.09c-4.16-1.31-8.53,2.19-9.48,7.73-.95,5.54,1.94,11.1,6.21,12.47,4.27,1.37,8.19-2.02,9.04-7.63.85-5.6-1.61-11.27-5.77-12.58Z"/><path class="cls-3" d="m509.16,426.41c4.6,1.59,8.2-1.86,8.24-7.7.05-5.84-3.33-11.79-7.76-13.27s-8.36,2-8.57,7.73c-.21,5.73,3.5,11.66,8.09,13.25Z"/><path class="cls-3" d="m509.77,450.25c-4.8-1.73-8.56,1.59-8.28,7.43.28,5.85,4.65,12.14,9.62,14.01,4.98,1.87,8.53-1.51,8.07-7.49-.46-5.98-4.62-12.22-9.41-13.95Z"/><path class="cls-3" d="m515.39,517.55c5.32,2.16,9.07-1.09,8.39-7.12s-5.38-12.51-10.55-14.54c-5.17-2.03-8.98,1.05-8.45,6.94.53,5.89,5.28,12.55,10.6,14.71Z"/><path class="cls-3" d="m520.24,564.23c5.52,2.36,9.39-.84,8.69-6.96-.7-6.12-5.66-12.8-11.12-15.08-5.46-2.28-9.43.64-8.79,6.69.64,6.04,5.7,13,11.22,15.36Z"/><path class="cls-3" d="m529.02,34.21c2.55,1.54,3.95-1.57,3.83-7.12h-8.43c1.21,3.4,2.94,6.12,4.6,7.12Z"/><path class="cls-3" d="m535.62,62.94c-2.92-1.78-3.53,3.03-1.12,10.54,2.41,7.51,6.27,13.04,9.38,14.95,3.11,1.91,4.15-.57,1.54-8.23-2.61-7.66-6.87-15.48-9.79-17.26Z"/><path class="cls-3" d="m564.22,131.77c-2.54-6.78-7.38-14.27-10.71-16.31-3.33-2.04-4.06,2.02-1.73,8.67s7,13.46,10.54,15.63c3.54,2.17,4.44-1.21,1.9-7.99Z"/><path class="cls-3" d="m571.77,166.89c-3.77-2.32-5.05,1.45-3.1,7.95,1.96,6.49,6.56,13.35,10.52,15.79,3.96,2.44,5.64-.54,3.49-7.16-2.15-6.62-7.15-14.26-10.92-16.58Z"/><path class="cls-3" d="m585.73,216.39c-4.14-2.56-6.42.68-5.47,6.69.95,6,4.86,12.56,9.1,15.19,4.25,2.63,7.16.3,6.1-5.78-1.06-6.08-5.59-13.54-9.73-16.1Z"/><path class="cls-3" d="m597.19,275.94c.72-5.17-2.62-12.04-6.92-14.71-4.3-2.67-7.95-.15-8.65,5.02-.7,5.18,1.79,11.04,6.06,13.7,4.27,2.66,8.78,1.16,9.5-4.01Z"/><path class="cls-3" d="m582.54,310.95c3.19-3.88,1.88-9.71-2.26-12.3-4.14-2.59-9.41-.9-12.39,3.1-3.46,4.65-2.64,10.26,1.35,12.68,3.99,2.42,9.71.89,13.31-3.48Z"/><path class="cls-3" d="m561.61,347.28c1.91-5.03.64-10.98-3.28-13.17-3.92-2.19-9,.34-10.92,5.53-1.92,5.19.03,10.97,3.96,13.01,3.94,2.04,8.33-.33,10.24-5.36Z"/><path class="cls-3" d="m546.28,374.42c-4.01-1.91-8.1,1.14-8.82,6.74-.72,5.6,2.28,11.59,6.4,13.42,4.12,1.83,7.69-1.15,8.3-6.67.61-5.52-1.86-11.59-5.87-13.5Z"/><path class="cls-3" d="m543.93,439.22c4.45,1.74,7.62-1.63,7.31-7.49-.31-5.86-3.84-12.05-8.12-13.82-4.28-1.77-7.82,1.58-7.68,7.47.14,5.89,4.04,12.09,8.49,13.83Z"/><path class="cls-3" d="m548.83,485.54c4.83,1.71,7.96-1.87,7.11-7.93-.85-6.05-5.19-12.32-9.85-14.04-4.65-1.72-8,1.76-7.33,7.83.67,6.06,5.23,12.43,10.06,14.14Z"/><path class="cls-3" d="m555.77,532.5c5.18,1.7,8.56-2,7.55-8.1-1.01-6.1-5.87-12.35-10.9-14.06-5.03-1.71-8.45,1.78-7.6,7.89.86,6.11,5.76,12.57,10.94,14.27Z"/><path class="cls-3" d="m562.14,579.52c5.38,1.58,9.12-2.21,8.3-8.27-.82-6.06-5.83-12.17-11.16-13.83-5.33-1.65-9.03,1.83-8.27,7.96.76,6.12,5.74,12.55,11.13,14.13Z"/><path class="cls-3" d="m551.15,30.78c-3.43-3.48-6.39-1.16-5.96,5.33.44,6.49,4.05,14.69,7.46,18.16,4.24,4.32,7.06,2,6.63-4.5-.43-6.5-3.89-14.68-8.13-18.99Z"/><path class="cls-3" d="m560.14,83.67c-3.49-3.55-4.26-.11-1.46,7.68,2.8,7.79,7.31,14.9,10.92,18.55,4.23,4.28,6.22,3.1,3.36-4.73-2.85-7.82-8.59-17.2-12.82-21.51Z"/><path class="cls-3" d="m578.93,143.76c2.74,6.9,8.02,15.27,11.92,19.16,4.23,4.22,5.54,1.78,2.74-5.15-2.79-6.93-8.69-15.73-12.92-19.97-3.76-3.77-4.48-.93-1.74,5.97Z"/><path class="cls-3" d="m598.89,196.37c1.03,2.98,2.62,6.26,4.42,9.36v-13.14c-.51-.59-1.02-1.14-1.51-1.62-4.03-3.99-5.24-1.32-2.91,5.41Z"/><path class="cls-3" d="m603.31,321.13c-1.72.4-3.34,1.34-4.67,2.76-3.75,4-3.22,10.17.6,13.81,1.23,1.17,2.63,1.97,4.07,2.49v-19.05Z"/><path class="cls-3" d="m592.38,369.41c1.84-4.46-.09-10.73-4.54-14.52-3.75-3.19-8.73-1.91-10.63,2.85-1.9,4.76,0,10.97,3.75,13.83,4.57,3.48,9.59,2.3,11.43-2.16Z"/><path class="cls-3" d="m574.86,410.51c4.82,2.85,8.86.78,9.24-4.3.39-5.08-2.95-11.43-7.67-14.58-3.83-2.56-7.64-.31-8.13,5.03-.49,5.33,2.62,11.53,6.55,13.86Z"/><path class="cls-3" d="m577.48,453.05c4.96,2.22,8.43-.5,7.81-6.01-.62-5.51-5.01-11.88-9.91-14.39-4.06-2.08-7.25.9-6.75,6.63.5,5.73,4.64,11.89,8.85,13.77Z"/><path class="cls-3" d="m585.34,497.77c5.09,1.66,8.33-1.62,7.15-7.36-1.18-5.74-6.26-11.97-11.29-13.89-4.4-1.68-7.38,1.8-6.32,7.75,1.05,5.95,5.87,12,10.46,13.5Z"/><path class="cls-3" d="m594.96,543.21c5.24,1.15,8.57-2.6,7.28-8.4-1.29-5.8-6.65-11.63-11.82-13.01-4.8-1.28-7.86,2.5-6.68,8.49,1.18,6,6.25,11.84,11.22,12.92Z"/><path class="cls-3" d="m603.31,568.38c-1.2-.66-2.46-1.12-3.72-1.33-5.12-.84-8.56,3.14-7.67,9.02.43,2.87,1.82,5.63,3.74,7.77h7.66v-15.47Z"/><path class="cls-3" d="m592.22,37.12c3.63,2.46,7.8,2.1,11.09-.18v-9.86h-16.17c-.2,3.78,1.77,7.79,5.08,10.04Z"/><path class="cls-3" d="m588.4,83.49c4.9,3.3,7.98.18,7.55-6.31-.44-6.49-4.19-13.89-9.08-17.19-4.9-3.3-9.1-1.27-8.66,5.23.44,6.5,5.3,14.98,10.2,18.28Z"/><path class="cls-3" d="m595.62,112.72c-4.86-3.26-6.79-.04-3.99,7.73,2.53,7.02,7.25,13.58,11.68,17.17v-16.62c-2.46-3.59-5.21-6.62-7.69-8.28Z"/></g><g class="cls-4"><path class="cls-3" d="m36.68,58.7c2.93-7.17.98-16-4.16-19.17-3.65-2.26-7.94-.91-11.16,2.72v23.8c.17.11.33.23.5.33,5.15,2.87,11.89-.5,14.82-7.67Z"/><path class="cls-3" d="m83.04,34.58c5.29,4.16,11.19,1.65,12.39-5.48.11-.66.16-1.33.18-2.02h-17.74c1.21,3.07,2.96,5.76,5.17,7.5Z"/><path class="cls-3" d="m77,84.99c2.96-6.47.92-15.07-4.36-18.78-5.29-3.71-11.81-.84-14.75,5.97-2.94,6.81-1.23,14.98,4.04,18.34,5.27,3.36,12.11.93,15.07-5.53Z"/><path class="cls-3" d="m35.68,142.2c5.29,2.54,12.55-.71,16.11-7.29,3.56-6.58,2.07-14.31-3.21-17.25-5.28-2.93-12.34.37-15.91,7.35-3.58,6.97-2.28,14.65,3.01,17.19Z"/><path class="cls-3" d="m21.36,170.23v19.14c.94-1.07,1.78-2.27,2.48-3.57,3.46-6.39,2.33-13.21-2.48-15.57Z"/><path class="cls-3" d="m124.06,67.74c5.38,4.41,11.4,2.67,12.73-3.74,1.33-6.41-2.62-15.36-8.06-20.1-5.45-4.75-10.24-3.25-11.5,3.5-1.26,6.76,1.46,15.94,6.83,20.34Z"/><path class="cls-3" d="m113.59,95.8c-5.36-3.93-11.98-1.92-14.97,4.14-2.98,6.07-1.21,13.82,4.13,17.38,5.34,3.56,12.24,1.9,15.24-3.81,3.01-5.7.95-13.78-4.41-17.71Z"/><path class="cls-3" d="m76.56,162.44c5.34,2.69,12.62.25,16.17-5.44,3.55-5.69,2.01-12.82-3.33-15.93-5.34-3.11-12.45-.69-16.01,5.42-3.56,6.11-2.18,13.26,3.16,15.95Z"/><path class="cls-3" d="m45.56,193.77c-3.58,6.18-2.05,12.64,3.32,14.44,5.37,1.8,12.53-1.42,16.1-7.18,3.56-5.76,2.16-12.22-3.19-14.44-5.35-2.22-12.64,1-16.22,7.18Z"/><path class="cls-3" d="m39.69,245.4c2.91-5.78,1.1-11.56-4.29-12.9-4.75-1.19-10.69,1.72-14.03,6.64v13.33c.94.81,2.11,1.38,3.5,1.63,5.4.97,11.91-2.92,14.82-8.7Z"/><path class="cls-3" d="m21.36,282.18v9.29c.24-.55.44-1.12.61-1.71.78-2.83.51-5.51-.61-7.58Z"/><path class="cls-3" d="m170.83,56.81c5.61,4.9,9.67,4.25,8.18-1.35-1.49-5.6-7.27-13.92-13.08-18.89-5.81-4.96-9.29-4.87-7.59.87,1.69,5.73,6.87,14.47,12.49,19.37Z"/><path class="cls-3" d="m165.5,101.43c5.39,4.3,11.49,3.06,12.97-2.64,1.48-5.7-2.3-13.98-7.76-18.61-5.47-4.63-10.46-3.63-11.87,2.4-1.41,6.03,1.28,14.54,6.67,18.84Z"/><path class="cls-3" d="m159.25,141.95c3.06-4.95,1.03-12.24-4.35-16.08-5.38-3.84-12.06-2.46-15.09,2.84-3.04,5.3-1.25,12.37,4.1,15.85,5.36,3.48,12.28,2.34,15.34-2.61Z"/><path class="cls-3" d="m133.87,179.01c3.54-4.81,2-11.12-3.35-14.15-5.35-3.04-12.49-1.32-16.04,3.91-3.55,5.22-2.14,11.63,3.22,14.26,5.35,2.63,12.62.8,16.17-4.01Z"/><path class="cls-3" d="m90.2,221.93c5.38,1.75,12.52-.84,16.06-5.72,3.54-4.88,2.11-10.52-3.25-12.68-5.37-2.16-12.65.34-16.2,5.63-3.55,5.29-1.98,11.03,3.4,12.78Z"/><path class="cls-3" d="m81.17,254.12c2.88-5,1.05-10.05-4.34-11.35-5.39-1.3-12.31,1.95-15.21,7.31-2.9,5.36-.64,10.5,4.76,11.44,5.4.94,11.9-2.4,14.79-7.4Z"/><path class="cls-3" d="m63.57,293.16c1.59-5.17-1.17-9.78-6.59-10.35s-11.43,3.34-13.02,8.78c-1.59,5.44,1.87,10.13,7.28,10.43,5.41.31,10.73-3.69,12.32-8.87Z"/><path class="cls-3" d="m58.39,333.76c-.17-5.24-4.54-9.79-9.94-9.86-5.4-.07-9.77,4.5-9.59,9.86.16,4.84,4.14,9.04,9.53,9.02,5.39-.01,10.16-4.18,10.01-9.02Z"/><path class="cls-3" d="m35.05,371.81c-.92,4.89,2.47,8.58,7.76,8.3,5.29-.29,10.53-4.29,11.52-9.01.99-4.72-2.72-8.5-8.07-8.38-5.35.12-10.28,4.21-11.2,9.09Z"/><path class="cls-3" d="m32.26,415.82c5.07-.83,10.51-5.05,12.05-9.5,1.54-4.45-1.49-7.67-6.67-7.12-5.19.55-10.48,4.86-11.91,9.6-1.43,4.73,1.46,7.86,6.54,7.03Z"/><path class="cls-3" d="m31.68,439.55c1.67-4.2-.96-6.7-5.89-5.51-1.49.36-2.99,1.06-4.43,1.95v13.35c4.38-1.88,8.8-5.99,10.32-9.79Z"/><path class="cls-3" d="m31.26,568.71c-2.91-3.2-6.62-4.39-9.89-3.47v18.61h10.7s.04-.03.06-.05c3.81-3.81,3.25-10.58-.86-15.09Z"/><path class="cls-3" d="m206.7,50.25c6.49,4.56,10.21,2.95,7.88-3.62-2.31-6.49-9.74-15.19-16.29-19.55h-8.26c.02.93.28,2.09.83,3.5,2.46,6.31,9.36,15.11,15.84,19.67Z"/><path class="cls-3" d="m216.19,94.43c6.11,4.73,10.93,4.16,9.93-1.17-1-5.33-6.92-13.79-13.25-18.57-6.32-4.79-10.51-4.23-9.27,1.22,1.24,5.45,6.48,13.8,12.59,18.52Z"/><path class="cls-3" d="m208.85,134.46c5.82,4.15,12.39,3.36,14.08-1.65,1.69-5.01-2.26-12.58-8.19-17.05-5.92-4.47-11.46-3.91-13.04,1.42-1.58,5.33,1.33,13.13,7.15,17.28Z"/><path class="cls-3" d="m202.83,169.74c3.18-4.2.89-10.69-4.87-14.4-5.76-3.7-12.78-2.92-15.89,1.63-3.12,4.54-1.12,10.92,4.59,14.27,5.71,3.35,13,2.7,16.17-1.5Z"/><path class="cls-3" d="m173.04,188.16c-5.66-2.93-13.05-1.87-16.62,2.48-3.57,4.35-1.96,10,3.67,12.53,5.63,2.53,13.18,1.28,16.78-2.66,3.6-3.95,1.84-9.42-3.83-12.35Z"/><path class="cls-3" d="m132.43,235.33c5.58,1.67,12.93-.32,16.5-4.33,3.57-4.01,1.97-8.84-3.63-10.91-5.6-2.07-13.07-.27-16.61,4.14-3.55,4.41-1.83,9.43,3.75,11.11Z"/><path class="cls-3" d="m108.49,268.73c5.53.89,12.18-1.92,15.1-6.15,2.92-4.23.97-8.56-4.59-9.8-5.56-1.25-12.59,1.36-15.49,5.95-2.9,4.58-.55,9.11,4.98,10.01Z"/><path class="cls-3" d="m105.64,296.43c1.65-4.61-1.15-8.66-6.66-9.2-5.5-.54-11.6,2.86-13.21,7.73-1.61,4.86,1.86,9.13,7.33,9.41,5.47.29,10.89-3.33,12.54-7.94Z"/><path class="cls-3" d="m99.85,333.76c-.12-5.02-4.38-9.22-9.8-9.29-5.42-.07-9.88,4.18-9.74,9.29.14,4.85,4.1,8.93,9.49,8.91,5.39-.01,10.16-4.04,10.04-8.91Z"/><path class="cls-3" d="m83.43,377.89c5.29-.29,10.67-3.94,11.79-8.29,1.12-4.36-2.5-7.92-7.85-7.8-5.35.12-10.36,3.98-11.42,8.51-1.06,4.53,2.2,7.87,7.48,7.58Z"/><path class="cls-3" d="m83.76,401.07c1.78-3.85-1.08-6.63-6.26-6.08-5.19.55-10.65,4.42-12.32,8.55-1.67,4.13,1.02,6.74,6.09,5.91,5.08-.83,10.72-4.53,12.5-8.38Z"/><path class="cls-3" d="m69.07,429.12c1.97-3.47-.44-5.39-5.37-4.2-4.93,1.19-10.42,5.3-12.25,9.12-1.83,3.81.6,5.6,5.39,4.07,4.79-1.53,10.26-5.52,12.22-8.99Z"/><path class="cls-3" d="m43.69,464.62c4.48-2.29,9.36-6.71,11.05-9.92,1.68-3.21-.6-4.29-5.23-2.35-4.63,1.93-9.73,6.44-11.27,10.01-1.54,3.57.97,4.56,5.45,2.27Z"/><path class="cls-3" d="m38.46,478.02c-4.32,2.68-8.74,7.19-9.45,11.03-.71,3.84,2.16,4.59,6.34,1.55,4.17-3.03,8.19-8.41,9.05-11.86.86-3.45-1.61-3.41-5.93-.72Z"/><path class="cls-3" d="m37.33,521.21c3.89-3.63,5.77-9.83,4.94-13.73-.83-3.9-4.19-4.25-8.19-.85-4,3.39-7.03,9.47-6.08,13.61.94,4.14,5.44,4.6,9.33.97Z"/><path class="cls-3" d="m61.42,554.48c3.81-3.81,3.25-10.62-.86-15.09-4.11-4.47-9.74-4.87-13.56-1.08-3.82,3.79-4.35,10.4-.24,14.89,4.11,4.49,10.85,5.09,14.67,1.28Z"/><path class="cls-3" d="m75.86,575.95c-1.93,1.87-3.06,4.73-3.38,7.9h16.48c-.22-1.18-.54-2.33-.99-3.42-2.63-6.44-8.26-8.2-12.11-4.48Z"/><path class="cls-3" d="m243.43,27.08h-5.92c2.75,1.19,4.78,1.12,5.92,0Z"/><path class="cls-3" d="m264.75,75.56c-2.13-7.01-9.46-15.39-16-18.77-6.54-3.38-9.75-.64-7.53,6.18,2.22,6.82,8.92,15.31,15.38,18.88,6.45,3.57,10.29.72,8.16-6.3Z"/><path class="cls-3" d="m261.64,107.77c-6.33-3.72-10.83-2.11-10.1,3.12.73,5.23,5.69,12.59,11.81,16.29,6.12,3.7,11.24,2.39,10.75-2.79-.49-5.18-6.13-12.9-12.46-16.62Z"/><path class="cls-3" d="m260.44,146.84c-5.93-3.52-11.76-2.75-13.56,1.93-1.81,4.68,1.03,11.29,6.85,14.56,5.83,3.28,12.49,2.21,14.41-2.23,1.91-4.43-1.76-10.74-7.69-14.27Z"/><path class="cls-3" d="m226.24,182.74c-3.25,3.85-1.29,9.13,4.43,11.76,5.72,2.63,13.06,1.84,16.37-1.74,3.31-3.59,1.15-8.81-4.62-11.72-5.77-2.91-12.92-2.15-16.17,1.7Z"/><path class="cls-3" d="m203.48,220.61c5.64,1.96,13.21.79,16.88-2.42,3.67-3.21,2-7.49-3.67-9.78-5.67-2.28-13.16-1.42-16.79,2.11-3.64,3.54-2.05,8.13,3.59,10.09Z"/><path class="cls-3" d="m175.4,246.74c5.58,1.25,12.95-.54,16.57-3.82,3.62-3.27,2.09-7.03-3.52-8.61-5.61-1.58-13.14-.11-16.74,3.49-3.6,3.6-1.89,7.68,3.69,8.94Z"/><path class="cls-3" d="m166.25,269.12c2.97-3.59,1.07-7.05-4.49-7.95-5.56-.91-12.66,1.33-15.61,5.2-2.95,3.87-.63,7.67,4.9,8.29,5.54.63,12.21-1.95,15.19-5.54Z"/><path class="cls-3" d="m147.83,298.74c1.72-4.16-1.02-7.63-6.52-7.98-5.5-.36-11.66,2.71-13.35,7.06-1.69,4.35,1.72,8.17,7.19,8.34,5.47.17,10.96-3.26,12.68-7.42Z"/><path class="cls-3" d="m141.31,333.76c-.06-4.93-4.17-8.86-9.59-8.89-5.42-.03-10.03,3.94-9.94,8.89.09,4.89,4.07,8.81,9.46,8.8,5.39-.01,10.14-3.89,10.07-8.8Z"/><path class="cls-3" d="m136.13,368.09c1.26-4-2.28-7.33-7.63-7.21-5.35.12-10.45,3.75-11.65,7.92-1.2,4.17,1.92,7.16,7.21,6.87,5.29-.29,10.8-3.59,12.07-7.58Z"/><path class="cls-3" d="m110.27,403.08c5.08-.83,10.92-4.01,12.94-7.26,2.02-3.25-.67-5.59-5.86-5.04-5.19.55-10.83,3.98-12.73,7.51-1.9,3.54.57,5.62,5.65,4.79Z"/><path class="cls-3" d="m106.45,418.69c2.26-2.74.09-4.08-4.84-2.9-4.93,1.19-10.65,4.73-12.77,7.81-2.12,3.08.06,4.26,4.85,2.73,4.79-1.53,10.5-4.91,12.76-7.65Z"/><path class="cls-3" d="m78.15,447.01c4.48-2.29,9.62-6.1,11.62-8.55,2-2.45-.04-2.9-4.67-.97-4.63,1.93-9.99,5.82-11.84,8.62-1.85,2.81.41,3.18,4.89.89Z"/><path class="cls-3" d="m71.66,457.42c-4.32,2.68-8.96,6.75-9.99,9.76-1.03,3.01,1.57,3.14,5.74.1,4.17-3.03,8.46-7.79,9.65-10.41,1.18-2.62-1.07-2.14-5.39.55Z"/><path class="cls-3" d="m72.55,480.39c-.59-3.39-3.71-3.24-7.71.16-4,3.39-7.26,8.97-6.56,12.61.71,3.63,5.05,3.76,8.94.12,3.89-3.63,5.92-9.49,5.33-12.88Z"/><path class="cls-3" d="m90.72,525.17c3.81-3.81,3.25-10.65-.86-15.09-4.11-4.44-9.68-4.68-13.5-.89-3.82,3.79-4.41,10.25-.3,14.71,4.11,4.45,10.85,5.09,14.67,1.28Z"/><path class="cls-3" d="m105.46,547.36c-3.85,3.72-4.4,11.64-1.67,18.3,2.73,6.66,7.8,9.67,11.74,6.15,3.94-3.52,5.17-12.45,2.35-19.3-2.82-6.86-8.56-8.86-12.42-5.14Z"/><path class="cls-3" d="m269.32,27.92c3.37,8.08,11.06,16.24,17.32,17.98,6.26,1.74,8.71-3.73,5.33-11.98-.97-2.36-2.31-4.68-3.88-6.84h-19.1c.11.28.2.55.32.83Z"/><path class="cls-3" d="m290.68,86.86c2.05,7.18,8.42,14.75,14.59,16.74,6.17,1.99,9.86-2.42,7.87-9.69-2-7.27-8.93-14.58-15.16-16.48-6.23-1.9-9.35,2.25-7.3,9.43Z"/><path class="cls-3" d="m309.47,130.28c-6.08-2.03-10.64.97-10.41,6.16.23,5.18,4.72,11.22,10.61,13.29,5.89,2.07,11.11-.64,11.1-5.89,0-5.25-5.22-11.53-11.3-13.57Z"/><path class="cls-3" d="m312.21,179.4c2.11-4.08-1.13-8.85-6.85-10.87-5.72-2.03-11.66-.45-13.68,3.76-2.02,4.21.57,9.35,6.21,11.24,5.63,1.89,12.21-.05,14.32-4.13Z"/><path class="cls-3" d="m270.11,201.77c-3.37,3.34-1.58,7.31,3.98,8.8,5.56,1.48,12.79.05,16.21-3.13,3.41-3.18,1.51-6.94-4.08-8.59-5.6-1.65-12.73-.41-16.1,2.93Z"/><path class="cls-3" d="m259.81,222.28c-5.53-1.26-12.99-.16-16.69,2.74-3.7,2.9-2.23,6.31,3.28,7.36,5.51,1.05,12.99-.49,16.7-3.18,3.71-2.69,2.23-5.66-3.29-6.92Z"/><path class="cls-3" d="m218.03,253.98c5.49.59,12.78-1.39,16.43-4.13,3.65-2.75,2.25-5.38-3.25-6.18-5.5-.8-13.01.71-16.65,3.67-3.64,2.96-2.02,6.05,3.47,6.64Z"/><path class="cls-3" d="m208.55,272.33c3-3.16,1.2-5.77-4.28-6.14-5.48-.37-12.57,1.79-15.56,5.12-2.99,3.33-.75,6.42,4.73,6.62,5.48.2,12.12-2.44,15.12-5.61Z"/><path class="cls-3" d="m177.1,306.8c5.44-.01,10.95-3.47,12.73-7.41,1.77-3.94-.89-6.9-6.35-6.96-5.46-.06-11.64,2.9-13.4,6.91-1.76,4.01,1.58,7.48,7.02,7.46Z"/><path class="cls-3" d="m173.35,324.92c-5.41.02-10.15,3.88-10.12,8.84.04,4.93,4.04,8.7,9.43,8.69,5.39-.01,10.12-3.75,10.11-8.69-.02-5.05-4-8.87-9.42-8.84Z"/><path class="cls-3" d="m164.7,373.46c5.29-.29,10.94-3.23,12.34-6.87,1.4-3.64-2.05-6.74-7.41-6.63-5.35.12-10.53,3.53-11.87,7.34-1.33,3.81,1.65,6.45,6.94,6.16Z"/><path class="cls-3" d="m149.28,396.71c5.08-.83,11.13-3.49,13.38-6.14,2.25-2.66-.26-4.55-5.45-4-5.19.55-11,3.53-13.14,6.47-2.14,2.94.13,4.5,5.21,3.67Z"/><path class="cls-3" d="m130.53,414.57c4.8-1.53,10.75-4.3,13.31-6.3,2.56-2,.61-2.78-4.32-1.59-4.93,1.19-10.88,4.15-13.3,6.5-2.42,2.35-.48,2.92,4.31,1.39Z"/><path class="cls-3" d="m124.78,422.22c2.31-1.68.53-1.52-4.1.41-4.63,1.93-10.24,5.2-12.4,7.24-2.16,2.04-.16,1.81,4.32-.48,4.48-2.29,9.87-5.49,12.18-7.17Z"/><path class="cls-3" d="m99.48,443.97c4.17-3.03,8.74-7.17,10.24-8.96,1.5-1.79-.53-.87-4.85,1.82-4.32,2.68-9.18,6.31-10.53,8.49-1.35,2.18.98,1.69,5.15-1.34Z"/><path class="cls-3" d="m102.84,453.31c-.35-2.87-3.24-2.23-7.24,1.16-4,3.39-7.49,8.48-7.03,11.6s4.66,2.91,8.55-.72c3.89-3.63,6.07-9.16,5.72-12.04Z"/><path class="cls-3" d="m119.16,480.76c-4.11-4.4-9.62-4.5-13.44-.71-3.82,3.79-4.47,10.1-.36,14.52,4.11,4.42,10.85,5.09,14.67,1.28,3.81-3.82,3.25-10.69-.86-15.09Z"/><path class="cls-3" d="m135.05,518.77c-3.85,3.72-4.29,11.89-1.37,18.96,2.92,7.08,8.19,10.52,12.13,6.99,3.94-3.52,4.97-12.87,1.96-20.15-3.01-7.28-8.87-9.53-12.72-5.8Z"/><path class="cls-3" d="m155.25,578.94c-1.32,1.03-2.39,2.75-3.18,4.91h12.22c-2.38-5.22-5.97-7.3-9.03-4.91Z"/><path class="cls-3" d="m316.28,37.2c3.4,8.38,10.7,15.3,16,15.1,5.3-.19,6.93-7.25,3.57-15.6-1.49-3.71-3.72-7.05-6.22-9.62h-14.9c-.5,2.69-.05,6.22,1.54,10.11Z"/><path class="cls-3" d="m343.49,84.44c-5.26.24-8.1,6.09-6.15,13.4,1.95,7.31,7.9,13.27,13.16,13.02,5.26-.25,8.1-6.4,6.17-13.69-1.93-7.29-7.92-12.97-13.18-12.73Z"/><path class="cls-3" d="m354.24,137.43c-5.31.22-9.74,4.95-9.96,10.35-.22,5.4,3.7,9.82,8.83,9.51,5.13-.31,9.82-4.92,10.31-10.27.49-5.35-3.86-9.82-9.17-9.6Z"/><path class="cls-3" d="m339.54,190.73c4.92-.38,10.77-4.03,13.01-8.05,2.23-4.01-.02-6.86-4.98-6.48-4.96.38-10.85,3.42-13.05,7.43-2.2,4.01.1,7.48,5.02,7.1Z"/><path class="cls-3" d="m327.76,204.95c-4.98.32-11.97,2.63-15.42,5.72-3.45,3.09-1.89,5.63,3.2,5.39s11.76-2.96,15.12-6.12c3.36-3.16,2.08-5.3-2.9-4.98Z"/><path class="cls-3" d="m287.97,236c5.35-.07,12.49-2.45,16.1-5.02,3.61-2.57,2.44-4.3-2.78-4.14-5.22.16-12.53,2.03-16.25,4.56-3.72,2.53-2.42,4.68,2.93,4.6Z"/><path class="cls-3" d="m272.91,246.19c-5.5-.02-12.85,2.01-16.49,4.6-3.64,2.59-2.16,4.67,3.44,4.77,5.6.1,12.81-2.24,16.36-4.86,3.55-2.62,2.18-4.48-3.32-4.51Z"/><path class="cls-3" d="m250.87,272.33c2.96-3.07,1.03-5.35-4.66-5.51-5.69-.16-12.65,2.34-15.64,5.4-2.99,3.06-.86,5.48,4.86,5.67,5.72.19,12.48-2.48,15.44-5.55Z"/><path class="cls-3" d="m218.94,306.15c5.58.12,11.25-3.33,13.1-7.24,1.85-3.91-.9-6.84-6.58-7.02-5.68-.18-11.8,3-13.58,6.94-1.78,3.94,1.49,7.2,7.06,7.32Z"/><path class="cls-3" d="m223.73,333.45c.22-5.14-3.51-8.88-8.87-8.88-5.36,0-10.17,3.97-10.17,9.19,0,4.95,4.03,8.65,9.13,8.36,5.1-.29,9.71-4.04,9.91-8.67Z"/><path class="cls-3" d="m204.86,370.55c4.77-1.05,10.15-4.2,11.73-7.37,1.57-3.17-1.36-5.38-6.25-4.67-4.89.72-10.2,3.82-11.67,7.27-1.47,3.45,1.42,5.81,6.19,4.76Z"/><path class="cls-3" d="m187.91,389.57c4.68-1.64,10.59-4.37,13-6.45,2.41-2.08.4-2.91-4.3-1.53-4.7,1.38-10.72,3.86-13.1,6.2-2.38,2.34-.29,3.42,4.39,1.78Z"/><path class="cls-3" d="m177.19,396.86c-4.7,1.9-10.88,4.27-13.59,5.89-2.71,1.62-1.04,1.58,3.7-.54,4.73-2.12,10.85-4.63,13.56-6.01,2.71-1.38,1.03-1.24-3.67.66Z"/><path class="cls-3" d="m160.88,405.23c1.09-.47,1.03-.47,0,0h0Z"/><path class="cls-3" d="m160.88,405.23c-.09.04-.18.08-.28.12-2.47,1.06-8.39,3.62-13.24,6.14-1.73.9-3.04,1.58-3.91,2.05.19-.09.37-.17.52-.23,2.74-1.37,8.01-3.8,12.43-5.96,2.09-1.02,3.62-1.73,4.48-2.12Z"/><path class="cls-3" d="m138.55,416.07c-4.89,2.73-9.89,6.02-11.56,7.37-1.67,1.35.28.12,5.19-2.8,4.92-2.92,10.4-6.02,12.08-7.14.81-.54.63-.59-.3-.19-.15.06-.34.15-.52.23-1.07.49-2.73,1.33-4.89,2.53Z"/><path class="cls-3" d="m135.84,427.26c-.15-2.37-3.77-1.95-8.69,1.22-4.92,3.17-8.52,7.91-8.29,10.51.22,2.6,4.13,1.9,8.98-1.51,4.85-3.42,8.14-7.86,8-10.22Z"/><path class="cls-3" d="m150.59,451.66c-3.91-4.14-10.13-4.6-14.8-.86-4.66,3.74-5.25,10.07-1.14,14.45,4.11,4.39,10.74,4.94,15.19,1.05,4.44-3.89,4.66-10.51.75-14.65Z"/><path class="cls-3" d="m176.44,517.85c4.37-3.15,5.79-12.12,2.65-19.89-3.14-7.77-9.65-11.16-14.03-7.7-4.37,3.46-4.61,12.04-1.49,19.54,3.12,7.5,8.5,11.19,12.87,8.04Z"/><path class="cls-3" d="m199.21,567.9c-2.13-10.23-7.81-16.25-12.24-13.39-4.43,2.86-5.82,13.28-3.8,23.27.45,2.24,1.05,4.27,1.76,6.06h14.09c1.19-4.44,1.39-10.22.19-15.95Z"/><path class="cls-3" d="m369.91,45.74c4.52-1.45,5.83-9.26,2.83-17.37-.16-.44-.34-.87-.52-1.29h-17.85c.25,1.99.78,4.12,1.63,6.3,3.2,8.24,9.39,13.81,13.91,12.36Z"/><path class="cls-3" d="m386.61,103.25c4.18-1.67,6.34-8.79,4.64-15.94-1.71-7.15-6.76-11.67-11.08-10.09-4.32,1.58-6.15,8.73-4.31,15.97,1.85,7.23,6.57,11.73,10.74,10.06Z"/><path class="cls-3" d="m390.08,129.66c-4.07,1.73-7.26,7.86-8.03,13.09-.77,5.23,1.65,8,5.56,6.21,3.9-1.79,7.93-7.42,8.91-12.57.98-5.15-2.38-8.46-6.44-6.74Z"/><path class="cls-3" d="m373.14,182.4c3.86-1.72,8.78-6.52,10.96-10.64,2.18-4.12.85-5.94-2.97-4.15-3.82,1.79-8.68,6.47-10.91,10.52-2.23,4.05-.95,5.99,2.92,4.27Z"/><path class="cls-3" d="m362.18,197.39c-4.01,1.59-9.87,5.44-13.05,8.75-3.17,3.31-2.23,4.64,1.97,3.19,4.2-1.45,9.93-5.18,12.9-8.65,2.98-3.47,2.18-4.88-1.83-3.29Z"/><path class="cls-3" d="m326.23,231.14c4.63-1.14,10.87-4.55,14.09-7.4,3.21-2.86,2.34-3.95-2.08-2.66-4.42,1.29-10.88,4.35-14.3,7.06-3.42,2.71-2.33,4.15,2.29,3.01Z"/><path class="cls-3" d="m300.69,252.54c5.04-.84,11.55-4.07,14.75-6.95,3.19-2.89,2.01-4.22-2.85-3.25-4.85.98-11.71,3.77-15.08,6.51-3.38,2.75-1.86,4.52,3.18,3.68Z"/><path class="cls-3" d="m277.81,276.11c5.32-.61,11.66-3.98,14.44-7.21,2.77-3.23,1.02-5.03-4.2-4.33-5.21.7-12.02,3.54-14.9,6.68-2.88,3.14-.66,5.47,4.66,4.86Z"/><path class="cls-3" d="m260.88,304.43c5.34-.54,10.98-4.43,12.94-8.33,1.95-3.9-.54-6.32-5.91-5.77-5.37.55-11.59,3.82-13.52,7.71-1.93,3.89,1.15,6.93,6.49,6.4Z"/><path class="cls-3" d="m263.23,329.64c.76-4.85-2.56-8.02-7.77-7.43-5.21.59-10.21,4.74-10.73,9.72-.45,4.27,2.96,6.91,7.98,6.17,5.02-.73,9.89-4.42,10.52-8.46Z"/><path class="cls-3" d="m253.79,355.83c1.73-2.81-1.01-4.55-5.89-3.64-4.88.91-9.98,4.25-11.65,7.17-1.67,2.92.68,4.2,5.5,3.18,4.82-1.03,10.31-3.9,12.04-6.71Z"/><path class="cls-3" d="m224.65,378.87c4.87-1.15,10.83-3.36,13.18-5.24,2.35-1.88.24-2.73-4.58-1.62s-10.55,3.81-12.94,5.73c-2.4,1.92-.52,2.28,4.35,1.13Z"/><path class="cls-3" d="m205,389.74c5.06-1.16,11.25-2.86,13.78-4.15,2.53-1.28.52-1.62-4.43-.46-4.96,1.17-11.06,3.4-13.69,4.67-2.63,1.28-.71,1.09,4.35-.07Z"/><path class="cls-3" d="m194.83,394.16c-5.19,1.13-11.34,3.11-13.72,4.09-2.38.98.03.59,5.33-.51,5.3-1.1,11.4-2.52,13.65-3.53,2.26-1.02-.09-1.18-5.27-.05Z"/><path class="cls-3" d="m172.38,405.7c5.51-1.03,11.31-2.6,12.85-3.67,1.54-1.07-1.51-1.36-6.93-.31-5.42,1.06-11.24,3.04-12.86,4.08-1.63,1.04,1.44.92,6.95-.1Z"/><path class="cls-3" d="m168.01,420.59c5.57-1.05,9.53-3.5,9.44-5.69-.09-2.19-4.24-3.3-9.82-2.27-5.58,1.03-10.5,3.83-10.4,6.04.1,2.22,5.21,2.98,10.79,1.92Z"/><path class="cls-3" d="m187.35,447.24c5.28-1.17,6.36-6.22,2.93-9.98-3.44-3.76-9.98-5.98-15.44-4.85-5.46,1.13-7.65,5.28-4.01,9.16,3.64,3.88,11.23,6.84,16.51,5.68Z"/><path class="cls-3" d="m213.07,502.57c5.12-.9,7.1-8.33,4.03-16.41-3.07-8.08-10.07-13.68-15.24-12.69-5.16.99-6.47,8.11-3.36,16.1,3.11,7.99,9.44,13.9,14.56,13Z"/><path class="cls-3" d="m231.96,577.9c5.19-.87,7.83-9.94,5.57-20.27-2.26-10.33-8.55-18.01-13.68-17.15-5.13.86-7.19,9.93-4.98,20.27,2.21,10.34,7.91,18.02,13.1,17.16Z"/><path class="cls-3" d="m402.25,30.97c1.27-.76,2.26-2.13,2.95-3.89h-11.75c2.71,3.82,6.08,5.5,8.8,3.89Z"/><path class="cls-3" d="m410.48,61.19c-3.6,2.52-5.14,10.33-3.66,17.34,1.48,7.01,5.21,10.45,8.56,7.78,3.35-2.67,5.25-10.33,4.02-17.19-1.23-6.86-5.32-10.45-8.92-7.93Z"/><path class="cls-3" d="m417.5,111.98c-3.12,2.8-5.66,9.8-6.85,14.89-1.18,5.09.21,6.88,3.18,4.04,2.97-2.84,6.46-9.23,7.8-14.29,1.34-5.06-1.02-7.44-4.14-4.64Z"/><path class="cls-3" d="m399.55,165.25c3.05-2.68,7.12-8.39,9.12-12.73,2-4.33,1.26-5.55-1.69-2.77-2.95,2.79-7.04,8.45-9.14,12.67-2.1,4.22-1.34,5.5,1.71,2.82Z"/><path class="cls-3" d="m389.99,181.49c-3.26,2.49-8.14,7.42-10.86,11.1-2.72,3.68-2.06,4.4,1.45,2.1,3.5-2.3,8.34-6.84,10.81-10.73,2.46-3.89,1.87-4.95-1.39-2.46Z"/><path class="cls-3" d="m359.47,219.25c4.05-1.9,9.43-6.17,12.11-9.42,2.68-3.25,1.86-4.08-1.93-1.98-3.79,2.09-9.32,6.15-12.26,9.2-2.94,3.05-1.97,4.1,2.08,2.2Z"/><path class="cls-3" d="m347.85,231.95c-4.34,1.68-10.38,5.38-13.33,8.45-2.95,3.07-1.5,4.5,3.08,3.01,4.58-1.5,10.38-5.48,13.09-8.74,2.71-3.26,1.5-4.39-2.85-2.72Z"/><path class="cls-3" d="m317.36,269.12c4.98-1.17,10.86-5.13,13.32-8.64,2.46-3.51.69-5.11-4.12-3.81-4.82,1.31-11.03,4.9-13.65,8.27-2.62,3.37-.53,5.34,4.45,4.17Z"/><path class="cls-3" d="m313.65,289.16c1.93-4-.45-6.17-5.55-5.12-5.1,1.05-11.04,4.87-12.99,8.81-1.95,3.94.85,6.56,5.97,5.56,5.12-1,10.64-5.25,12.57-9.25Z"/><path class="cls-3" d="m301.78,322.51c1.15-4.67-1.84-7.51-6.89-6.51-5.05,1-10.16,5.46-11.15,10.2-.81,3.9,2.24,6.05,7.16,5.02,4.91-1.03,9.93-4.85,10.88-8.7Z"/><path class="cls-3" d="m290.91,348.19c1.77-2.84-.83-4.5-5.66-3.49-4.83,1.02-10.03,4.3-11.79,7.09-1.76,2.78.58,4.03,5.41,3.07,4.82-.96,10.28-3.83,12.05-6.68Z"/><path class="cls-3" d="m262.51,371.73c4.97-.72,10.82-2.76,13-4.84,2.18-2.07-.07-3.26-4.94-2.41-4.88.85-10.6,3.32-12.87,5.26-2.27,1.94-.16,2.7,4.81,1.98Z"/><path class="cls-3" d="m258.32,380.74c2.23-1.58-.1-2.62-5.21-2.09-5.11.54-11.18,2.32-13.57,3.72-2.39,1.4-.06,2.01,5.2,1.65,5.26-.36,11.34-1.7,13.57-3.28Z"/><path class="cls-3" d="m235.77,389.44c-5.45.13-11.62,1.4-13.72,2.55-2.1,1.15.81,1.91,6.42,1.98,5.61.07,11.67-.75,13.6-2.11,1.93-1.36-.86-2.56-6.31-2.43Z"/><path class="cls-3" d="m208.32,400.9c-1.41,1.21,2.19,2.53,8.12,3.04,5.92.51,11.81-.15,13.09-1.57,1.27-1.42-2.27-3.03-8.05-3.33-5.79-.3-11.74.65-13.15,1.87Z"/><path class="cls-3" d="m212.95,420.08c6.09.85,10.45-.3,10.29-2.71-.16-2.41-4.76-5.03-10.8-5.74-6.05-.7-11.31.67-11.2,2.93.11,2.26,5.62,4.66,11.71,5.51Z"/><path class="cls-3" d="m230.37,447.01c5.88,1.01,7.72-2.51,4.64-6.3-3.07-3.79-9.83-7.66-15.86-8.62-6.03-.96-8.96,1.3-5.73,5.03,3.23,3.73,11.07,8.87,16.95,9.89Z"/><path class="cls-3" d="m254.63,502.91c5.66.91,8.08-5.02,5.15-13.02-2.94-8-10.19-15.09-15.92-16.09-5.73-1-7.68,4.54-4.67,12.61,3.01,8.08,9.78,15.58,15.44,16.49Z"/><path class="cls-3" d="m273.75,577.02c5.66.58,8.56-7.12,6.24-17.16-2.33-10.04-8.99-18.75-14.63-19.51-5.64-.76-8.1,6.86-5.8,17.07,2.3,10.22,8.53,19.02,14.19,19.6Z"/><path class="cls-3" d="m438.78,63.24c2.78-3.26,4.77-11.03,4.19-17.51-.57-6.49-3.75-9.38-6.85-6.31-3.11,3.08-4.7,11.11-3.8,17.78.9,6.67,3.68,9.3,6.46,6.04Z"/><path class="cls-3" d="m434,106.42c2.32-3.46,5.44-10.33,7.06-15.36,1.62-5.04.17-6.75-2.29-3.32-2.46,3.43-4.8,10.83-6.29,15.87-1.5,5.04-.8,6.27,1.53,2.81Z"/><path class="cls-3" d="m427.15,125.8c-2.34,3.38-5.79,9.76-7.66,14.24-1.87,4.48-1.34,5.48,1.13,2.24,2.48-3.24,5.82-9.61,7.56-14.23,1.73-4.62,1.31-5.62-1.03-2.25Z"/><path class="cls-3" d="m412.86,160.09c-2.73,3.02-6.73,8.8-8.88,12.94-2.15,4.14-1.53,4.6,1.47,1.8,3-2.81,7.05-7.92,8.91-12.3,1.86-4.38,1.22-5.45-1.51-2.44Z"/><path class="cls-3" d="m396.87,189.74c-3.33,2.56-7.98,7.42-10.35,10.9-2.36,3.48-1.29,4.46,2.33,2.12,3.63-2.34,8.2-7.28,10.26-10.99,2.06-3.71,1.08-4.6-2.25-2.03Z"/><path class="cls-3" d="m368.04,227.28c-2.41,3.48-.86,4.86,3.38,2.99,4.23-1.88,9.33-6.46,11.47-10.15,2.14-3.7.72-4.93-3.23-2.84-3.96,2.09-9.2,6.53-11.61,10.01Z"/><path class="cls-3" d="m362.33,245.12c-4.51,1.66-10.1,5.87-12.35,9.55-2.25,3.68-.14,5.57,4.56,4.08s10.1-5.91,12.15-9.76c2.05-3.85.15-5.53-4.36-3.88Z"/><path class="cls-3" d="m351.75,279.67c1.81-4.16-.55-6.33-5.41-4.99-4.86,1.34-10.46,5.59-12.34,9.67-1.87,4.08.75,6.51,5.67,5.25,4.92-1.26,10.27-5.77,12.08-9.93Z"/><path class="cls-3" d="m328.2,322.6c4.79-1.19,9.81-5.24,11.06-9.21,1.44-4.59-1.27-7.27-6.16-6.04-4.89,1.23-10.04,5.88-11.35,10.5-1.1,3.89,1.67,5.93,6.46,4.74Z"/><path class="cls-3" d="m315.75,347.88c4.77-.85,9.94-3.99,11.68-7.15,1.75-3.16-.63-5-5.37-3.97-4.74,1.03-9.93,4.47-11.69,7.45-1.76,2.98.61,4.52,5.38,3.67Z"/><path class="cls-3" d="m313.09,362.51c1.94-2.55-.2-4.18-5.06-3.59-4.86.6-10.44,3.12-12.49,5.42-2.05,2.3.3,3.69,5.29,3.35,4.99-.34,10.32-2.64,12.26-5.19Z"/><path class="cls-3" d="m298.24,380.45c1.88-2.16-.39-3.88-5.56-3.86-5.17.02-11.04,1.71-13.08,3.57-2.04,1.86.67,3.41,6.02,3.7,5.35.29,10.75-1.25,12.62-3.41Z"/><path class="cls-3" d="m284.92,396.25c1.54-1.99-1.15-4.06-6.72-4.71-5.57-.65-11.57.35-13.3,2.01-1.73,1.67,1.64,3.63,7.41,4.61,5.77.98,11.06.07,12.61-1.92Z"/><path class="cls-3" d="m275.17,411.62c.95-2.05-2.38-4.67-8.37-6.02-5.98-1.35-11.86-.89-12.96.83-1.1,1.73,2.97,4.46,9.12,6.14,6.15,1.68,11.25,1.09,12.2-.96Z"/><path class="cls-3" d="m261.03,432.4c6.39,2.28,10.12,1.45,9.84-1.46-.28-2.91-4.48-6.59-10.79-8.61-6.32-2.01-11.68-1.45-11.46,1.19.22,2.64,6.03,6.59,12.42,8.87Z"/><path class="cls-3" d="m282.07,457.44c-2.77-4.09-8.75-9.02-15.12-11.56-6.37-2.54-9.77-1.46-6.86,2.46,2.91,3.92,10.75,10.47,16.99,13.12,6.24,2.66,7.76.07,4.99-4.02Z"/><path class="cls-3" d="m299.48,515.51c5.98,2.29,7.92-2.64,5.15-10.27-2.77-7.63-9.23-15.2-15.3-17.7-6.07-2.5-8.52,1.57-5.68,9.39,2.85,7.83,9.84,16.28,15.82,18.57Z"/><path class="cls-3" d="m324.4,571.54c-2.36-9.46-8.51-18.33-14.45-20.33-5.94-2-8.7,4.2-6.36,13.96,1.83,7.64,6.25,15.02,10.93,18.69h9.58c1.45-2.57,1.62-7,.3-12.31Z"/><path class="cls-3" d="m453.94,32.48c.2,6.27,2.04,8.42,4.35,5.03,1.51-2.23,2.95-6.23,3.82-10.43h-7.89c-.22,1.83-.33,3.67-.27,5.39Z"/><path class="cls-3" d="m455.76,60.59c-1.97,3.58-4.37,10.89-6.11,15.92-1.74,5.04-1.52,6.16.33,2.54,1.85-3.61,4.64-10.62,6.46-15.66,1.82-5.04,1.28-6.39-.69-2.81Z"/><path class="cls-3" d="m443.43,99.11c-1.91,3.53-4.84,10.28-6.41,15.06-1.57,4.78-1.05,5.9,1.03,2.52,2.09-3.38,4.78-10.12,6.17-15.05,1.4-4.93,1.12-6.06-.79-2.54Z"/><path class="cls-3" d="m427.2,152.62c2.69-2.94,6.02-8.38,7.21-13.28,1.19-4.9.32-6.29-2.06-3.13-2.38,3.16-5.61,9.49-7.13,14.14-1.52,4.65-.71,5.21,1.98,2.27Z"/><path class="cls-3" d="m421.24,169.41c-3.06,2.7-6.96,8.1-8.67,12.07-1.71,3.96-.32,5.17,3.08,2.7,3.4-2.47,7.24-7.86,8.61-12.05,1.38-4.19.04-5.41-3.02-2.72Z"/><path class="cls-3" d="m403.14,215.3c4.09-2,8.58-6.99,10.08-11.15,1.49-4.16-.32-5.73-4.09-3.51-3.77,2.22-8.34,7.19-10.15,11.13-1.81,3.94.08,5.53,4.16,3.53Z"/><path class="cls-3" d="m390.16,246.8c4.64-1.61,9.65-6.34,11.23-10.55,1.58-4.21-.68-6.17-5.09-4.39-4.4,1.78-9.5,6.45-11.31,10.49-1.81,4.04.53,6.05,5.17,4.45Z"/><path class="cls-3" d="m389.06,269.1c1.63-4.35-.95-6.67-5.79-5.21-4.84,1.46-10.22,6.03-11.94,10.29-1.73,4.26.94,6.67,5.87,5.3,4.94-1.37,10.23-6.03,11.86-10.38Z"/><path class="cls-3" d="m370.53,297.51c-4.95,1.33-10.25,6.14-11.83,10.67-1.42,4.06,1.16,6.19,5.99,4.92,4.83-1.27,10.23-5.59,11.81-9.75,1.69-4.47-1.01-7.17-5.96-5.84Z"/><path class="cls-3" d="m351.14,341.07c4.67-.87,9.93-4.34,11.76-7.92,1.83-3.58-.5-5.75-5.21-4.66-4.71,1.09-9.95,4.86-11.74,8.22-1.79,3.37.52,5.23,5.19,4.35Z"/><path class="cls-3" d="m348.78,358.81c1.81-3.13-.48-5.31-5.16-4.72-4.68.59-10.01,3.5-11.88,6.34-1.87,2.84.47,4.76,5.21,4.45,4.74-.3,10.02-2.95,11.83-6.08Z"/><path class="cls-3" d="m323.61,385.96c4.96.39,10.23-1.49,11.86-4.34,1.63-2.84-.92-5.29-5.76-5.34-4.84-.05-10.23,2.05-11.97,4.56-1.74,2.5.92,4.73,5.88,5.12Z"/><path class="cls-3" d="m317.39,396.47c-5.1-.78-10.46.59-11.86,2.96-1.39,2.37,1.81,5.12,7.05,6.26,5.23,1.14,10.41-.06,11.67-2.78,1.26-2.73-1.76-5.65-6.86-6.43Z"/><path class="cls-3" d="m316.48,423.95c.73-2.78-2.91-6.35-8.28-7.9-5.37-1.55-10.52-.78-11.36,1.65-.83,2.42,2.92,5.99,8.39,7.9,5.47,1.91,10.51,1.14,11.24-1.64Z"/><path class="cls-3" d="m304.17,450.14c5.56,2.57,9.47,1.76,9.17-1.75-.3-3.51-4.69-8.16-10.25-10.43-5.56-2.27-10.2-1.56-9.91,1.65.29,3.21,5.43,7.96,10.99,10.53Z"/><path class="cls-3" d="m318.34,482.14c5.3,2.99,7.18,1.21,4.82-3.29-2.37-4.5-8.24-10.34-13.71-13.2-5.47-2.86-8.35-1.85-5.79,2.44,2.56,4.29,9.38,11.06,14.68,14.05Z"/><path class="cls-3" d="m339.72,533.33c5.17,2.58,7.21-1.45,4.49-8.62-2.73-7.17-9.2-14.93-14.4-17.74-5.2-2.81-7.11.56-4.36,7.96,2.75,7.4,9.1,15.81,14.27,18.39Z"/><path class="cls-3" d="m350.38,566.74c-5.2-2.26-7.35,3.12-4.9,12.25.44,1.63,1,3.27,1.65,4.86h16.39c-2.91-7.81-8.47-15.08-13.13-17.11Z"/><path class="cls-3" d="m469.65,33.01c-1.68,3.54-4.35,10.56-6.26,15.6-1.91,5.04-1.96,6.21-.4,2.65,1.56-3.57,4.15-10.54,6.13-15.59,1.98-5.05,2.2-6.19.53-2.65Z"/><path class="cls-3" d="m456.98,72.02c-1.64,3.47-4.1,10.44-5.3,15.54-1.2,5.1-.53,6.51,1.29,3.19,1.82-3.32,3.93-10.25,4.94-15.5,1.01-5.25.71-6.7-.93-3.23Z"/><path class="cls-3" d="m449.58,112.02c-2.13,3.09-4.61,9.81-5.42,14.98-.82,5.17.29,6,2.74,3.13,2.45-2.86,5.08-8.45,5.56-13.87.48-5.42-.75-7.33-2.88-4.24Z"/><path class="cls-3" d="m443.81,148.83c-2.83,2.61-5.94,8.39-6.93,12.84-.99,4.45.8,6.08,3.98,3.7,3.18-2.38,6.27-8.03,6.91-12.72.64-4.69-1.13-6.43-3.96-3.82Z"/><path class="cls-3" d="m428.75,195.69c-1.13,4.41,1.11,6.4,5,4.51,3.89-1.89,7.72-7.11,8.52-11.74.8-4.63-1.45-6.74-5.01-4.62-3.57,2.11-7.38,7.45-8.51,11.86Z"/><path class="cls-3" d="m419.41,229.53c-1.3,4.41,1.26,6.74,5.73,5.26,4.47-1.48,8.99-6.34,10.04-10.92,1.06-4.59-1.54-7.02-5.77-5.37-4.22,1.66-8.7,6.62-10,11.03Z"/><path class="cls-3" d="m425.83,258.98c1.39-4.55-1.32-7.23-6-5.91-4.68,1.32-9.68,6.04-11.19,10.49-1.51,4.46,1.14,7.04,5.93,5.81,4.79-1.23,9.86-5.85,11.25-10.4Z"/><path class="cls-3" d="m401.36,303.82c4.71-1.11,10.29-5.55,12.19-9.98,1.88-4.38-.68-7.3-5.5-6.11-4.82,1.18-10.05,5.99-11.84,10.4-1.74,4.29.44,6.8,5.15,5.69Z"/><path class="cls-3" d="m386.67,335.09c4.58-.66,9.77-4.37,11.66-8.44,1.9-4.07-.24-6.78-4.84-5.88-4.61.9-9.89,4.89-11.76,8.72-1.87,3.84.36,6.26,4.94,5.6Z"/><path class="cls-3" d="m384.6,356.72c1.66-3.77-.65-6.66-5.26-6.3-4.61.36-9.81,3.57-11.55,7.04-1.74,3.46.7,6.11,5.39,6.07,4.68-.05,9.76-3.03,11.42-6.81Z"/><path class="cls-3" d="m372.95,384.94c1.35-3.59-1.36-6.86-6.16-7.19-4.8-.33-9.98,2.12-11.46,5.35s1.39,6.32,6.32,7.01c4.94.69,9.95-1.58,11.3-5.17Z"/><path class="cls-3" d="m363.99,412.23c.96-3.53-2.29-7.35-7.39-8.46-5.1-1.11-10.22.61-11.33,3.76-1.11,3.15,2.34,6.84,7.58,8.33s10.18-.1,11.14-3.63Z"/><path class="cls-3" d="m349.58,429.48c-5.39-1.92-10.37-.84-10.98,2.36-.61,3.2,3.36,7.74,8.87,10.04,5.51,2.3,10.39,1.2,10.88-2.39.49-3.58-3.37-8.08-8.77-10.01Z"/><path class="cls-3" d="m347.22,471.76c5.63,3.01,9.63,2,9.3-2.19-.33-4.18-4.87-9.7-10.48-12.39-5.61-2.69-10.23-1.81-9.92,2.05.31,3.86,5.46,9.51,11.09,12.53Z"/><path class="cls-3" d="m359.46,507.18c5.4,3.47,7.61,2.32,5.63-2.66-1.98-4.98-7.7-11.57-13.26-14.9-5.55-3.33-8.74-2.33-6.58,2.42,2.16,4.75,8.82,11.67,14.21,15.14Z"/><path class="cls-3" d="m379.81,554.97c5.25,3.01,7.34-.23,4.69-6.88-2.66-6.64-9.08-14.34-14.36-17.61-5.28-3.26-7.37-.67-4.68,6.22,2.69,6.89,9.11,15.25,14.36,18.26Z"/><path class="cls-3" d="m469.04,46.61c-1.53,3.09-3.65,10.03-4.45,15.45-.81,5.42.14,7.38,1.85,4.44,1.71-2.94,3.35-9.81,3.97-15.38.62-5.57.16-7.6-1.37-4.51Z"/><path class="cls-3" d="m465.24,109.36c2.34-2.49,4.37-7.99,4.12-13.94-.24-5.94-1.94-8.61-3.95-5.9-2.01,2.71-3.84,9.59-3.93,15.28-.09,5.7,1.42,7.04,3.76,4.55Z"/><path class="cls-3" d="m464.79,148.36c3.06-2.01,5.48-7.72,5.38-12.9-.1-5.18-2.39-7.69-5.1-5.44-2.72,2.24-5.11,8.18-5.36,13.13-.25,4.95,2.02,7.22,5.08,5.21Z"/><path class="cls-3" d="m463.16,186.91c3.77-1.53,6.97-6.77,7.08-11.88.11-5.11-2.64-7.96-6.08-6.21-3.44,1.75-6.56,7.24-6.99,12.13-.44,4.88,2.23,7.49,6,5.96Z"/><path class="cls-3" d="m461.36,206.99c-4.1,1.3-7.99,6.35-8.76,11.14-.78,4.79,2.05,7.63,6.39,6.51,4.34-1.12,8.39-5.91,8.92-10.88.53-4.96-2.45-8.08-6.55-6.78Z"/><path class="cls-3" d="m450.89,261.17c4.66-.87,9.51-5.28,10.67-10.03,1.16-4.75-1.72-7.97-6.27-7.01-4.55.97-9.18,5.65-10.44,10.31-1.27,4.66,1.39,7.6,6.05,6.73Z"/><path class="cls-3" d="m449.59,286.62c2.05-4.32-.36-7.59-5.04-6.76-4.69.83-9.85,5.43-11.82,9.78-2.07,4.58-.24,7.61,4.35,6.84,4.59-.77,10.28-5.16,12.51-9.87Z"/><path class="cls-3" d="m432.98,322.39c1.93-4.56-.02-7.92-4.51-7.35-4.49.57-9.79,4.68-11.71,9.01-1.92,4.33.25,7.43,4.73,7.09,4.48-.35,9.56-4.2,11.49-8.76Z"/><path class="cls-3" d="m419.83,356.82c1.49-4.42-.86-8.05-5.38-8.01-4.52.05-9.56,3.54-11.14,7.65-1.58,4.12.98,7.56,5.59,7.81,4.61.25,9.44-3.04,10.93-7.45Z"/><path class="cls-3" d="m410.06,390.42c1.06-4.34-1.83-8.43-6.57-9.04-4.74-.61-9.66,2.2-10.86,6.2-1.2,3.99,1.89,7.94,6.77,8.9,4.89.96,9.6-1.72,10.66-6.05Z"/><path class="cls-3" d="m403.58,423.68c.63-4.33-2.85-8.99-7.92-10.35-5.06-1.37-9.91.78-10.7,4.74-.79,3.96,2.89,8.53,8.11,10.27,5.22,1.74,9.87-.33,10.5-4.65Z"/><path class="cls-3" d="m389.87,460.53c5.52,2.53,10.18.94,10.4-3.44.23-4.38-3.86-9.69-9.25-11.85-5.39-2.16-10.14-.64-10.5,3.37-.35,4.01,3.83,9.39,9.34,11.92Z"/><path class="cls-3" d="m399.97,492.79c-.4-4.85-5.06-11.07-10.69-13.97-5.63-2.9-10.16-1.66-9.8,2.89.36,4.54,5.51,10.92,11.18,14.14,5.66,3.21,9.71,1.8,9.31-3.05Z"/><path class="cls-3" d="m401.15,534.74c5.45,3.65,7.98,2.9,6.36-2.56-1.62-5.45-7.18-12.57-12.79-16.09-5.6-3.52-9.03-2.29-7.24,2.95,1.79,5.23,8.22,12.04,13.67,15.7Z"/><path class="cls-3" d="m420.25,579.07c5.27,3.22,7.4.56,4.85-5.56-2.56-6.12-8.87-13.56-14.19-17.02-5.32-3.46-7.57-1.45-4.96,4.91,2.61,6.36,9.03,14.45,14.3,17.67Z"/><path class="cls-3" d="m479.61,46.32c1.75-2.26,3.07-8.8,3.32-14.67.08-1.84.06-3.39-.05-4.57h-2.91c-1.34,3.08-2.68,8.33-3.03,13-.42,5.73.92,8.49,2.66,6.24Z"/><path class="cls-3" d="m480.88,71.07c-2.03,2.04-3.32,8.82-2.7,15.03.62,6.21,2.64,8.3,4.99,6.47s3.89-6.99,2.95-13.44c-.94-6.45-3.2-10.1-5.23-8.06Z"/><path class="cls-3" d="m485.82,115.11c-2.7,1.59-4.48,7.46-4,12.89.48,5.44,3.3,8.56,6.34,7.19,3.04-1.37,4.87-6.89,4.06-12.55-.81-5.66-3.69-9.13-6.4-7.54Z"/><path class="cls-3" d="m490.43,157.61c-3.41,1.12-5.89,6.56-5.65,11.91.25,5.35,3.38,8.76,7.1,7.85,3.72-.91,6.37-5.96,5.81-11.52-.56-5.56-3.86-9.36-7.26-8.23Z"/><path class="cls-3" d="m492.55,199.16c-4.03.7-7.38,5.64-7.64,10.8-.26,5.15,2.85,8.7,7.11,8.17,4.26-.53,7.89-5.06,7.91-10.37.03-5.32-3.36-9.29-7.39-8.59Z"/><path class="cls-3" d="m486.26,256.48c4.55-.31,9.21-4.31,10.15-9.24.94-4.93-2.1-8.86-6.55-8.47-4.45.39-8.73,4.86-9.77,9.71-1.04,4.85,1.63,8.31,6.17,8.01Z"/><path class="cls-3" d="m468.23,284.24c-2.41,4.83-.87,8.49,3.58,8.25,4.45-.24,10.2-4.37,12.77-9.29,2.23-4.27.01-8.01-4.54-7.73-4.55.28-9.67,4.48-11.81,8.78Z"/><path class="cls-3" d="m462.52,312.4c-4.37.09-9.64,4.18-11.59,8.97-1.95,4.79.17,8.62,4.53,8.7,4.36.09,9.3-3.77,11.25-8.73,1.95-4.97.17-9.03-4.2-8.94Z"/><path class="cls-3" d="m454.34,359.56c1.29-4.98-1.09-9.37-5.51-9.71-4.42-.33-9.26,3.33-10.65,8.06-1.39,4.73,1.28,8.95,5.8,9.54,4.52.58,9.07-2.91,10.36-7.89Z"/><path class="cls-3" d="m446.63,397.95c.73-5.01-2.32-9.85-6.98-10.75-4.66-.9-9.28,2.25-10.17,6.96-.89,4.71,2.41,9.45,7.23,10.65,4.82,1.2,9.19-1.85,9.92-6.86Z"/><path class="cls-3" d="m434.35,424.61c-5-1.56-9.53,1.04-9.98,5.76-.45,4.72,3.47,10.06,8.64,11.95,5.17,1.88,9.49-.67,9.78-5.72.28-5.05-3.44-10.43-8.44-11.99Z"/><path class="cls-3" d="m432.17,480.25c5.49,2.58,9.88.44,9.82-4.66-.06-5.1-4.37-11.05-9.71-13.31-5.35-2.25-9.83-.22-9.9,4.56-.08,4.77,4.31,10.83,9.79,13.41Z"/><path class="cls-3" d="m434.19,520.52c5.66,3.17,9.69,1.22,9.21-4.22-.48-5.44-5.26-12.12-10.87-15.03-5.61-2.91-10-1.16-9.56,4.02.44,5.18,5.58,12.06,11.23,15.23Z"/><path class="cls-3" d="m443.05,562.56c5.45,3.54,8.29,2.86,7.01-2.99-1.28-5.85-6.67-13.21-12.27-16.63-5.6-3.42-9.21-1.77-7.78,3.91,1.44,5.68,7.59,12.18,13.04,15.71Z"/><path class="cls-3" d="m451.79,582.97c-4.13-2.64-6.48-2.2-6.16.87h7.39c-.41-.3-.83-.62-1.23-.87Z"/><path class="cls-3" d="m493.66,32.63c1.06-.69,1.88-2.78,2.41-5.54h-5.96c.45,4.21,1.96,6.57,3.55,5.54Z"/><path class="cls-3" d="m495.24,73.12c1.29,6.7,3.89,9.75,6.36,8.87,2.48-.87,3.68-5.43,2.1-12.35-1.59-6.92-4.47-11.77-6.66-10.7-2.19,1.07-3.08,7.48-1.79,14.18Z"/><path class="cls-3" d="m506.92,106.27c-2.8.66-4.09,6.2-2.91,12.09,1.17,5.9,4.6,10.08,7.7,9.62,3.11-.46,4.48-5.54,3.01-11.64-1.48-6.09-4.99-10.73-7.8-10.07Z"/><path class="cls-3" d="m516.71,152.22c-3.45.24-5.4,5.37-4.51,11.16.89,5.79,4.52,10.19,8.25,10.14,3.73-.05,5.93-4.66,4.75-10.64-1.18-5.98-5.05-10.9-8.49-10.66Z"/><path class="cls-3" d="m516.72,206.85c.22,5.49,3.62,9.9,7.84,10.19,4.21.29,7.5-3.74,7.08-9.38-.42-5.64-4.22-10.63-8.23-10.77-4.01-.15-6.9,4.47-6.69,9.97Z"/><path class="cls-3" d="m520.78,256.96c4.44.47,8.97-2.93,9.75-8,.78-5.08-2.41-9.86-6.79-10.27-4.37-.41-8.36,3.64-9.21,8.65-.85,5.01,1.8,9.15,6.24,9.62Z"/><path class="cls-3" d="m505.45,293.22c4.3.46,10.06-3.13,12.98-8.12,2.46-4.21.47-8.53-3.94-9.01-4.42-.48-9.52,3.11-11.87,7.35-2.75,4.98-1.48,9.31,2.83,9.77Z"/><path class="cls-3" d="m488.52,332.74c4.23.63,9.01-3.02,10.96-8.25,1.95-5.23.34-10-3.89-10.52-4.23-.52-9.46,3.33-11.41,8.46-1.95,5.13.11,9.69,4.34,10.32Z"/><path class="cls-3" d="m472.25,362.22c-1.18,5.23,1.61,10.18,6.01,11.14,4.4.96,8.65-2.59,9.73-7.99,1.07-5.4-1.35-10.49-5.64-11.27-4.3-.78-8.92,2.9-10.1,8.13Z"/><path class="cls-3" d="m465.68,402.72c-.56,5.31,2.95,10.73,7.67,12.14,4.72,1.41,8.72-1.91,9.12-7.45.4-5.53-2.82-11.02-7.38-12.21-4.56-1.19-8.85,2.2-9.4,7.51Z"/><path class="cls-3" d="m472.43,457.03c5.09,1.93,9.04-1.09,8.96-6.71-.08-5.62-4.03-11.55-8.94-13.23-4.91-1.68-9.08,1.32-9.17,6.7-.09,5.38,4.06,11.31,9.14,13.24Z"/><path class="cls-3" d="m474.1,499.69c5.42,2.46,9.52-.26,9.15-5.93-.37-5.67-4.88-12.03-10.15-14.24-5.27-2.21-9.44.37-9.22,5.79.22,5.43,4.8,11.93,10.22,14.38Z"/><path class="cls-3" d="m477.48,543.94c5.6,2.88,9.58.32,8.99-5.57-.58-5.89-5.46-12.75-11.02-15.44-5.56-2.7-9.76-.37-9.22,5.33.53,5.7,5.64,12.8,11.25,15.68Z"/><path class="cls-3" d="m480.71,567.99c-5.56-3.05-9.31-.84-8.2,5.17.7,3.79,3.27,7.61,6.44,10.69h13.35c-1.17-5.98-6.19-12.9-11.59-15.86Z"/><path class="cls-3" d="m511.11,27.08h-2.83c.48.44.97.69,1.47.7.51.01.96-.25,1.36-.7Z"/><path class="cls-3" d="m521.53,79.86c2.73.37,3.76-3.3,1.61-10.62-2.15-7.32-5.71-13.57-8.2-13.78-2.49-.21-3.15,5.55-1.25,12.69,1.9,7.14,5.11,11.34,7.84,11.71Z"/><path class="cls-3" d="m536.19,128.81c3.28.72,4.33-3.66,2.27-10.13-2.06-6.47-6.24-12.46-9.25-13.01-3.01-.55-3.94,4.39-2.14,10.7,1.8,6.3,5.85,11.72,9.12,12.44Z"/><path class="cls-3" d="m543.61,154.64c-3.57-.91-5.12,3.68-3.65,9.85,1.47,6.18,5.6,11.73,9.41,12.8,3.81,1.07,5.68-2.86,3.97-9.2-1.72-6.33-6.16-12.54-9.73-13.45Z"/><path class="cls-3" d="m548.38,210.61c.63,5.78,4.31,11.2,8.52,12.54,4.21,1.34,7.25-1.97,6.46-7.86-.79-5.9-4.98-12.06-9.03-13.29-4.05-1.23-6.58,2.82-5.95,8.61Z"/><path class="cls-3" d="m557.15,245.61c-4.32-1.43-8.09,1.97-8.82,7.1-.73,5.13,1.87,10.07,6.22,11.53,4.35,1.46,8.82-1.11,9.52-6.27.7-5.16-2.6-10.93-6.92-12.36Z"/><path class="cls-3" d="m537.95,300.07c4.15,1.35,9.88-1.38,13.16-6.23,2.78-4.1,1.08-9.11-3.2-10.54-4.28-1.43-9.43,1.31-12.05,5.47-3.11,4.94-2.06,9.94,2.09,11.29Z"/><path class="cls-3" d="m527.55,320.83c-4.08-1.29-9.24,2.07-11.18,7.35-1.94,5.28.07,10.52,4.16,11.79,4.09,1.28,8.69-1.89,10.62-7.16,1.93-5.27.49-10.69-3.59-11.98Z"/><path class="cls-3" d="m514.87,362.09c-4.16-1.31-8.53,2.19-9.48,7.73-.95,5.54,1.94,11.1,6.21,12.47,4.27,1.37,8.19-2.02,9.04-7.63.85-5.6-1.61-11.27-5.77-12.58Z"/><path class="cls-3" d="m509.16,426.41c4.6,1.59,8.2-1.86,8.24-7.7.05-5.84-3.33-11.79-7.76-13.27s-8.36,2-8.57,7.73c-.21,5.73,3.5,11.66,8.09,13.25Z"/><path class="cls-3" d="m509.77,450.25c-4.8-1.73-8.56,1.59-8.28,7.43.28,5.85,4.65,12.14,9.62,14.01,4.98,1.87,8.53-1.51,8.07-7.49-.46-5.98-4.62-12.22-9.41-13.95Z"/><path class="cls-3" d="m515.39,517.55c5.32,2.16,9.07-1.09,8.39-7.12s-5.38-12.51-10.55-14.54c-5.17-2.03-8.98,1.05-8.45,6.94.53,5.89,5.28,12.55,10.6,14.71Z"/><path class="cls-3" d="m520.24,564.23c5.52,2.36,9.39-.84,8.69-6.96-.7-6.12-5.66-12.8-11.12-15.08-5.46-2.28-9.43.64-8.79,6.69.64,6.04,5.7,13,11.22,15.36Z"/><path class="cls-3" d="m529.02,34.21c2.55,1.54,3.95-1.57,3.83-7.12h-8.43c1.21,3.4,2.94,6.12,4.6,7.12Z"/><path class="cls-3" d="m535.62,62.94c-2.92-1.78-3.53,3.03-1.12,10.54,2.41,7.51,6.27,13.04,9.38,14.95,3.11,1.91,4.15-.57,1.54-8.23-2.61-7.66-6.87-15.48-9.79-17.26Z"/><path class="cls-3" d="m564.22,131.77c-2.54-6.78-7.38-14.27-10.71-16.31-3.33-2.04-4.06,2.02-1.73,8.67s7,13.46,10.54,15.63c3.54,2.17,4.44-1.21,1.9-7.99Z"/><path class="cls-3" d="m571.77,166.89c-3.77-2.32-5.05,1.45-3.1,7.95,1.96,6.49,6.56,13.35,10.52,15.79,3.96,2.44,5.64-.54,3.49-7.16-2.15-6.62-7.15-14.26-10.92-16.58Z"/><path class="cls-3" d="m585.73,216.39c-4.14-2.56-6.42.68-5.47,6.69.95,6,4.86,12.56,9.1,15.19,4.25,2.63,7.16.3,6.1-5.78-1.06-6.08-5.59-13.54-9.73-16.1Z"/><path class="cls-3" d="m597.19,275.94c.72-5.17-2.62-12.04-6.92-14.71-4.3-2.67-7.95-.15-8.65,5.02-.7,5.18,1.79,11.04,6.06,13.7,4.27,2.66,8.78,1.16,9.5-4.01Z"/><path class="cls-3" d="m582.54,310.95c3.19-3.88,1.88-9.71-2.26-12.3-4.14-2.59-9.41-.9-12.39,3.1-3.46,4.65-2.64,10.26,1.35,12.68,3.99,2.42,9.71.89,13.31-3.48Z"/><path class="cls-3" d="m561.61,347.28c1.91-5.03.64-10.98-3.28-13.17-3.92-2.19-9,.34-10.92,5.53-1.92,5.19.03,10.97,3.96,13.01,3.94,2.04,8.33-.33,10.24-5.36Z"/><path class="cls-3" d="m546.28,374.42c-4.01-1.91-8.1,1.14-8.82,6.74-.72,5.6,2.28,11.59,6.4,13.42,4.12,1.83,7.69-1.15,8.3-6.67.61-5.52-1.86-11.59-5.87-13.5Z"/><path class="cls-3" d="m543.93,439.22c4.45,1.74,7.62-1.63,7.31-7.49-.31-5.86-3.84-12.05-8.12-13.82-4.28-1.77-7.82,1.58-7.68,7.47.14,5.89,4.04,12.09,8.49,13.83Z"/><path class="cls-3" d="m548.83,485.54c4.83,1.71,7.96-1.87,7.11-7.93-.85-6.05-5.19-12.32-9.85-14.04-4.65-1.72-8,1.76-7.33,7.83.67,6.06,5.23,12.43,10.06,14.14Z"/><path class="cls-3" d="m555.77,532.5c5.18,1.7,8.56-2,7.55-8.1-1.01-6.1-5.87-12.35-10.9-14.06-5.03-1.71-8.45,1.78-7.6,7.89.86,6.11,5.76,12.57,10.94,14.27Z"/><path class="cls-3" d="m562.14,579.52c5.38,1.58,9.12-2.21,8.3-8.27-.82-6.06-5.83-12.17-11.16-13.83-5.33-1.65-9.03,1.83-8.27,7.96.76,6.12,5.74,12.55,11.13,14.13Z"/><path class="cls-3" d="m551.15,30.78c-3.43-3.48-6.39-1.16-5.96,5.33.44,6.49,4.05,14.69,7.46,18.16,4.24,4.32,7.06,2,6.63-4.5-.43-6.5-3.89-14.68-8.13-18.99Z"/><path class="cls-3" d="m560.14,83.67c-3.49-3.55-4.26-.11-1.46,7.68,2.8,7.79,7.31,14.9,10.92,18.55,4.23,4.28,6.22,3.1,3.36-4.73-2.85-7.82-8.59-17.2-12.82-21.51Z"/><path class="cls-3" d="m578.93,143.76c2.74,6.9,8.02,15.27,11.92,19.16,4.23,4.22,5.54,1.78,2.74-5.15-2.79-6.93-8.69-15.73-12.92-19.97-3.76-3.77-4.48-.93-1.74,5.97Z"/><path class="cls-3" d="m598.89,196.37c1.03,2.98,2.62,6.26,4.42,9.36v-13.14c-.51-.59-1.02-1.14-1.51-1.62-4.03-3.99-5.24-1.32-2.91,5.41Z"/><path class="cls-3" d="m603.31,321.13c-1.72.4-3.34,1.34-4.67,2.76-3.75,4-3.22,10.17.6,13.81,1.23,1.17,2.63,1.97,4.07,2.49v-19.05Z"/><path class="cls-3" d="m592.38,369.41c1.84-4.46-.09-10.73-4.54-14.52-3.75-3.19-8.73-1.91-10.63,2.85-1.9,4.76,0,10.97,3.75,13.83,4.57,3.48,9.59,2.3,11.43-2.16Z"/><path class="cls-3" d="m574.86,410.51c4.82,2.85,8.86.78,9.24-4.3.39-5.08-2.95-11.43-7.67-14.58-3.83-2.56-7.64-.31-8.13,5.03-.49,5.33,2.62,11.53,6.55,13.86Z"/><path class="cls-3" d="m577.48,453.05c4.96,2.22,8.43-.5,7.81-6.01-.62-5.51-5.01-11.88-9.91-14.39-4.06-2.08-7.25.9-6.75,6.63.5,5.73,4.64,11.89,8.85,13.77Z"/><path class="cls-3" d="m585.34,497.77c5.09,1.66,8.33-1.62,7.15-7.36-1.18-5.74-6.26-11.97-11.29-13.89-4.4-1.68-7.38,1.8-6.32,7.75,1.05,5.95,5.87,12,10.46,13.5Z"/><path class="cls-3" d="m594.96,543.21c5.24,1.15,8.57-2.6,7.28-8.4-1.29-5.8-6.65-11.63-11.82-13.01-4.8-1.28-7.86,2.5-6.68,8.49,1.18,6,6.25,11.84,11.22,12.92Z"/><path class="cls-3" d="m603.31,568.38c-1.2-.66-2.46-1.12-3.72-1.33-5.12-.84-8.56,3.14-7.67,9.02.43,2.87,1.82,5.63,3.74,7.77h7.66v-15.47Z"/><path class="cls-3" d="m592.22,37.12c3.63,2.46,7.8,2.1,11.09-.18v-9.86h-16.17c-.2,3.78,1.77,7.79,5.08,10.04Z"/><path class="cls-3" d="m588.4,83.49c4.9,3.3,7.98.18,7.55-6.31-.44-6.49-4.19-13.89-9.08-17.19-4.9-3.3-9.1-1.27-8.66,5.23.44,6.5,5.3,14.98,10.2,18.28Z"/><path class="cls-3" d="m595.62,112.72c-4.86-3.26-6.79-.04-3.99,7.73,2.53,7.02,7.25,13.58,11.68,17.17v-16.62c-2.46-3.59-5.21-6.62-7.69-8.28Z"/></g></svg>